DBRep_DrawableShape

CASCADE Topology V1, (c) Matra-Datavision
Locations 14
1
              1               0               0               0 
              0               1               0               0 
              0               0               1               0 
2  1 -1 0
1
              1               0               0               0 
              0               1               0               0 
              0               0               1               0 
1
              1               0               0               0 
              0               1               0               0 
              0               0               1               0 
2  3 1 4 -1 0
2  4 1 3 -1 0
2  3 -1 0
2  1 -1 4 1 3 -1 0
1
              1               0               0               0 
              0               1               0               0 
              0               0               1              10 
2  3 1 4 -1 9 1 0
2  9 -1 4 1 3 -1 0
2  1 -1 9 -1 4 1 3 -1 0
2  4 -1 0
2  4 -1 9 1 0
Curve2ds 24
1 0 -0 0 -1 
1 7.8539816468682426 0 0 -1 
1 10.000000000056231 0 0 -1 
1 1.5707922196634798 0 0 -1 
1 0 -0 1 0 
1 0 0 1 0 
1 0 -10 1 0 
1 0 0 1 0 
1 3.665195536319509 0 0 -1 
1 2.0943951023931966 0 0 -1 
1 0 0 1 0 
2 10.000023712534293 -5.7734890014581968 -1 0 0 1 5.7734890014581985
1 0 -10 1 0 
2 10.000023712534293 -5.7734890014581968 -1 0 0 1 5.7734890014581985
1 0 0 0 -1 
1 4.7123889674909307 0 0 -1 
1 0 0 1 0 
2 10 -17.320508075688771 -1 0 0 1 10
1 0 -10 1 0 
2 10 -17.320508075688771 -1 0 0 1 10
1 0 0 1 0 
2 -1.1166323333e-07 -8.6602540378443837 -1 0 0 1 8.6602540378443855
1 0 -10 1 0 
2 -1.1166323333e-07 -8.6602540378443837 -1 0 0 1 8.6602540378443855
Curves 12
1 4.9999999999999991 8.6602540378443837 0 0 0 1 
1 -5.0000000000562315 8.660254037820037 0 0 0 1 
1 4.9999999999999991 8.6602540378443837 0 -1 0 0 
1 4.9999999999999991 8.6602540378443837 0 -1 0 0 
1 -9.9999999999929763 3.6519230000000002e-11 0 0 0 1 
2 -5.0000237125342935 2.8867650363861865 0 0 0 1 1 0 -0 -0 1 0 5.7734890014581985
2 -5.0000237125342935 2.8867650363861865 0 0 0 1 1 0 -0 -0 1 0 5.7734890014581985
1 5.0000000000000018 -8.6602540378443855 0 0 0 1 
2 -5 -8.6602540378443873 0 0 0 1 1 0 -0 -0 1 0 10
2 -5 -8.6602540378443873 0 0 0 1 1 0 -0 -0 1 0 10
2 5.0000001116632324 3.2999999999999999e-16 0 0 0 1 1 0 -0 -0 1 0 8.6602540378443855
2 5.0000001116632324 3.2999999999999999e-16 0 0 0 1 1 0 -0 -0 1 0 8.6602540378443855
Polygon3D 0
PolygonOnTriangulations 24
2 3 4 
p 0.0344997292271935 1 0 10 
2 1 2 
p 0.0344997292271935 1 0 10 
2 1 2 
p 0.0344997292271935 1 0 10 
2 3 4 
p 0.0344997292271935 1 0 10 
2 1 3 
p 0.0344997292271935 1 0 10.0000000000562 
2 1 2 
p 0.0344997292271935 1 0 10.0000000000562 
2 2 4 
p 0.0344997292271935 1 0 10.0000000000562 
2 1 2 
p 0.0344997292271935 1 0 10.0000000000562 
2 3 4 
p 0.0344997292271935 1 0 10 
2 3 4 
p 0.0344997292271935 1 0 10 
27 1 5 6 7 8 9 10 11 12 13 14 15 16 17 18 19 20 21 22 23 24 25 26 27 28 29 3 
p 0.0344997292271935 1 1.57079221966348 1.65134619338102 1.73190016709856 1.8124541408161 1.89300811453364 1.97356208825118 2.05411606196872 2.13467003568626 2.2152240094038 2.29577798312134 2.37633195683888 2.45688593055642 2.53743990427396 2.61799387799149 2.69854785170903 2.77910182542657 2.85965579914411 2.94020977286165 3.02076374657919 3.10131772029673 3.18187169401427 3.26242566773181 3.34297964144935 3.42353361516689 3.50408758888443 3.58464156260197 3.66519553631951 
27 2 4 5 6 7 8 9 10 11 12 13 14 15 16 17 18 19 20 21 22 23 24 25 26 27 28 3 
p 0.0344997292271935 1 1.57079221966348 1.65134619338102 1.73190016709856 1.8124541408161 1.89300811453364 1.97356208825118 2.05411606196872 2.13467003568626 2.2152240094038 2.29577798312134 2.37633195683888 2.45688593055642 2.53743990427396 2.61799387799149 2.69854785170903 2.77910182542657 2.85965579914411 2.94020977286165 3.02076374657919 3.10131772029673 3.18187169401427 3.26242566773181 3.34297964144935 3.42353361516689 3.50408758888443 3.58464156260197 3.66519553631951 
27 2 30 31 32 33 34 35 36 37 38 39 40 41 42 43 44 45 46 47 48 49 50 51 52 53 54 4 
p 0.0344997292271935 1 1.57079221966348 1.65134619338102 1.73190016709856 1.8124541408161 1.89300811453364 1.97356208825118 2.05411606196872 2.13467003568626 2.2152240094038 2.29577798312134 2.37633195683888 2.45688593055642 2.53743990427396 2.61799387799149 2.69854785170903 2.77910182542657 2.85965579914411 2.94020977286165 3.02076374657919 3.10131772029673 3.18187169401427 3.26242566773181 3.34297964144935 3.42353361516689 3.50408758888443 3.58464156260197 3.66519553631951 
27 2 4 5 6 7 8 9 10 11 12 13 14 15 16 17 18 19 20 21 22 23 24 25 26 27 28 3 
p 0.0344997292271935 1 1.57079221966348 1.65134619338102 1.73190016709856 1.8124541408161 1.89300811453364 1.97356208825118 2.05411606196872 2.13467003568626 2.2152240094038 2.29577798312134 2.37633195683888 2.45688593055642 2.53743990427396 2.61799387799149 2.69854785170903 2.77910182542657 2.85965579914411 2.94020977286165 3.02076374657919 3.10131772029673 3.18187169401427 3.26242566773181 3.34297964144935 3.42353361516689 3.50408758888443 3.58464156260197 3.66519553631951 
2 1 2 
p 0.0344997292271935 1 0 10 
2 1 2 
p 0.0344997292271935 1 0 10 
35 1 5 6 7 8 9 10 11 12 13 14 15 16 17 18 19 20 21 22 23 24 25 26 27 28 29 30 31 32 33 34 35 36 37 3 
p 0.0344997292271935 1 0 0.0615998559527411 0.123199711905482 0.184799567858223 0.246399423810964 0.307999279763705 0.369599135716447 0.431198991669188 0.492798847621929 0.55439870357467 0.615998559527411 0.677598415480152 0.739198271432893 0.800798127385634 0.862397983338375 0.923997839291116 0.985597695243857 1.0471975511966 1.10879740714934 1.17039726310208 1.23199711905482 1.29359697500756 1.3551968309603 1.41679668691305 1.47839654286579 1.53999639881853 1.60159625477127 1.66319611072401 1.72479596667675 1.78639582262949 1.84799567858223 1.90959553453497 1.97119539048771 2.03279524644046 2.0943951023932 
35 29 30 31 32 33 34 35 36 37 38 39 40 41 42 43 44 45 46 47 48 49 50 51 52 53 54 55 56 57 58 59 60 61 62 3 
p 0.0344997292271935 1 0 0.0615998559527411 0.123199711905482 0.184799567858223 0.246399423810964 0.307999279763705 0.369599135716447 0.431198991669188 0.492798847621929 0.55439870357467 0.615998559527411 0.677598415480152 0.739198271432893 0.800798127385634 0.862397983338375 0.923997839291116 0.985597695243857 1.0471975511966 1.10879740714934 1.17039726310208 1.23199711905482 1.29359697500756 1.3551968309603 1.41679668691305 1.47839654286579 1.53999639881853 1.60159625477127 1.66319611072401 1.72479596667675 1.78639582262949 1.84799567858223 1.90959553453497 1.97119539048771 2.03279524644046 2.0943951023932 
35 2 38 39 40 41 42 43 44 45 46 47 48 49 50 51 52 53 54 55 56 57 58 59 60 61 62 63 64 65 66 67 68 69 70 4 
p 0.0344997292271935 1 0 0.0615998559527411 0.123199711905482 0.184799567858223 0.246399423810964 0.307999279763705 0.369599135716447 0.431198991669188 0.492798847621929 0.55439870357467 0.615998559527411 0.677598415480152 0.739198271432893 0.800798127385634 0.862397983338375 0.923997839291116 0.985597695243857 1.0471975511966 1.10879740714934 1.17039726310208 1.23199711905482 1.29359697500756 1.3551968309603 1.41679668691305 1.47839654286579 1.53999639881853 1.60159625477127 1.66319611072401 1.72479596667675 1.78639582262949 1.84799567858223 1.90959553453497 1.97119539048771 2.03279524644046 2.0943951023932 
35 29 30 31 32 33 34 35 36 37 38 39 40 41 42 43 44 45 46 47 48 49 50 51 52 53 54 55 56 57 58 59 60 61 62 3 
p 0.0344997292271935 1 0 0.0615998559527411 0.123199711905482 0.184799567858223 0.246399423810964 0.307999279763705 0.369599135716447 0.431198991669188 0.492798847621929 0.55439870357467 0.615998559527411 0.677598415480152 0.739198271432893 0.800798127385634 0.862397983338375 0.923997839291116 0.985597695243857 1.0471975511966 1.10879740714934 1.17039726310208 1.23199711905482 1.29359697500756 1.3551968309603 1.41679668691305 1.47839654286579 1.53999639881853 1.60159625477127 1.66319611072401 1.72479596667675 1.78639582262949 1.84799567858223 1.90959553453497 1.97119539048771 2.03279524644046 2.0943951023932 
49 1 5 6 7 8 9 10 11 12 13 14 15 16 17 18 19 20 21 22 23 24 25 26 27 28 29 30 31 32 33 34 35 36 37 38 39 40 41 42 43 44 45 46 47 48 49 50 51 3 
p 0.0344997292271935 1 4.71238896749093 4.77783881497796 4.84328866246499 4.90873850995201 4.97418835743904 5.03963820492607 5.10508805241309 5.17053789990012 5.23598774738715 5.30143759487418 5.3668874423612 5.43233728984823 5.49778713733526 5.56323698482229 5.62868683230931 5.69413667979634 5.75958652728337 5.8250363747704 5.89048622225742 5.95593606974445 6.02138591723148 6.0868357647185 6.15228561220553 6.21773545969256 6.28318530717959 6.34863515466661 6.41408500215364 6.47953484964067 6.5449846971277 6.61043454461472 6.67588439210175 6.74133423958878 6.8067840870758 6.87223393456283 6.93768378204986 7.00313362953689 7.06858347702391 7.13403332451094 7.19948317199797 7.264933019485 7.33038286697202 7.39583271445905 7.46128256194608 7.52673240943311 7.59218225692013 7.65763210440716 7.72308195189419 7.78853179938121 7.85398164686824 
49 29 63 64 65 66 67 68 69 70 71 72 73 74 75 76 77 78 79 80 81 82 83 84 85 86 87 88 89 90 91 92 93 94 95 96 97 98 99 100 101 102 103 104 105 106 107 108 109 1 
p 0.0344997292271935 1 4.71238896749093 4.77783881497796 4.84328866246499 4.90873850995201 4.97418835743904 5.03963820492607 5.10508805241309 5.17053789990012 5.23598774738715 5.30143759487418 5.3668874423612 5.43233728984823 5.49778713733526 5.56323698482229 5.62868683230931 5.69413667979634 5.75958652728337 5.8250363747704 5.89048622225742 5.95593606974445 6.02138591723148 6.0868357647185 6.15228561220553 6.21773545969256 6.28318530717959 6.34863515466661 6.41408500215364 6.47953484964067 6.5449846971277 6.61043454461472 6.67588439210175 6.74133423958878 6.8067840870758 6.87223393456283 6.93768378204986 7.00313362953689 7.06858347702391 7.13403332451094 7.19948317199797 7.264933019485 7.33038286697202 7.39583271445905 7.46128256194608 7.52673240943311 7.59218225692013 7.65763210440716 7.72308195189419 7.78853179938121 7.85398164686824 
49 2 52 53 54 55 56 57 58 59 60 61 62 63 64 65 66 67 68 69 70 71 72 73 74 75 76 77 78 79 80 81 82 83 84 85 86 87 88 89 90 91 92 93 94 95 96 97 98 4 
p 0.0344997292271935 1 4.71238896749093 4.77783881497796 4.84328866246499 4.90873850995201 4.97418835743904 5.03963820492607 5.10508805241309 5.17053789990012 5.23598774738715 5.30143759487418 5.3668874423612 5.43233728984823 5.49778713733526 5.56323698482229 5.62868683230931 5.69413667979634 5.75958652728337 5.8250363747704 5.89048622225742 5.95593606974445 6.02138591723148 6.0868357647185 6.15228561220553 6.21773545969256 6.28318530717959 6.34863515466661 6.41408500215364 6.47953484964067 6.5449846971277 6.61043454461472 6.67588439210175 6.74133423958878 6.8067840870758 6.87223393456283 6.93768378204986 7.00313362953689 7.06858347702391 7.13403332451094 7.19948317199797 7.264933019485 7.33038286697202 7.39583271445905 7.46128256194608 7.52673240943311 7.59218225692013 7.65763210440716 7.72308195189419 7.78853179938121 7.85398164686824 
49 29 63 64 65 66 67 68 69 70 71 72 73 74 75 76 77 78 79 80 81 82 83 84 85 86 87 88 89 90 91 92 93 94 95 96 97 98 99 100 101 102 103 104 105 106 107 108 109 1 
p 0.0344997292271935 1 4.71238896749093 4.77783881497796 4.84328866246499 4.90873850995201 4.97418835743904 5.03963820492607 5.10508805241309 5.17053789990012 5.23598774738715 5.30143759487418 5.3668874423612 5.43233728984823 5.49778713733526 5.56323698482229 5.62868683230931 5.69413667979634 5.75958652728337 5.8250363747704 5.89048622225742 5.95593606974445 6.02138591723148 6.0868357647185 6.15228561220553 6.21773545969256 6.28318530717959 6.34863515466661 6.41408500215364 6.47953484964067 6.5449846971277 6.61043454461472 6.67588439210175 6.74133423958878 6.8067840870758 6.87223393456283 6.93768378204986 7.00313362953689 7.06858347702391 7.13403332451094 7.19948317199797 7.264933019485 7.33038286697202 7.39583271445905 7.46128256194608 7.52673240943311 7.59218225692013 7.65763210440716 7.72308195189419 7.78853179938121 7.85398164686824 
Surfaces 6
1 4.9999999999999991 8.6602540378443837 0 0 -1 0 -1 0 0 -0 -0 -1 
2 5.0000001116632324 3.2999999999999999e-16 0 -0 -0 -1 1 0 0 -0 1 -0 8.6602540378443855
2 -5.0000237125342935 2.8867650363861865 0 -0 -0 -1 1 0 0 -0 1 -0 5.7734890014581985
1 4.9999999999999991 8.6602540378443837 0 -0 0 -1 -1 0 0 0 1 0 
1 4.9999999999999991 8.6602540378443837 0 -0 0 -1 -1 0 0 0 1 0 
2 -5 -8.6602540378443873 0 -0 -0 -1 1 0 0 -0 1 -0 10
Triangulations 6
4 2 1 1.62311645605466e-11
5 8.66025403784438 0 5 8.66025403784438 10 -5.00000000005623 8.66025403782004 0 -5.00000000005623 8.66025403782004 10 0 0 0 -10 10.0000000000562 0 10.0000000000562 -10 4 1 2 3 1 4 
98 96 1 0.00463680854583412
5 -8.66025403784439 0 5 -8.66025403784439 10 5 8.66025403784438 0 5 8.66025403784438 10 5.56640771888476 -8.64171177617499 0 6.13038999339911 -8.586164377373 0 6.68953176481982 -8.49384970393178 0 7.24143870220137 -8.36516306146189 0 7.7837474552688 -8.20065550593176 0 8.31413577464662 -8.00103148396141 0 8.83033245608728 -7.76714581627376 0 9.33012706611663 -7.50000003722108 0 9.81137940744953 -7.200738106061 0 10.2720286836434 -6.87064150834732 0 10.7101023237449 -6.511123768412 0 11.1237244291423 -6.12372439643686 0 11.5111238064505 -5.71010229603456 0 11.8706415520343 -5.27202866056852 0 12.2007381556875 -4.81137938863088 0 12.5000000930527 -4.33012705115659 0 12.7671458785496 -3.83033244457176 0 13.001031552893 -3.31413576614676 0 13.200655581702 -2.78374744934285 0 13.3651631442245 -2.24143869839653 0 13.4938497938106 -1.68953176267424 0 13.5861644744613 -1.13038999244382 0 13.6417118805351 -0.566407718645679 0 13.6602541495076 -1.79115047744981e-15 0 13.6417118805351 0.566407718645676 0 13.5861644744613 1.13038999244381 0 13.4938497938106 1.68953176267424 0 13.3651631442245 2.24143869839653 0 13.200655581702 2.78374744934284 0 13.001031552893 3.31413576614676 0 12.7671458785496 3.83033244457176 0 12.5000000930527 4.33012705115659 0 12.2007381556875 4.81137938863087 0 11.8706415520343 5.27202866056852 0 11.5111238064505 5.71010229603456 0 11.1237244291423 6.12372439643686 0 10.7101023237449 6.51112376841199 0 10.2720286836434 6.87064150834732 0 9.81137940744953 7.200738106061 0 9.33012706611663 7.50000003722107 0 8.83033245608729 7.76714581627376 0 8.31413577464662 8.0010314839614 0 7.7837474552688 8.20065550593176 0 7.24143870220137 8.36516306146189 0 6.68953176481983 8.49384970393178 0 6.13038999339912 8.586164377373 0 5.56640771888476 8.64171177617499 0 5.56640771888476 -8.64171177617499 10 6.13038999339911 -8.586164377373 10 6.68953176481982 -8.49384970393178 10 7.24143870220137 -8.36516306146189 10 7.7837474552688 -8.20065550593176 10 8.31413577464662 -8.00103148396141 10 8.83033245608728 -7.76714581627376 10 9.33012706611663 -7.50000003722108 10 9.81137940744953 -7.200738106061 10 10.2720286836434 -6.87064150834732 10 10.7101023237449 -6.511123768412 10 11.1237244291423 -6.12372439643686 10 11.5111238064505 -5.71010229603456 10 11.8706415520343 -5.27202866056852 10 12.2007381556875 -4.81137938863088 10 12.5000000930527 -4.33012705115659 10 12.7671458785496 -3.83033244457176 10 13.001031552893 -3.31413576614676 10 13.200655581702 -2.78374744934285 10 13.3651631442245 -2.24143869839653 10 13.4938497938106 -1.68953176267424 10 13.5861644744613 -1.13038999244382 10 13.6417118805351 -0.566407718645679 10 13.6602541495076 -1.79115047744981e-15 10 13.6417118805351 0.566407718645676 10 13.5861644744613 1.13038999244381 10 13.4938497938106 1.68953176267424 10 13.3651631442245 2.24143869839653 10 13.200655581702 2.78374744934284 10 13.001031552893 3.31413576614676 10 12.7671458785496 3.83033244457176 10 12.5000000930527 4.33012705115659 10 12.2007381556875 4.81137938863087 10 11.8706415520343 5.27202866056852 10 11.5111238064505 5.71010229603456 10 11.1237244291423 6.12372439643686 10 10.7101023237449 6.51112376841199 10 10.2720286836434 6.87064150834732 10 9.81137940744953 7.200738106061 10 9.33012706611663 7.50000003722107 10 8.83033245608729 7.76714581627376 10 8.31413577464662 8.0010314839614 10 7.7837474552688 8.20065550593176 10 7.24143870220137 8.36516306146189 10 6.68953176481983 8.49384970393178 10 6.13038999339912 8.586164377373 10 5.56640771888476 8.64171177617499 10 4.71238896749093 0 4.71238896749093 -10 7.85398164686824 0 7.85398164686824 -10 4.77783881497796 0 4.84328866246499 0 4.90873850995201 0 4.97418835743904 0 5.03963820492607 0 5.10508805241309 0 5.17053789990012 0 5.23598774738715 0 5.30143759487418 0 5.3668874423612 0 5.43233728984823 0 5.49778713733526 0 5.56323698482229 0 5.62868683230931 0 5.69413667979634 0 5.75958652728337 0 5.8250363747704 0 5.89048622225742 0 5.95593606974445 0 6.02138591723148 0 6.0868357647185 0 6.15228561220553 0 6.21773545969256 0 6.28318530717959 0 6.34863515466661 0 6.41408500215364 0 6.47953484964067 0 6.5449846971277 0 6.61043454461472 0 6.67588439210175 0 6.74133423958878 0 6.8067840870758 0 6.87223393456283 0 6.93768378204986 0 7.00313362953689 0 7.06858347702391 0 7.13403332451094 0 7.19948317199797 0 7.264933019485 0 7.33038286697202 0 7.39583271445905 0 7.46128256194608 0 7.52673240943311 0 7.59218225692013 0 7.65763210440716 0 7.72308195189419 0 7.78853179938121 0 4.77783881497796 -10 4.84328866246499 -10 4.90873850995201 -10 4.97418835743904 -10 5.03963820492607 -10 5.10508805241309 -10 5.17053789990012 -10 5.23598774738715 -10 5.30143759487418 -10 5.3668874423612 -10 5.43233728984823 -10 5.49778713733526 -10 5.56323698482229 -10 5.62868683230931 -10 5.69413667979634 -10 5.75958652728337 -10 5.8250363747704 -10 5.89048622225742 -10 5.95593606974445 -10 6.02138591723148 -10 6.0868357647185 -10 6.15228561220553 -10 6.21773545969256 -10 6.28318530717959 -10 6.34863515466661 -10 6.41408500215364 -10 6.47953484964067 -10 6.5449846971277 -10 6.61043454461472 -10 6.67588439210175 -10 6.74133423958878 -10 6.8067840870758 -10 6.87223393456283 -10 6.93768378204986 -10 7.00313362953689 -10 7.06858347702391 -10 7.13403332451094 -10 7.19948317199797 -10 7.264933019485 -10 7.33038286697202 -10 7.39583271445905 -10 7.46128256194608 -10 7.52673240943311 -10 7.59218225692013 -10 7.65763210440716 -10 7.72308195189419 -10 7.78853179938121 -10 41 40 87 41 87 88 41 88 89 22 68 69 22 69 70 22 21 68 42 41 89 42 89 90 1 2 52 23 22 70 43 42 90 5 1 52 5 52 53 24 70 71 44 43 90 24 23 70 44 90 91 44 91 92 6 5 53 6 53 54 25 71 72 25 72 73 45 44 92 25 24 71 45 92 93 7 6 54 46 45 93 46 93 94 26 25 73 8 7 54 8 54 55 27 73 74 8 55 56 27 74 75 47 46 94 27 26 73 9 8 56 48 47 94 48 94 95 28 27 75 48 95 96 10 9 56 10 56 57 49 48 96 29 75 76 29 76 77 49 96 97 29 28 75 50 49 97 30 29 77 11 10 57 11 57 58 51 50 97 51 97 98 51 98 4 31 30 77 12 11 58 31 77 78 12 58 59 3 51 4 32 31 78 13 12 59 32 78 79 13 59 60 32 79 80 33 32 80 14 13 60 14 60 61 34 33 80 34 80 81 15 14 61 34 81 82 15 61 62 35 34 82 16 15 62 16 62 63 36 35 82 36 82 83 36 83 84 17 16 63 17 63 64 17 64 65 37 36 84 18 17 65 38 37 84 38 84 85 19 18 65 19 65 66 39 38 85 39 85 86 39 86 87 20 66 67 20 19 66 40 39 87 21 67 68 21 20 67 
54 52 1 0.0046823468599559
-5.00000000005623 8.66025403782004 0 -5.00000000005623 8.66025403782004 10 -9.99999999999298 3.6519e-11 0 -9.99999999999298 3.6519e-11 10 -5.46457474453824 8.64153415326854 0 -5.92613667369506 8.58549209013502 0 -6.38169235783247 8.49249130552908 0 -6.82828732036537 8.36313494995478 0 -7.26302519888238 8.19826195559316 0 -7.68308652931473 7.99894159546247 0 -8.0857470313861 7.76646654871796 0 -8.46839527675404 7.5023445170658 0 -8.82854962525767 7.20828844666229 0 -9.16387431943259 6.88620541891366 0 -9.47219463291307 6.53818428222434 0 -9.75151097447764 6.16648210490732 0 -10.0000118562671 5.77350953711528 0 -10.2160856420707 5.36181517672672 0 -10.3983309994869 4.93406904058116 0 -10.5455659881736 4.49304524825962 0 -10.6568357252443 4.04160403071358 0 -10.7314185780989 3.58267318042425 0 -10.7688308445249 3.11922906339599 0 -10.7688298897159 2.65427731612933 0 -10.7314157198644 2.19083335276208 0 -10.656830982121 1.73190280879819 0 -10.5455593909229 1.28046204825539 0 -10.3983225908948 0.83943886065102 0 -10.2160754766705 0.411693473014699 0 -5.46457474453824 8.64153415326854 10 -5.92613667369506 8.58549209013502 10 -6.38169235783247 8.49249130552908 10 -6.82828732036537 8.36313494995478 10 -7.26302519888238 8.19826195559316 10 -7.68308652931473 7.99894159546247 10 -8.0857470313861 7.76646654871796 10 -8.46839527675404 7.5023445170658 10 -8.82854962525767 7.20828844666229 10 -9.16387431943259 6.88620541891366 10 -9.47219463291307 6.53818428222434 10 -9.75151097447764 6.16648210490732 10 -10.0000118562671 5.77350953711528 10 -10.2160856420707 5.36181517672672 10 -10.3983309994869 4.93406904058116 10 -10.5455659881736 4.49304524825962 10 -10.6568357252443 4.04160403071358 10 -10.7314185780989 3.58267318042425 10 -10.7688308445249 3.11922906339599 10 -10.7688298897159 2.65427731612933 10 -10.7314157198644 2.19083335276208 10 -10.656830982121 1.73190280879819 10 -10.5455593909229 1.28046204825539 10 -10.3983225908948 0.83943886065102 10 -10.2160754766705 0.411693473014699 10 1.57079221966348 0 1.57079221966348 -10 3.66519553631951 0 3.66519553631951 -10 1.65134619338102 0 1.73190016709856 0 1.8124541408161 0 1.89300811453364 0 1.97356208825118 0 2.05411606196872 0 2.13467003568626 0 2.2152240094038 0 2.29577798312134 0 2.37633195683888 0 2.45688593055642 0 2.53743990427396 0 2.61799387799149 0 2.69854785170903 0 2.77910182542657 0 2.85965579914411 0 2.94020977286165 0 3.02076374657919 0 3.10131772029673 0 3.18187169401427 0 3.26242566773181 0 3.34297964144935 0 3.42353361516689 0 3.50408758888443 0 3.58464156260197 0 1.65134619338102 -10 1.73190016709856 -10 1.8124541408161 -10 1.89300811453364 -10 1.97356208825118 -10 2.05411606196872 -10 2.13467003568626 -10 2.2152240094038 -10 2.29577798312134 -10 2.37633195683888 -10 2.45688593055642 -10 2.53743990427396 -10 2.61799387799149 -10 2.69854785170903 -10 2.77910182542657 -10 2.85965579914411 -10 2.94020977286165 -10 3.02076374657919 -10 3.10131772029673 -10 3.18187169401427 -10 3.26242566773181 -10 3.34297964144935 -10 3.42353361516689 -10 3.50408758888443 -10 3.58464156260197 -10 21 45 46 21 46 47 22 21 47 23 22 47 23 47 48 5 1 2 5 2 30 24 23 48 24 48 49 6 30 31 6 5 30 25 24 49 25 49 50 7 31 32 7 6 31 26 25 50 26 50 51 8 32 33 27 26 51 8 7 32 27 51 52 9 33 34 28 52 53 28 27 52 9 8 33 29 53 54 29 54 4 10 34 35 29 28 53 3 29 4 10 9 34 11 35 36 11 10 35 12 36 37 12 11 36 13 37 38 13 12 37 14 38 39 14 13 38 15 39 40 15 14 39 16 15 40 16 40 41 17 16 41 17 41 42 18 17 42 18 42 43 19 18 43 19 43 44 20 19 44 20 44 45 21 20 45 
109 107 1 4.72644146043422e-12
5 8.66025403784438 0 -5.00000000005623 8.66025403782004 0 -9.99999999999298 3.6519e-11 0 -5.46457474453824 8.64153415326854 0 -5.92613667369506 8.58549209013502 0 -6.38169235783247 8.49249130552908 0 -6.82828732036537 8.36313494995478 0 -7.26302519888238 8.19826195559316 0 -7.68308652931473 7.99894159546247 0 -8.0857470313861 7.76646654871796 0 -8.46839527675404 7.5023445170658 0 -8.82854962525767 7.20828844666229 0 -9.16387431943259 6.88620541891366 0 -9.47219463291307 6.53818428222434 0 -9.75151097447764 6.16648210490732 0 -10.0000118562671 5.77350953711528 0 -10.2160856420707 5.36181517672672 0 -10.3983309994869 4.93406904058116 0 -10.5455659881736 4.49304524825962 0 -10.6568357252443 4.04160403071358 0 -10.7314185780989 3.58267318042425 0 -10.7688308445249 3.11922906339599 0 -10.7688298897159 2.65427731612933 0 -10.7314157198644 2.19083335276208 0 -10.656830982121 1.73190280879819 0 -10.5455593909229 1.28046204825539 0 -10.3983225908948 0.83943886065102 0 -10.2160754766705 0.411693473014699 0 5 -8.66025403784439 0 4.98103328737044 -8.04464497650496 0 4.92420509671936 -7.43137113119725 0 4.82973099683902 -6.82275885967868 0 4.69796936035009 -6.22111683676061 0 4.52942000427156 -5.62872729671395 0 4.32472229404356 -5.04783737597286 0 4.08465271819524 -4.48065058897655 0 3.81012194285784 -3.92931846948428 0 3.50217135729614 -3.39593240907083 0 3.16196912356221 -2.88251572376187 0 2.7908057452567 -2.39101597890332 0 2.39008917220659 -1.92329760137881 0 1.96133945962926 -1.48113480719996 0 1.50618300204242 -1.06620487129731 0 1.02634636379256 -0.680081765041988 0 0.523649729605053 -0.324230185633189 0 -7.105427357601e-15 3.5527136788005e-15 0 -0.542616442234625 0.29137887570624 0 -1.10214126707321 0.548801141605153 0 -1.67645200520341 0.771290306868391 0 -2.26337009927918 0.958002393883806 0 -2.86066916793504 1.10822913975162 0 -3.46608345121316 1.22140068296821 0 -4.07731640536699 1.29708772510596 0 -4.69204941443831 1.33500315928927 0 -5.30795058556172 1.33500315928927 0 -5.92268359463303 1.29708772510596 0 -6.53391654878687 1.22140068296821 0 -7.13933083206499 1.10822913975162 0 -7.73662990072084 0.958002393883801 0 -8.32354799479661 0.771290306868382 0 -8.89785873292681 0.548801141605143 0 -9.45738355776539 0.291378875706231 0 5.56640771888476 -8.64171177617499 0 6.13038999339911 -8.586164377373 0 6.68953176481982 -8.49384970393178 0 7.24143870220137 -8.36516306146189 0 7.7837474552688 -8.20065550593176 0 8.31413577464662 -8.00103148396141 0 8.83033245608728 -7.76714581627376 0 9.33012706611663 -7.50000003722108 0 9.81137940744953 -7.200738106061 0 10.2720286836434 -6.87064150834732 0 10.7101023237449 -6.511123768412 0 11.1237244291423 -6.12372439643686 0 11.5111238064505 -5.71010229603456 0 11.8706415520343 -5.27202866056852 0 12.2007381556875 -4.81137938863088 0 12.5000000930527 -4.33012705115659 0 12.7671458785496 -3.83033244457176 0 13.001031552893 -3.31413576614676 0 13.200655581702 -2.78374744934285 0 13.3651631442245 -2.24143869839653 0 13.4938497938106 -1.68953176267424 0 13.5861644744613 -1.13038999244382 0 13.6417118805351 -0.566407718645679 0 13.6602541495076 -1.79115047744981e-15 0 13.6417118805351 0.566407718645676 0 13.5861644744613 1.13038999244381 0 13.4938497938106 1.68953176267424 0 13.3651631442245 2.24143869839653 0 13.200655581702 2.78374744934284 0 13.001031552893 3.31413576614676 0 12.7671458785496 3.83033244457176 0 12.5000000930527 4.33012705115659 0 12.2007381556875 4.81137938863087 0 11.8706415520343 5.27202866056852 0 11.5111238064505 5.71010229603456 0 11.1237244291423 6.12372439643686 0 10.7101023237449 6.51112376841199 0 10.2720286836434 6.87064150834732 0 9.81137940744953 7.200738106061 0 9.33012706611663 7.50000003722107 0 8.83033245608729 7.76714581627376 0 8.31413577464662 8.0010314839614 0 7.7837474552688 8.20065550593176 0 7.24143870220137 8.36516306146189 0 6.68953176481983 8.49384970393178 0 6.13038999339912 8.586164377373 0 5.56640771888476 8.64171177617499 0 0 0 10.0000000000562 0 14.9999999999859 -8.66025403777134 10.4645747445382 -0.0187198845758481 10.9261366736951 -0.0747619477093657 11.3816923578325 -0.167762732315303 11.8282873203654 -0.297119087889605 12.2630251988824 -0.461992082251225 12.6830865293147 -0.661312442381913 13.0857470313861 -0.893787489126424 13.468395276754 -1.15790952077858 13.8285496252577 -1.45196559118209 14.1638743194326 -1.77404861893073 14.4721946329131 -2.12206975562005 14.7515109744776 -2.49377193293706 15.0000118562671 -2.8867445007291 15.2160856420707 -3.29843886111766 15.3983309994869 -3.72618499726322 15.5455659881736 -4.16720878958476 15.6568357252443 -4.6186500071308 15.7314185780989 -5.07758085742014 15.7688308445249 -5.5410249744484 15.7688298897159 -6.00597672171505 15.7314157198644 -6.46942068508231 15.656830982121 -6.92835122904619 15.5455593909229 -7.37979198958899 15.3983225908948 -7.82081517719336 15.2160754766705 -8.24856056482968 0 -17.3205080756888 0.0189667126295596 -16.7048990143493 0.0757949032806433 -16.0916251690416 0.170269003160982 -15.4830128975231 0.302030639649907 -14.881370874605 0.470579995728436 -14.2889813345583 0.675277705956443 -13.7080914138172 0.915347281804765 -13.1409046268209 1.18987805714216 -12.5895725073287 1.49782864270386 -12.0561864469152 1.83803087643779 -11.5427697616063 2.2091942547433 -11.0512700167477 2.60991082779341 -10.5835516392232 3.03866054037074 -10.1413888450443 3.49381699795758 -9.72645890914169 3.97365363620744 -9.34033580288637 4.47635027039495 -8.98448422347757 5.00000000000001 -8.66025403784438 5.54261644223462 -8.36887516213814 6.10214126707321 -8.11145289623923 6.67645200520341 -7.88896373097599 7.26337009927918 -7.70225164396058 7.86066916793504 -7.55202489809276 8.46608345121316 -7.43885335487617 9.07731640536699 -7.36316631273843 9.69204941443831 -7.32525087855511 10.3079505855617 -7.32525087855511 10.922683594633 -7.36316631273843 11.5339165487869 -7.43885335487618 12.139330832065 -7.55202489809277 12.7366299007208 -7.70225164396058 13.3235479947966 -7.888963730976 13.8978587329268 -8.11145289623924 14.4573835577654 -8.36887516213815 -0.566407718884761 -17.3019658140194 -1.13038999339911 -17.2464184152174 -1.68953176481982 -17.1541037417762 -2.24143870220137 -17.0254170993063 -2.7837474552688 -16.8609095437761 -3.31413577464662 -16.6612855218058 -3.83033245608728 -16.4273998541181 -4.33012706611663 -16.1602540750655 -4.81137940744953 -15.8609921439054 -5.27202868364336 -15.5308955461917 -5.71010232374494 -15.1713778062564 -6.12372442914226 -14.7839784342812 -6.51112380645055 -14.3703563338789 -6.87064155203429 -13.9322826984129 -7.20073815568747 -13.4716334264753 -7.50000009305269 -12.990381089001 -7.76714587854961 -12.4905864824161 -8.00103155289297 -11.9743898039911 -8.20065558170203 -11.4440014871872 -8.36516314422455 -10.9016927362409 -8.4938497938106 -10.3497858005186 -8.58616447446126 -9.7906440302882 -8.6417118805351 -9.22666175649006 -8.66025414950762 -8.66025403784439 -8.6417118805351 -8.09384631919871 -8.58616447446126 -7.52986404540057 -8.4938497938106 -6.97072227517014 -8.36516314422455 -6.41881533944785 -8.20065558170203 -5.87650658850154 -8.00103155289297 -5.34611827169763 -7.76714587854961 -4.82992159327263 -7.5000000930527 -4.33012698668779 -7.20073815568747 -3.84887464921351 -6.87064155203429 -3.38822537727586 -6.51112380645055 -2.95015174180982 -6.12372442914227 -2.53652964140753 -5.71010232374494 -2.14913026943239 -5.27202868364336 -1.78961252949706 -4.81137940744953 -1.45951593178338 -4.33012706611663 -1.16025400062331 -3.83033245608729 -0.893108221570628 -3.31413577464662 -0.65922255388298 -2.7837474552688 -0.459598531912626 -2.24143870220137 -0.295090976382497 -1.68953176481983 -0.16640433391261 -1.13038999339912 -0.0740896604713797 -0.566407718884765 -0.0185422616693884 30 63 29 30 64 63 31 64 30 31 65 64 32 65 31 32 66 65 32 67 66 33 67 32 33 68 67 33 69 68 34 69 33 34 70 69 34 71 70 35 71 34 35 72 71 35 73 72 35 74 73 36 74 35 36 75 74 36 76 75 36 77 76 37 77 36 37 78 77 37 79 78 37 80 79 37 81 80 38 81 37 38 82 81 38 83 82 38 84 83 38 85 84 38 86 85 39 86 38 39 87 86 39 88 87 39 89 88 39 90 89 39 91 90 40 91 39 40 92 91 40 93 92 40 94 93 40 95 94 40 96 95 41 96 40 41 97 96 41 98 97 99 98 41 100 99 41 101 100 41 102 101 41 102 41 42 103 102 42 104 103 42 105 104 42 106 105 42 107 106 42 107 42 43 108 107 43 109 108 43 1 43 44 1 44 45 1 109 43 1 45 46 1 46 47 1 47 48 1 48 49 28 62 3 27 61 62 27 62 28 26 61 27 25 60 61 25 61 26 24 60 25 23 59 60 23 60 24 2 49 50 2 50 51 2 51 52 2 1 49 2 52 53 2 53 54 2 54 55 22 59 23 4 2 55 21 59 22 5 4 55 20 58 59 20 59 21 6 5 55 19 58 20 7 6 55 18 58 19 8 7 55 8 55 56 17 58 18 9 8 56 16 58 17 16 57 58 10 9 56 15 57 16 11 10 56 14 57 15 12 11 56 12 56 57 13 57 14 13 12 57 
109 107 1 4.72644146043422e-12
5 8.66025403784438 0 -5.00000000005623 8.66025403782004 0 -9.99999999999298 3.6519e-11 0 -5.46457474453824 8.64153415326854 0 -5.92613667369506 8.58549209013502 0 -6.38169235783247 8.49249130552908 0 -6.82828732036537 8.36313494995478 0 -7.26302519888238 8.19826195559316 0 -7.68308652931473 7.99894159546247 0 -8.0857470313861 7.76646654871796 0 -8.46839527675404 7.5023445170658 0 -8.82854962525767 7.20828844666229 0 -9.16387431943259 6.88620541891366 0 -9.47219463291307 6.53818428222434 0 -9.75151097447764 6.16648210490732 0 -10.0000118562671 5.77350953711528 0 -10.2160856420707 5.36181517672672 0 -10.3983309994869 4.93406904058116 0 -10.5455659881736 4.49304524825962 0 -10.6568357252443 4.04160403071358 0 -10.7314185780989 3.58267318042425 0 -10.7688308445249 3.11922906339599 0 -10.7688298897159 2.65427731612933 0 -10.7314157198644 2.19083335276208 0 -10.656830982121 1.73190280879819 0 -10.5455593909229 1.28046204825539 0 -10.3983225908948 0.83943886065102 0 -10.2160754766705 0.411693473014699 0 5 -8.66025403784439 0 4.98103328737044 -8.04464497650496 0 4.92420509671936 -7.43137113119725 0 4.82973099683902 -6.82275885967868 0 4.69796936035009 -6.22111683676061 0 4.52942000427156 -5.62872729671395 0 4.32472229404356 -5.04783737597286 0 4.08465271819524 -4.48065058897655 0 3.81012194285784 -3.92931846948428 0 3.50217135729614 -3.39593240907083 0 3.16196912356221 -2.88251572376187 0 2.7908057452567 -2.39101597890332 0 2.39008917220659 -1.92329760137881 0 1.96133945962926 -1.48113480719996 0 1.50618300204242 -1.06620487129731 0 1.02634636379256 -0.680081765041988 0 0.523649729605053 -0.324230185633189 0 -7.105427357601e-15 3.5527136788005e-15 0 -0.542616442234625 0.29137887570624 0 -1.10214126707321 0.548801141605153 0 -1.67645200520341 0.771290306868391 0 -2.26337009927918 0.958002393883806 0 -2.86066916793504 1.10822913975162 0 -3.46608345121316 1.22140068296821 0 -4.07731640536699 1.29708772510596 0 -4.69204941443831 1.33500315928927 0 -5.30795058556172 1.33500315928927 0 -5.92268359463303 1.29708772510596 0 -6.53391654878687 1.22140068296821 0 -7.13933083206499 1.10822913975162 0 -7.73662990072084 0.958002393883801 0 -8.32354799479661 0.771290306868382 0 -8.89785873292681 0.548801141605143 0 -9.45738355776539 0.291378875706231 0 5.56640771888476 -8.64171177617499 0 6.13038999339911 -8.586164377373 0 6.68953176481982 -8.49384970393178 0 7.24143870220137 -8.36516306146189 0 7.7837474552688 -8.20065550593176 0 8.31413577464662 -8.00103148396141 0 8.83033245608728 -7.76714581627376 0 9.33012706611663 -7.50000003722108 0 9.81137940744953 -7.200738106061 0 10.2720286836434 -6.87064150834732 0 10.7101023237449 -6.511123768412 0 11.1237244291423 -6.12372439643686 0 11.5111238064505 -5.71010229603456 0 11.8706415520343 -5.27202866056852 0 12.2007381556875 -4.81137938863088 0 12.5000000930527 -4.33012705115659 0 12.7671458785496 -3.83033244457176 0 13.001031552893 -3.31413576614676 0 13.200655581702 -2.78374744934285 0 13.3651631442245 -2.24143869839653 0 13.4938497938106 -1.68953176267424 0 13.5861644744613 -1.13038999244382 0 13.6417118805351 -0.566407718645679 0 13.6602541495076 -1.79115047744981e-15 0 13.6417118805351 0.566407718645676 0 13.5861644744613 1.13038999244381 0 13.4938497938106 1.68953176267424 0 13.3651631442245 2.24143869839653 0 13.200655581702 2.78374744934284 0 13.001031552893 3.31413576614676 0 12.7671458785496 3.83033244457176 0 12.5000000930527 4.33012705115659 0 12.2007381556875 4.81137938863087 0 11.8706415520343 5.27202866056852 0 11.5111238064505 5.71010229603456 0 11.1237244291423 6.12372439643686 0 10.7101023237449 6.51112376841199 0 10.2720286836434 6.87064150834732 0 9.81137940744953 7.200738106061 0 9.33012706611663 7.50000003722107 0 8.83033245608729 7.76714581627376 0 8.31413577464662 8.0010314839614 0 7.7837474552688 8.20065550593176 0 7.24143870220137 8.36516306146189 0 6.68953176481983 8.49384970393178 0 6.13038999339912 8.586164377373 0 5.56640771888476 8.64171177617499 0 0 0 10.0000000000562 0 14.9999999999859 -8.66025403777134 10.4645747445382 -0.0187198845758481 10.9261366736951 -0.0747619477093657 11.3816923578325 -0.167762732315303 11.8282873203654 -0.297119087889605 12.2630251988824 -0.461992082251225 12.6830865293147 -0.661312442381913 13.0857470313861 -0.893787489126424 13.468395276754 -1.15790952077858 13.8285496252577 -1.45196559118209 14.1638743194326 -1.77404861893073 14.4721946329131 -2.12206975562005 14.7515109744776 -2.49377193293706 15.0000118562671 -2.8867445007291 15.2160856420707 -3.29843886111766 15.3983309994869 -3.72618499726322 15.5455659881736 -4.16720878958476 15.6568357252443 -4.6186500071308 15.7314185780989 -5.07758085742014 15.7688308445249 -5.5410249744484 15.7688298897159 -6.00597672171505 15.7314157198644 -6.46942068508231 15.656830982121 -6.92835122904619 15.5455593909229 -7.37979198958899 15.3983225908948 -7.82081517719336 15.2160754766705 -8.24856056482968 0 -17.3205080756888 0.0189667126295596 -16.7048990143493 0.0757949032806433 -16.0916251690416 0.170269003160982 -15.4830128975231 0.302030639649907 -14.881370874605 0.470579995728436 -14.2889813345583 0.675277705956443 -13.7080914138172 0.915347281804765 -13.1409046268209 1.18987805714216 -12.5895725073287 1.49782864270386 -12.0561864469152 1.83803087643779 -11.5427697616063 2.2091942547433 -11.0512700167477 2.60991082779341 -10.5835516392232 3.03866054037074 -10.1413888450443 3.49381699795758 -9.72645890914169 3.97365363620744 -9.34033580288637 4.47635027039495 -8.98448422347757 5.00000000000001 -8.66025403784438 5.54261644223462 -8.36887516213814 6.10214126707321 -8.11145289623923 6.67645200520341 -7.88896373097599 7.26337009927918 -7.70225164396058 7.86066916793504 -7.55202489809276 8.46608345121316 -7.43885335487617 9.07731640536699 -7.36316631273843 9.69204941443831 -7.32525087855511 10.3079505855617 -7.32525087855511 10.922683594633 -7.36316631273843 11.5339165487869 -7.43885335487618 12.139330832065 -7.55202489809277 12.7366299007208 -7.70225164396058 13.3235479947966 -7.888963730976 13.8978587329268 -8.11145289623924 14.4573835577654 -8.36887516213815 -0.566407718884761 -17.3019658140194 -1.13038999339911 -17.2464184152174 -1.68953176481982 -17.1541037417762 -2.24143870220137 -17.0254170993063 -2.7837474552688 -16.8609095437761 -3.31413577464662 -16.6612855218058 -3.83033245608728 -16.4273998541181 -4.33012706611663 -16.1602540750655 -4.81137940744953 -15.8609921439054 -5.27202868364336 -15.5308955461917 -5.71010232374494 -15.1713778062564 -6.12372442914226 -14.7839784342812 -6.51112380645055 -14.3703563338789 -6.87064155203429 -13.9322826984129 -7.20073815568747 -13.4716334264753 -7.50000009305269 -12.990381089001 -7.76714587854961 -12.4905864824161 -8.00103155289297 -11.9743898039911 -8.20065558170203 -11.4440014871872 -8.36516314422455 -10.9016927362409 -8.4938497938106 -10.3497858005186 -8.58616447446126 -9.7906440302882 -8.6417118805351 -9.22666175649006 -8.66025414950762 -8.66025403784439 -8.6417118805351 -8.09384631919871 -8.58616447446126 -7.52986404540057 -8.4938497938106 -6.97072227517014 -8.36516314422455 -6.41881533944785 -8.20065558170203 -5.87650658850154 -8.00103155289297 -5.34611827169763 -7.76714587854961 -4.82992159327263 -7.5000000930527 -4.33012698668779 -7.20073815568747 -3.84887464921351 -6.87064155203429 -3.38822537727586 -6.51112380645055 -2.95015174180982 -6.12372442914227 -2.53652964140753 -5.71010232374494 -2.14913026943239 -5.27202868364336 -1.78961252949706 -4.81137940744953 -1.45951593178338 -4.33012706611663 -1.16025400062331 -3.83033245608729 -0.893108221570628 -3.31413577464662 -0.65922255388298 -2.7837474552688 -0.459598531912626 -2.24143870220137 -0.295090976382497 -1.68953176481983 -0.16640433391261 -1.13038999339912 -0.0740896604713797 -0.566407718884765 -0.0185422616693884 30 63 29 30 64 63 31 64 30 31 65 64 32 65 31 32 66 65 32 67 66 33 67 32 33 68 67 33 69 68 34 69 33 34 70 69 34 71 70 35 71 34 35 72 71 35 73 72 35 74 73 36 74 35 36 75 74 36 76 75 36 77 76 37 77 36 37 78 77 37 79 78 37 80 79 37 81 80 38 81 37 38 82 81 38 83 82 38 84 83 38 85 84 38 86 85 39 86 38 39 87 86 39 88 87 39 89 88 39 90 89 39 91 90 40 91 39 40 92 91 40 93 92 40 94 93 40 95 94 40 96 95 41 96 40 41 97 96 41 98 97 99 98 41 100 99 41 101 100 41 102 101 41 102 41 42 103 102 42 104 103 42 105 104 42 106 105 42 107 106 42 107 42 43 108 107 43 109 108 43 1 43 44 1 44 45 1 109 43 1 45 46 1 46 47 1 47 48 1 48 49 28 62 3 27 61 62 27 62 28 26 61 27 25 60 61 25 61 26 24 60 25 23 59 60 23 60 24 2 49 50 2 50 51 2 51 52 2 1 49 2 52 53 2 53 54 2 54 55 22 59 23 4 2 55 21 59 22 5 4 55 20 58 59 20 59 21 6 5 55 19 58 20 7 6 55 18 58 19 8 7 55 8 55 56 17 58 18 9 8 56 16 58 17 16 57 58 10 9 56 15 57 16 11 10 56 14 57 15 12 11 56 12 56 57 13 57 14 13 12 57 
70 68 1 0.00474280286634303
5 -8.66025403784439 0 5 -8.66025403784439 10 -9.99999999999298 3.6519e-11 0 -9.99999999999298 3.6519e-11 10 4.98103328737044 -8.04464497650496 0 4.92420509671936 -7.43137113119725 0 4.82973099683902 -6.82275885967868 0 4.69796936035009 -6.22111683676061 0 4.52942000427156 -5.62872729671395 0 4.32472229404356 -5.04783737597286 0 4.08465271819524 -4.48065058897655 0 3.81012194285784 -3.92931846948428 0 3.50217135729614 -3.39593240907083 0 3.16196912356221 -2.88251572376187 0 2.7908057452567 -2.39101597890332 0 2.39008917220659 -1.92329760137881 0 1.96133945962926 -1.48113480719996 0 1.50618300204242 -1.06620487129731 0 1.02634636379256 -0.680081765041988 0 0.523649729605053 -0.324230185633189 0 -7.105427357601e-15 3.5527136788005e-15 0 -0.542616442234625 0.29137887570624 0 -1.10214126707321 0.548801141605153 0 -1.67645200520341 0.771290306868391 0 -2.26337009927918 0.958002393883806 0 -2.86066916793504 1.10822913975162 0 -3.46608345121316 1.22140068296821 0 -4.07731640536699 1.29708772510596 0 -4.69204941443831 1.33500315928927 0 -5.30795058556172 1.33500315928927 0 -5.92268359463303 1.29708772510596 0 -6.53391654878687 1.22140068296821 0 -7.13933083206499 1.10822913975162 0 -7.73662990072084 0.958002393883801 0 -8.32354799479661 0.771290306868382 0 -8.89785873292681 0.548801141605143 0 -9.45738355776539 0.291378875706231 0 4.98103328737044 -8.04464497650496 10 4.92420509671936 -7.43137113119725 10 4.82973099683902 -6.82275885967868 10 4.69796936035009 -6.22111683676061 10 4.52942000427156 -5.62872729671395 10 4.32472229404356 -5.04783737597286 10 4.08465271819524 -4.48065058897655 10 3.81012194285784 -3.92931846948428 10 3.50217135729614 -3.39593240907083 10 3.16196912356221 -2.88251572376187 10 2.7908057452567 -2.39101597890332 10 2.39008917220659 -1.92329760137881 10 1.96133945962926 -1.48113480719996 10 1.50618300204242 -1.06620487129731 10 1.02634636379256 -0.680081765041988 10 0.523649729605053 -0.324230185633189 10 -7.105427357601e-15 3.5527136788005e-15 10 -0.542616442234625 0.29137887570624 10 -1.10214126707321 0.548801141605153 10 -1.67645200520341 0.771290306868391 10 -2.26337009927918 0.958002393883806 10 -2.86066916793504 1.10822913975162 10 -3.46608345121316 1.22140068296821 10 -4.07731640536699 1.29708772510596 10 -4.69204941443831 1.33500315928927 10 -5.30795058556172 1.33500315928927 10 -5.92268359463303 1.29708772510596 10 -6.53391654878687 1.22140068296821 10 -7.13933083206499 1.10822913975162 10 -7.73662990072084 0.958002393883801 10 -8.32354799479661 0.771290306868382 10 -8.89785873292681 0.548801141605143 10 -9.45738355776539 0.291378875706231 10 0 0 0 -10 2.0943951023932 0 2.0943951023932 -10 0.0615998559527411 0 0.123199711905482 0 0.184799567858223 0 0.246399423810964 0 0.307999279763705 0 0.369599135716447 0 0.431198991669188 0 0.492798847621929 0 0.55439870357467 0 0.615998559527411 0 0.677598415480152 0 0.739198271432893 0 0.800798127385634 0 0.862397983338375 0 0.923997839291116 0 0.985597695243857 0 1.0471975511966 0 1.10879740714934 0 1.17039726310208 0 1.23199711905482 0 1.29359697500756 0 1.3551968309603 0 1.41679668691305 0 1.47839654286579 0 1.53999639881853 0 1.60159625477127 0 1.66319611072401 0 1.72479596667675 0 1.78639582262949 0 1.84799567858223 0 1.90959553453497 0 1.97119539048771 0 2.03279524644046 0 0.0615998559527411 -10 0.123199711905482 -10 0.184799567858223 -10 0.246399423810964 -10 0.307999279763705 -10 0.369599135716447 -10 0.431198991669188 -10 0.492798847621929 -10 0.55439870357467 -10 0.615998559527411 -10 0.677598415480152 -10 0.739198271432893 -10 0.800798127385634 -10 0.862397983338375 -10 0.923997839291116 -10 0.985597695243857 -10 1.0471975511966 -10 1.10879740714934 -10 1.17039726310208 -10 1.23199711905482 -10 1.29359697500756 -10 1.3551968309603 -10 1.41679668691305 -10 1.47839654286579 -10 1.53999639881853 -10 1.60159625477127 -10 1.66319611072401 -10 1.72479596667675 -10 1.78639582262949 -10 1.84799567858223 -10 1.90959553453497 -10 1.97119539048771 -10 2.03279524644046 -10 22 21 54 22 54 55 23 22 55 23 55 56 23 56 57 1 2 38 24 23 57 5 38 39 5 1 38 25 24 57 25 57 58 6 5 39 26 58 59 26 59 60 7 39 40 26 25 58 7 40 41 7 6 39 27 26 60 8 41 42 8 7 41 28 60 61 28 61 62 28 27 60 9 8 42 29 28 62 10 42 43 10 43 44 10 9 42 30 62 63 11 10 44 30 29 62 31 63 64 31 64 65 12 11 44 31 30 63 12 44 45 12 45 46 32 31 65 13 12 46 33 65 66 33 32 65 14 13 46 14 46 47 14 47 48 34 66 67 34 67 68 34 33 66 15 14 48 35 34 68 16 15 48 16 48 49 36 35 68 36 68 69 37 36 69 17 16 49 37 69 70 17 49 50 3 37 70 3 70 4 18 17 50 18 50 51 18 51 52 19 18 52 20 19 52 20 52 53 21 20 53 21 53 54 

TShapes 35
Ve
1e-07
5 8.66025403784438 0
0 0

0101101
*
Ve
1e-07
5 8.66025403784438 10
0 0

0101101
*
Ed
 1e-07 1 1 0
1  1 0 0 10
2  1 1 0 0 10
2  2 2 0 0 10
4 G1 1 0 2 0
6  1 2 0
6  2 1 0
0

0101000
+35 2 -34 2 *
Ve
1.00024347e-07
-5.00000000005623 8.66025403782004 0
0 0

0101101
*
Ve
1.00024347e-07
-5.00000000005623 8.66025403782004 10
0 0

0101101
*
Ed
 1.00024347e-07 1 1 0
1  2 0 0 10
2  3 1 0 0 10
2  4 3 0 0 10
4 G1 1 0 3 0
6  3 3 0
6  4 1 0
0

0101000
+32 2 -31 2 *
Ed
 1e-07 1 1 0
1  3 0 0 10.0000000000562
2  5 1 6 0 10.0000000000562
2  6 4 7 0 10.0000000000562
6  5 1 6
6  6 4 7
0

0101000
+35 8 -32 8 *
Ed
 1e-07 1 1 0
1  4 0 0 10.0000000000562
2  7 1 11 0 10.0000000000562
2  8 5 7 0 10.0000000000562
6  7 1 11
6  8 5 7
0

0101000
+34 12 -31 12 *
Wi

0101000
+33 0 -30 0 -29 5 +28 10 *
Fa
0  1e-07 1 0
2  1
0101000
+27 0 *
Ve
1.00037198e-07
-9.99999999999298 3.6519e-11 0
0 0

0101101
*
Ve
1.00037198e-07
-9.99999999999298 3.6519e-11 10
0 0

0101101
*
Ed
 1.00037198e-07 1 1 0
1  5 0 0 10
2  9 3 0 0 10
2  10 6 0 0 10
6  9 3 0
6  10 6 0
0

0101000
+25 2 -24 2 *
Ed
 1e-07 1 1 0
1  6 0 1.57079221966348 3.66519553631951
2  11 3 6 1.57079221966348 3.66519553631951
2  12 4 7 1.57079221966348 3.66519553631951
6  11 3 6
6  12 4 7
0

0101000
+32 8 -25 8 *
Ed
 1e-07 1 1 0
1  7 0 1.57079221966348 3.66519553631951
2  13 3 11 1.57079221966348 3.66519553631951
2  14 5 7 1.57079221966348 3.66519553631951
6  13 3 11
6  14 5 7
0

0101000
+31 12 -24 12 *
Wi

0101000
+30 0 -23 0 -22 5 +21 10 *
Fa
0  1e-07 3 0
2  3
0101000
+20 0 *
Ve
1.00000002e-07
5 -8.66025403784439 0
0 0

0101101
*
Ve
1.00000002e-07
5 -8.66025403784439 10
0 0

0101101
*
Ed
 1.00000002e-07 1 1 0
1  8 0 0 10
2  15 6 0 0 10
2  16 2 0 0 10
6  15 6 0
6  16 2 0
0

0101000
+18 2 -17 2 *
Ed
 1e-07 1 1 0
1  9 0 0 2.0943951023932
2  17 6 6 0 2.0943951023932
2  18 4 7 0 2.0943951023932
6  17 6 6
6  18 4 7
0

0101000
+18 8 -25 8 *
Ed
 1e-07 1 1 0
1  10 0 0 2.0943951023932
2  19 6 11 0 2.0943951023932
2  20 5 7 0 2.0943951023932
6  19 6 11
6  20 5 7
0

0101000
+17 12 -24 12 *
Wi

0101000
+16 0 -23 0 -15 5 +14 10 *
Fa
0  1e-07 6 0
2  6
0101000
+13 0 *
Ed
 1e-07 1 1 0
1  11 0 4.71238896749093 7.85398164686824
2  21 2 6 4.71238896749093 7.85398164686824
2  22 4 7 4.71238896749093 7.85398164686824
6  21 2 6
6  22 4 7
0

0101000
+18 8 -35 8 *
Ed
 1e-07 1 1 0
1  12 0 4.71238896749093 7.85398164686824
2  23 2 11 4.71238896749093 7.85398164686824
2  24 5 7 4.71238896749093 7.85398164686824
6  23 2 11
6  24 5 7
0

0101000
+17 12 -34 12 *
Wi

0101000
+16 0 -33 0 -11 5 +10 10 *
Fa
0  1e-07 2 0
2  2
0101000
+9 0 *
Wi

0101100
+29 0 +22 0 -15 0 +11 0 *
Fa
0  1e-07 4 0
2  4
0101000
-7 3 *
Wi

0101100
+28 0 +21 0 -14 0 +10 0 *
Fa
0  1e-07 5 0
2  5
0101000
-5 3 *
Sh

0101100
-26 0 -19 0 +12 0 -8 0 +6 13 -4 14 *
So

0100100
+3 0 *
Co

1100000
+2 1 *

+1 0 