DBRep_DrawableShape

CASCADE Topology V1, (c) Matra-Datavision
Locations 19
1
              1               0               0               0 
              0               1               0               0 
              0               0               1               0 
1
              1               0               0             -25 
              0               1               0             -25 
              0               0               1               0 
2  1 -1 2 -1 0
2  2 -1 0
1
              1               0               0               0 
              0               1               0               0 
              0               0               1              10 
1
              1               0               0               0 
              0               1               0               0 
              0               0               1               0 
2  5 1 6 1 0
2  2 1 6 -1 5 -1 0
2  5 -1 0
2  6 -1 5 -1 0
2  1 -1 6 -1 5 -1 0
1
              1               0               0               0 
              0               1               0               0 
              0               0               1               0 
2  12 1 6 1 0
2  2 1 6 -1 12 -1 0
2  12 -1 0
2  6 -1 12 -1 0
2  1 -1 6 -1 12 -1 0
2  6 -1 0
2  1 -1 6 -1 0
Curve2ds 72
1 0 0 1 0 
1 0 0 1 0 
1 10 0 0 -1 
1 0 0 0 1 
1 0 -50 1 0 
1 0 0 1 0 
1 0 0 0 -1 
1 0 0 0 1 
1 0 0 0 1 
1 0 0 1 0 
1 0 50 1 0 
1 0 0 1 0 
1 10 0 0 1 
1 0 0 1 0 
1 0 50 1 0 
1 10 0 0 1 
1 50 0 0 1 
1 10 0 0 -1 
2 37.500000000014651 12.49999999997457 1 0 -0 1 5
1 6.2831853071793802 1 -1 0 
1 42.500000000014651 37.500000000003396 0 -1 
1 0 1 1 0 
2 37.500000000014651 37.500000000002885 1 0 -0 1 5
1 6.2831853071795862 1 -1 0 
1 12.5 42.500000000002863 1 8.5000000000000001e-16 
1 0 1 1 0 
2 12.499999999986361 37.500000000002863 1 0 -0 1 5
1 6.2831853071795862 1 -1 0 
1 7.4999999999863611 12.499999999974055 0 1 
1 0 1 1 0 
2 12.499999999986359 12.499999999974571 1 0 -0 1 5
1 6.2831853071794832 1 -1 0 
1 37.500000000015177 7.4999999999745697 -1 0 
1 0 1 1 0 
1 0 0 0 1 
1 0 50 1 0 
1 0 50 1 0 
1 0 -50 1 0 
1 50 0 0 1 
1 0 0 0 -1 
2 19.999999999991001 19.999999999987999 1 0 -0 1 5
1 6.2831853071795862 0 -1 0 
1 30.000000000008999 14.999999999988001 -1 0 
7 0 0  1 2 2  0 0  25.000000000028294 0 
 0 2 10.000000000016451 2
2 30.000000000008999 19.999999999987999 1 0 -0 1 4.9999999999999991
1 6.2831853071795862 0 -1 0 
1 35.000000000008995 30.000000000006001 0 -1 
7 0 0  1 2 2  0 0  25.000000000028312 0 
 0 2 10.000000000018 2
2 30.000000000008999 30.000000000006001 1 0 -0 1 4.9999999999999991
1 6.2831853071794832 0 -1 0 
1 20.000000000000483 35.000000000005997 1 0 
7 0 0  1 2 2  0 0  25 0 
 0 2 9.9999999999979998 2
2 19.999999999991001 30.000000000006001 1 0 -0 1 5
1 6.2831853071804176 0 -1 0 
1 14.999999999990999 19.999999999987999 0 1 
7 0 0  1 2 2  0 0  25.000000000028294 0 
 0 2 10.000000000016966 2
1 1.5707963267945866 0 0 1 
1 0 0 0 1 
1 -4.1389000000000002e-13 0 0 1 
1 25.000000000028312 0 0 1 
1 0 0 0 1 
1 6.2831853071794832 0 0 1 
1 4.7123889803817587 0 0 1 
1 25 0 0 1 
1 0 0 0 1 
1 4.7123889803874173 0 0 1 
1 3.1415926535896892 0 0 1 
1 25.000000000028294 0 0 1 
1 0 0 0 1 
1 3.1415926535895862 0 0 1 
1 1.5707963267945866 0 0 1 
1 25.000000000028294 0 0 1 
Curves 36
1 0 0 0 0 0 1 
1 0 0 10 -0 1 0 
1 0 50 0 0 0 1 
1 0 0 0 -0 1 0 
1 0 0 0 1 0 -0 
1 50 0 0 0 0 1 
1 0 0 10 1 0 -0 
1 0 50 10 1 0 -0 
1 50 0 10 0 1 0 
2 12.500000000014655 -12.50000000002543 0 0 0 1 1 0 -0 -0 1 0 5
1 17.500000000014655 12.5000000000034 0 0 -1 0 
2 12.500000000014655 12.500000000002883 0 0 0 1 1 0 -0 -0 1 0 5
1 -12.5 17.500000000002863 0 1 8.5000000000000001e-16 0 
2 -12.500000000013639 12.500000000002865 0 0 0 1 1 0 -0 -0 1 0 5
1 -17.500000000013639 -12.500000000025945 0 0 1 0 
2 -12.500000000013641 -12.500000000025429 0 0 0 1 1 0 -0 -0 1 0 5
1 12.500000000015174 -17.50000000002543 0 -1 0 0 
1 0 50 0 1 0 -0 
1 50 50 0 0 0 1 
1 50 0 0 -0 1 0 
2 -5.0000000000089999 -5.0000000000120002 0 0 0 1 1 0 -0 -0 1 0 5
1 5.0000000000089999 -10.000000000011999 0 -1 0 0 
2 5.0000000000089999 -5.0000000000120002 0 0 0 1 1 0 -0 -0 1 0 5
1 10.000000000008999 5.0000000000059996 0 0 -1 0 
2 5.0000000000089999 5.0000000000059996 0 0 0 1 1 0 -0 -0 1 0 5
1 -4.9999999999995168 10.000000000006001 0 1 0 0 
2 -5.0000000000089999 5.0000000000059996 0 0 0 1 1 0 -0 -0 1 0 5
1 -10.000000000009001 -5.0000000000120002 0 0 1 0 
7 0 0  1 2 2  5.0000000000105516 -10.000000000012001 0  12.500000000015174 -17.500000000025427 10 
 0 2 1 2
7 0 0  1 2 2  10.000000000008999 -5.0000000000120002 0  17.500000000014655 -12.500000000024912 10 
 0 2 1 2
7 0 0  1 2 2  10.000000000008999 5.0000000000059988 0  17.500000000014655 12.500000000003398 10 
 0 2 1 2
7 0 0  1 2 2  4.999999999998483 10.000000000006001 0  12.5 17.500000000002885 10 
 0 2 1 2
7 0 0  1 2 2  -4.9999999999995204 10.000000000005999 0  -12.5 17.500000000002863 10 
 0 2 1 2
7 0 0  1 2 2  -10.000000000009001 5.0000000000049658 0  -17.500000000013639 12.500000000002348 10 
 0 2 1 2
7 0 0  1 2 2  -10.000000000009001 -5.0000000000120002 0  -17.500000000013639 -12.500000000025945 10 
 0 2 1 2
7 0 0  1 2 2  -5.0000000000074509 -10.000000000011999 0  -12.50000000001312 -17.50000000002543 10 
 0 2 1 2
Polygon3D 0
PolygonOnTriangulations 72
2 1 2 
p 0.183333333333336 1 0 10 
2 1 4 
p 0.183333333333336 1 0 10 
2 2 3 
p 0.183333333333336 1 0 50 
2 1 2 
p 0.183333333333336 1 0 50 
2 4 3 
p 0.183333333333336 1 0 10 
2 1 4 
p 0.183333333333336 1 0 10 
2 1 4 
p 0.183333333333336 1 0 50 
2 1 2 
p 0.183333333333336 1 0 50 
2 1 2 
p 0.183333333333336 1 0 50 
2 1 4 
p 0.183333333333336 1 0 50 
2 2 3 
p 0.183333333333336 1 0 10 
2 1 2 
p 0.183333333333336 1 0 10 
2 4 3 
p 0.183333333333336 1 0 50 
2 1 4 
p 0.183333333333336 1 0 50 
2 2 3 
p 0.183333333333336 1 0 50 
2 4 3 
p 0.183333333333336 1 0 50 
2 4 3 
p 0.183333333333336 1 0 50 
2 2 3 
p 0.183333333333336 1 0 50 
7 8 10 11 12 13 14 9 
p 0.183333333333336 1 4.71238898038479 4.97418836818394 5.23598775598309 5.49778714378224 5.75958653158139 6.02138591938054 6.28318530717969 
7 5 7 8 9 10 11 6 
p 0.183333333333336 1 4.71238898038479 4.97418836818394 5.23598775598309 5.49778714378224 5.75958653158139 6.02138591938054 6.28318530717969 
2 3 4 
p 0.183333333333336 1 0 25.0000000000283 
2 12 6 
p 0.183333333333336 1 0 25.0000000000283 
7 8 10 11 12 13 14 9 
p 0.183333333333336 1 1.03e-13 0.261799387799724 0.523598775599344 0.785398163398965 1.04719755119859 1.30899693899821 1.57079632679783 
7 12 14 15 16 17 18 13 
p 0.183333333333336 1 1.03e-13 0.261799387799724 0.523598775599344 0.785398163398965 1.04719755119859 1.30899693899821 1.57079632679783 
2 3 4 
p 0.183333333333336 1 0 25 
2 19 13 
p 0.183333333333336 1 0 25 
7 8 10 11 12 13 14 9 
p 0.183333333333336 1 1.57079632679217 1.83259571459179 2.09439510239141 2.35619449019103 2.61799387799065 2.87979326579028 3.1415926535899 
7 19 21 22 23 24 25 20 
p 0.183333333333336 1 1.57079632679217 1.83259571459179 2.09439510239141 2.35619449019103 2.61799387799065 2.87979326579028 3.1415926535899 
2 3 4 
p 0.183333333333336 1 0 25.0000000000283 
2 26 20 
p 0.183333333333336 1 0 25.0000000000283 
7 8 10 11 12 13 14 9 
p 0.183333333333336 1 3.1415926535899 3.40339204138905 3.6651914291882 3.92699081698735 4.1887902047865 4.45058959258564 4.71238898038479 
7 26 28 29 30 31 32 27 
p 0.183333333333336 1 3.1415926535899 3.40339204138905 3.6651914291882 3.92699081698735 4.1887902047865 4.45058959258564 4.71238898038479 
2 3 4 
p 0.183333333333336 1 0 25.0000000000283 
2 5 27 
p 0.183333333333336 1 0 25.0000000000283 
2 1 2 
p 0.183333333333336 1 0 50 
2 2 3 
p 0.183333333333336 1 0 50 
2 2 3 
p 0.183333333333336 1 0 10 
2 4 3 
p 0.183333333333336 1 0 10 
2 4 3 
p 0.183333333333336 1 0 50 
2 1 4 
p 0.183333333333336 1 0 50 
7 1 3 4 5 6 7 2 
p 0.183333333333336 1 3.14159265359 3.40339204138917 3.66519142918833 3.9269908169875 4.18879020478667 4.45058959258583 4.712388980385 
7 5 7 8 9 10 11 6 
p 0.183333333333336 1 3.14159265359 3.40339204138917 3.66519142918833 3.9269908169875 4.18879020478667 4.45058959258583 4.712388980385 
2 1 2 
p 0.183333333333336 1 0 10.0000000000165 
2 12 6 
p 0.183333333333336 1 0 10.0000000000165 
7 1 3 4 5 6 7 2 
p 0.183333333333336 1 4.712388980385 4.97418836818417 5.23598775598333 5.4977871437825 5.75958653158167 6.02138591938083 6.28318530718 
7 12 14 15 16 17 18 13 
p 0.183333333333336 1 4.712388980385 4.97418836818417 5.23598775598333 5.4977871437825 5.75958653158167 6.02138591938083 6.28318530718 
2 1 2 
p 0.183333333333336 1 0 10.000000000018 
2 19 13 
p 0.183333333333336 1 0 10.000000000018 
7 1 3 4 5 6 7 2 
p 0.183333333333336 1 0 0.2617993877995 0.523598775599 0.7853981633985 1.047197551198 1.3089969389975 1.570796326797 
7 19 21 22 23 24 25 20 
p 0.183333333333336 1 0 0.2617993877995 0.523598775599 0.7853981633985 1.047197551198 1.3089969389975 1.570796326797 
2 1 2 
p 0.183333333333336 1 0 9.999999999998 
2 26 20 
p 0.183333333333336 1 0 9.999999999998 
7 1 3 4 5 6 7 2 
p 0.183333333333336 1 1.570796326793 1.8325957145925 2.094395102392 2.3561944901915 2.617993877991 2.8797932657905 3.14159265359 
7 26 28 29 30 31 32 27 
p 0.183333333333336 1 1.570796326793 1.8325957145925 2.094395102392 2.3561944901915 2.617993877991 2.8797932657905 3.14159265359 
2 1 2 
p 0.183333333333336 1 0 10.000000000017 
2 5 27 
p 0.183333333333336 1 0 10.000000000017 
2 1 8 
p 0.183333333333336 1 0 1 
2 1 3 
p 0.183333333333336 1 0 1 
2 2 9 
p 0.183333333333336 1 0 1 
2 2 4 
p 0.183333333333336 1 0 1 
2 1 3 
p 0.183333333333336 1 0 1 
2 1 8 
p 0.183333333333336 1 0 1 
2 2 9 
p 0.183333333333336 1 0 1 
2 2 4 
p 0.183333333333336 1 0 1 
2 1 3 
p 0.183333333333336 1 0 1 
2 1 8 
p 0.183333333333336 1 0 1 
2 2 9 
p 0.183333333333336 1 0 1 
2 2 4 
p 0.183333333333336 1 0 1 
2 1 3 
p 0.183333333333336 1 0 1 
2 1 8 
p 0.183333333333336 1 0 1 
2 2 9 
p 0.183333333333336 1 0 1 
2 2 4 
p 0.183333333333336 1 0 1 
Surfaces 14
1 0 0 0 1 0 -0 0 0 1 0 -1 0 
1 0 0 0 -0 1 0 0 0 1 1 0 -0 
1 0 0 10 0 0 1 1 0 -0 -0 1 0 
1 0 50 0 -0 1 0 0 0 1 1 0 -0 
1 0 0 0 0 0 1 1 0 -0 -0 1 0 
1 50 0 0 1 0 -0 0 0 1 0 -1 0 
9 0 0 0 0 8 1 9 2 2 2 10.000000000008999 -5.0000000000099298 0  17.500000000014651 -12.500000000024908 10  
10.000000000009404 -5.9817477042568132 0  17.500000000014758 -13.481747704271724 10.000000000000023  
9.7796960552037984 -6.9634957175311625 0  17.27969605520882 -14.463495717546012 9.9999999999999165  
9.3390903293671848 -7.8875661716858607 0  16.839090329372162 -15.387566171700266 10.000000000000179  
8.6962937789099204 -8.6962937789099133 0  16.196293778914406 -16.196293778924534 9.9999999999997602  
7.8875661716857763 -9.3390903293683891 0  15.387566171690516 -16.839090329382266 10.000000000000217  
6.9634957175317123 -9.779696055205207 0  14.463495717536148 -17.27969605521919 9.9999999999998828  
5.9817477042574208 -10.000000000011743 0  13.48174770426202 -17.500000000025356 10.00000000000003  
5.0000000000105516 -10.000000000012001 0  12.500000000015174 -17.500000000025427 10  

-4.1389000000000002e-13 9
1.5707963267945866 9

0 2
1 2

9 0 0 0 0 1 1 2 2 2 2 10.000000000008999 5.0000000000059996 0  17.500000000014655 12.5000000000034 10  
10.000000000008999 -5.0000000000120002 0  17.500000000014655 -12.500000000024912 10  

0 2
25.000000000028312 2

0 2
1 2

9 0 0 0 0 8 1 9 2 2 2 4.9999999999984786 10.00000000000599 0  12.499999999999996 17.500000000002881 10  
5.9817477042465095 10.000000000007953 0  13.481747704248557 17.500000000005663 9.9999999999998952  
6.9634957175229779 9.7796960552039192 0  14.46349571752531 17.279696055202187 10.000000000000378  
7.8875661716783245 9.3390903293667922 0  15.387566171682074 16.83909032936533 9.9999999999992273  
8.6962937789056429 8.6962937789105261 0  16.196293778909297 16.196293778909588 10.000000000000979  
9.3390903293639269 7.8875661716844432 0  16.839090329368997 15.387566171682749 9.9999999999991633  
9.7796960552026029 6.9634957175300132 0  17.279696055207715 14.46349571752847 10.000000000000474  
10.000000000008956 5.9817477042540368 0  17.50000000001452 13.481747704251836 9.9999999999998508  
10.000000000008999 5.0000000000059988 0  17.500000000014655 12.500000000003398 10  

4.7123889803817587 9
6.2831853071794832 9

0 2
1 2

9 0 0 0 0 1 1 2 2 2 2 -4.9999999999995168 10.000000000006001 0  -12.5 17.500000000002863 10  
4.999999999998483 10.000000000006001 0  12.5 17.500000000002885 10  

0 2
25 2

0 2
1 2

9 0 0 0 0 8 1 9 2 2 2 -10.000000000009004 5.0000000000049658 0  -17.500000000013646 12.500000000002352 10.000000000000004  
-10.000000000008999 5.9817477042529896 0  -17.500000000013436 13.481747704250576 9.9999999999998082  
-9.7796960552034964 6.9634957175290353 0  -17.279696055208056 14.463495717528152 10.000000000000652  
-9.3390903293636711 7.8875661716835301 0  -16.839090329366744 15.387566171680517 9.9999999999987583  
-8.6962937789073447 8.6962937789097019 0  -16.196293778911212 16.196293778910409 10.000000000001499  
-7.8875661716785981 9.3390903293663818 0  -15.387566171680271 16.839090329363501 9.9999999999988276  
-6.9634957175242427 9.779696055203333 0  -14.463495717526149 17.279696055202383 10.000000000000595  
-5.9817477042474811 10.000000000007811 0  -13.481747704248317 17.500000000005294 9.999999999999833  
-4.9999999999995204 10.000000000005999 0  -12.5 17.500000000002863 10  

3.1415926535896892 9
4.7123889803874173 9

0 2
1 2

9 0 0 0 0 1 1 2 2 2 2 -10.000000000009001 -5.0000000000120002 0  -17.500000000013639 -12.500000000025945 10  
-10.000000000009001 5.0000000000049658 0  -17.500000000013639 12.500000000002348 10  

0 2
25.000000000028294 2

0 2
1 2

9 0 0 0 0 8 1 9 2 2 2 -5.00000000000745 -10.000000000012001 0  -12.500000000013122 -17.500000000025427 10  
-5.9817477042543556 -10.000000000012351 0  -13.481747704259911 -17.500000000025619 10.000000000000048  
-6.963495717528609 -9.779696055206383 0  -14.463495717534229 -17.279696055219254 9.9999999999997939  
-7.8875661716833383 -9.3390903293702969 0  -15.387566171688498 -16.839090329383559 10.000000000000417  
-8.6962937789073571 -8.6962937789120556 0  -16.196293778912786 -16.196293778924517 9.999999999999492  
-9.33909032936557 -7.8875661716886967 0  -16.839090329370357 -15.387566171701732 10.000000000000412  
-9.7796960552025123 -6.9634957175340322 0  -17.279696055207559 -14.463495717546737 9.9999999999997815  
-10.000000000008811 -5.9817477042599609 0  -17.500000000013483 -13.481747704272829 10.00000000000006  
-10.000000000008997 -5.0000000000130349 0  -17.500000000013642 -12.500000000025945 9.9999999999999982  

1.5707963267945866 9
3.1415926535895862 9

0 2
1 2

9 0 0 0 0 1 1 2 2 2 2 5.0000000000089999 -10.000000000011999 0  12.500000000015174 -17.50000000002543 10  
-5.0000000000074509 -10.000000000011999 0  -12.50000000001312 -17.50000000002543 10  

0 2
25.000000000028294 2

0 2
1 2

Triangulations 14
4 2 1 8.88178419700125e-16
0 0 0 0 0 10 0 50 10 0 50 0 0 0 10 0 10 -50 0 -50 2 4 3 2 1 4 
4 2 1 8.88178419700125e-16
0 0 0 50 0 0 50 0 10 0 0 10 0 0 0 50 10 50 10 0 3 2 1 3 1 4 
32 32 1 6.66133814775094e-15
-25 -25 10 -25 25 10 25 25 10 25 -25 10 12.5000000000152 -17.5000000000254 10 17.5000000000147 -12.5000000000249 10 13.7940952255278 -17.3296291314706 10 15.0000000000151 -16.8301270189474 10 16.0355339059478 -16.0355339059578 10 16.8301270189371 -15.000000000025 10 17.3296291314601 -13.7940952255375 10 17.5000000000147 12.5000000000034 10 12.5 17.5000000000029 10 17.3296291314593 13.7940952255183 10 16.8301270189342 15.0000000000074 10 16.035533905942 16.035533905941 10 15.000000000006 16.83012701893 10 13.7940952255154 17.3296291314514 10 -12.5 17.5000000000029 10 -17.5000000000136 12.5000000000023 10 -13.7940952255153 17.3296291314511 10 -15.0000000000059 16.8301270189295 10 -16.0355339059417 16.0355339059402 10 -16.8301270189337 15.0000000000065 10 -17.3296291314585 13.7940952255172 10 -17.5000000000136 -12.5000000000259 10 -12.5000000000131 -17.5000000000254 10 -17.3296291314588 -13.7940952255385 10 -16.8301270189356 -15.0000000000259 10 -16.035533905946 -16.0355339059585 10 -15.0000000000132 -16.8301270189479 10 -13.7940952255257 -17.3296291314709 10 0 0 0 50 50 50 50 0 37.5000000000152 7.49999999997457 42.5000000000147 12.4999999999751 38.7940952255278 7.67037086852936 40.0000000000151 8.16987298105263 41.0355339059478 8.96446609404219 41.8301270189371 9.99999999997501 42.3296291314601 11.2059047744625 42.5000000000147 37.5000000000034 37.5 42.5000000000029 42.3296291314592 38.7940952255183 41.8301270189342 40.0000000000074 41.035533905942 41.035533905941 40.000000000006 41.83012701893 38.7940952255154 42.3296291314514 12.5 42.5000000000029 7.49999999998636 37.5000000000023 11.2059047744847 42.3296291314511 9.99999999999408 41.8301270189295 8.96446609405826 41.0355339059402 8.16987298106627 40.0000000000065 7.6703708685415 38.7940952255172 7.49999999998636 12.4999999999741 12.4999999999869 7.49999999997457 7.67037086854115 11.2059047744615 8.16987298106443 9.99999999997412 8.96446609405399 8.96446609404147 9.99999999998681 8.16987298105212 11.2059047744743 7.6703708685291 29 1 30 31 30 1 28 1 29 32 31 1 26 1 28 27 32 1 20 1 26 2 24 23 2 25 24 2 20 25 2 1 20 4 7 5 4 8 7 4 9 8 4 5 27 4 27 1 10 9 4 22 2 23 11 10 4 21 2 22 6 11 4 19 2 21 12 6 4 3 14 12 3 15 14 3 16 15 3 17 16 3 18 17 3 13 18 3 12 4 3 2 13 13 2 19 
4 2 1 8.88178419700125e-16
0 50 0 50 50 0 50 50 10 0 50 10 0 0 0 50 10 50 10 0 3 2 1 3 1 4 
32 32 1 3.09086090055644e-13
-25 -25 0 -25 25 0 25 25 0 25 -25 0 -10.000000000009 -5.00000000001252 0 -5.00000000000745 -10.000000000012 0 -9.82962913145405 -6.29409522552568 0 -9.33012701893059 -7.50000000001304 0 -8.53553390594083 -8.53553390594565 0 -7.50000000000781 -9.33012701893488 0 -6.29409522552019 -9.82962913145772 0 5.00000000000977 -10.000000000012 0 10.000000000009 -5.00000000001097 0 6.29409522552318 -9.82962913145692 0 7.50000000001049 -9.33012701893333 0 8.53553390594302 -8.53553390594346 0 9.33012701893214 -7.50000000001036 0 9.82962913145485 -6.29409522552269 0 10.000000000009 5.000000000006 0 4.99999999999848 10.000000000006 0 9.82962913145389 6.2940952255203 0 9.33012701892944 7.50000000000904 0 8.53553390593802 8.53553390594246 0 7.50000000000293 9.3301270189317 0 6.29409522551314 9.82962913145361 0 -4.99999999999952 10.000000000006 0 -10.000000000009 5.00000000000497 0 -6.29409522551414 9.82962913145334 0 -7.50000000000382 9.33012701893118 0 -8.53553390593875 8.53553390594172 0 -9.33012701892996 7.50000000000814 0 -9.82962913145415 6.2940952255193 0 0 0 0 50 50 50 50 0 14.999999999991 19.999999999987 19.9999999999925 14.999999999988 15.1703708685459 18.7059047744743 15.6698729810694 17.499999999987 16.4644660940592 16.4644660940543 17.4999999999922 15.6698729810651 18.7059047744798 15.1703708685423 30.000000000009 14.999999999988 35.000000000009 19.9999999999901 31.2940952255232 15.1703708685431 32.5000000000105 15.6698729810667 33.535533905943 16.4644660940565 34.3301270189321 17.4999999999896 34.8296291314549 18.7059047744773 35.000000000009 30.000000000006 29.9999999999985 35.000000000006 34.8296291314539 31.2940952255203 34.3301270189294 32.500000000009 33.535533905938 33.5355339059425 32.5000000000029 34.3301270189317 31.2940952255131 34.8296291314536 20.0000000000005 35.000000000006 14.999999999991 30.000000000005 18.7059047744859 34.8296291314533 17.4999999999962 34.3301270189312 16.4644660940613 33.5355339059417 15.66987298107 32.5000000000081 15.1703708685458 31.2940952255193 8 1 9 10 9 1 7 1 8 11 10 1 5 1 7 6 11 1 27 1 5 4 12 6 4 14 12 4 15 14 4 16 15 4 6 1 2 32 31 2 27 32 2 1 27 30 2 31 17 16 4 29 2 30 18 17 4 28 2 29 13 18 4 26 2 28 20 2 26 19 13 4 3 21 19 3 22 21 3 23 22 3 24 23 3 25 24 3 20 25 3 2 20 3 19 4 
4 2 1 8.88178419700125e-16
50 0 0 50 0 10 50 50 10 50 50 0 0 0 10 0 10 -50 0 -50 2 4 3 2 1 4 
14 12 1 0.0356233946269968
5.00000000000977 -10.000000000012 0 10.000000000009 -5.00000000001097 0 6.29409522552318 -9.82962913145692 0 7.50000000001049 -9.33012701893333 0 8.53553390594302 -8.53553390594346 0 9.33012701893214 -7.50000000001036 0 9.82962913145485 -6.29409522552269 0 12.5000000000152 -17.5000000000254 10 17.5000000000147 -12.5000000000249 10 13.7940952255278 -17.3296291314706 10 15.0000000000151 -16.8301270189474 10 16.0355339059478 -16.0355339059578 10 16.8301270189371 -15.000000000025 10 17.3296291314601 -13.7940952255375 10 1.57079632679459 0 -4.13891143580258e-13 0 1.30899693899542 0 1.04719755119625 0 0.785398163397086 0 0.523598775597919 0 0.261799387798752 0 1.57079632679459 1 -4.1389e-13 1 1.30899693899544 1 1.04719755119629 1 0.785398163397139 1 0.52359877559799 1 0.261799387798841 1 9 2 7 14 7 6 14 9 7 13 6 5 13 14 6 12 5 4 12 13 5 11 4 3 11 12 4 10 3 1 10 11 3 8 10 1 
25 44 1 0.131800829611182
10.000000000009 5.000000000006 0 10.000000000009 -5.00000000001097 0 17.5000000000147 12.5000000000034 10 17.5000000000147 -12.5000000000249 10 13.0000000000113 4.80000000000053 4 11.5000000000101 1.29999999999745 2 14.5000000000124 5.6999999999996 6 13.0000000000113 1.59999999999611 4 11.5000000000101 -1.30000000000656 2 16.0000000000135 6.59999999999867 8 14.5000000000124 1.89999999999477 6 13.0000000000113 -1.60000000000832 4 11.5000000000101 -3.90000000001057 2 16.0000000000135 2.19999999999342 8 14.5000000000124 -1.90000000001007 6 13.0000000000113 -4.80000000001274 4 16.0000000000135 -2.20000000001183 8 14.5000000000124 -5.70000000001491 6 16.0000000000135 -6.60000000001708 8 11.5000000000101 5.20000000000347 2 15.250000000013 8.20000000000166 7 11.5000000000101 -5.20000000001258 2 15.250000000013 -8.20000000001851 7 12.625000000011 6.86250000000401 3.5 12.625000000011 -6.86250000001544 3.5 0 0 25.0000000000283 0 0 1 25.0000000000283 1 5.00000000000566 0.4 10.0000000000113 0.2 5.00000000000566 0.6 10.0000000000113 0.4 15.000000000017 0.2 5.00000000000566 0.8 10.0000000000113 0.6 15.000000000017 0.4 20.0000000000226 0.2 10.0000000000113 0.8 15.000000000017 0.6 20.0000000000226 0.4 15.000000000017 0.8 20.0000000000226 0.6 20.0000000000226 0.8 2.50000000000283 0.2 2.50000000000283 0.7 22.5000000000255 0.2 22.5000000000255 0.7 1.25000000000142 0.35 23.7500000000269 0.35 8 5 6 9 1 2 9 6 1 11 7 5 11 5 8 12 8 6 12 6 9 13 9 2 14 3 10 14 7 11 14 10 7 15 11 8 15 8 12 16 12 9 16 9 13 17 4 3 17 3 14 17 11 15 17 14 11 18 15 12 18 12 16 19 4 17 19 17 15 19 15 18 20 1 6 20 6 5 21 10 3 21 7 10 22 13 2 22 16 13 23 4 19 23 19 18 24 3 1 24 1 20 24 5 7 24 20 5 24 21 3 24 7 21 25 2 4 25 4 23 25 22 2 25 18 16 25 16 22 25 23 18 
14 12 1 0.0356233946265193
10.000000000009 5.000000000006 0 4.99999999999848 10.000000000006 0 9.82962913145389 6.2940952255203 0 9.33012701892944 7.50000000000904 0 8.53553390593802 8.53553390594246 0 7.50000000000293 9.3301270189317 0 6.29409522551314 9.82962913145361 0 17.5000000000147 12.5000000000034 10 12.5 17.5000000000029 10 17.3296291314593 13.7940952255183 10 16.8301270189342 15.0000000000074 10 16.035533905942 16.035533905941 10 15.000000000006 16.83012701893 10 13.7940952255154 17.3296291314514 10 6.28318530717948 0 4.71238898038248 0 6.02138591937998 0 5.75958653158048 0 5.49778714378098 0 5.23598775598148 0 4.97418836818198 0 6.28318530717948 1 4.71238898038176 1 6.02138591937986 1 5.75958653158024 1 5.49778714378062 1 5.235987755981 1 4.97418836818138 1 14 2 7 14 9 2 13 7 6 13 14 7 12 6 5 12 13 6 11 5 4 11 12 5 10 4 3 10 11 4 8 3 1 8 10 3 
26 46 1 0.131800829611114
-4.99999999999952 10.000000000006 0 4.99999999999848 10.000000000006 0 -12.5 17.5000000000029 10 12.5 17.5000000000029 10 -3.89999999999993 11.5000000000054 2 -4.79999999999995 13.0000000000047 4 -1.30000000000025 11.5000000000054 2 -5.69999999999997 14.5000000000041 6 -1.60000000000019 13.0000000000047 4 1.29999999999943 11.5000000000054 2 -6.59999999999998 16.0000000000035 8 -1.90000000000013 14.5000000000041 6 1.59999999999957 13.0000000000047 4 3.89999999999911 11.5000000000054 2 -2.20000000000006 16.0000000000035 8 1.89999999999971 14.5000000000041 6 4.79999999999933 13.0000000000048 4 2.19999999999986 16.0000000000035 8 5.69999999999956 14.5000000000041 6 6.59999999999978 16.0000000000035 8 -5.19999999999977 11.5000000000054 2 -5.7999999999998 12.2500000000051 3 5.19999999999895 11.5000000000054 2 8.1999999999996 15.2500000000038 7 -8.88749999999986 14.875000000004 6.5 6.86249999999908 12.6250000000049 3.5 0 0 25 0 0 1 25 1 5 0.2 5 0.4 10 0.2 5 0.6 10 0.4 15 0.2 5 0.8 10 0.6 15 0.4 20 0.2 10 0.8 15 0.6 20 0.4 15 0.8 20 0.6 20 0.8 2.5 0.2 2.5 0.3 22.5 0.2 22.5 0.7 1.25 0.65 23.75 0.35 7 1 2 7 5 1 7 6 5 9 6 7 9 8 6 10 7 2 12 8 9 12 11 8 13 9 7 13 7 10 14 10 2 14 13 10 15 11 12 15 3 11 16 12 9 16 9 13 17 13 14 17 16 13 18 4 3 18 3 15 18 12 16 18 15 12 19 16 17 19 18 16 20 4 18 20 18 19 21 1 5 22 1 21 22 5 6 22 21 5 23 14 2 23 17 14 24 4 20 24 20 19 25 3 1 25 6 8 25 11 3 25 8 11 25 1 22 25 22 6 26 2 4 26 4 24 26 23 2 26 19 17 26 17 23 26 24 19 
14 12 1 0.0356233946267213
-4.99999999999952 10.000000000006 0 -10.000000000009 5.00000000000497 0 -6.29409522551414 9.82962913145334 0 -7.50000000000382 9.33012701893118 0 -8.53553390593875 8.53553390594172 0 -9.33012701892996 7.50000000000814 0 -9.82962913145415 6.2940952255193 0 -12.5 17.5000000000029 10 -17.5000000000136 12.5000000000023 10 -13.7940952255153 17.3296291314511 10 -15.0000000000059 16.8301270189295 10 -16.0355339059417 16.0355339059402 10 -16.8301270189337 15.0000000000065 10 -17.3296291314585 13.7940952255172 10 4.71238898038742 0 3.14159265359042 0 4.45058959258792 0 4.18879020478842 0 3.92699081698892 0 3.66519142918942 0 3.40339204138992 0 4.71238898038742 1 3.14159265358969 1 4.4505895925878 1 4.18879020478817 1 3.92699081698855 1 3.66519142918893 1 3.40339204138931 1 14 2 7 14 9 2 13 7 6 13 14 7 12 6 5 12 13 6 11 5 4 11 12 5 10 4 3 10 11 4 8 3 1 8 10 3 
26 46 1 0.131800829611194
-10.000000000009 -5.00000000001252 0 -10.000000000009 5.00000000000497 0 -17.5000000000136 -12.5000000000259 10 -17.5000000000136 12.5000000000023 10 -11.5000000000099 -3.90000000001094 2 -13.0000000000109 -4.80000000001328 4 -11.5000000000099 -1.3000000000071 2 -14.5000000000118 -5.70000000001562 6 -13.0000000000109 -1.60000000000898 4 -11.5000000000099 1.29999999999675 2 -16.0000000000127 -6.60000000001795 8 -14.5000000000118 -1.90000000001086 6 -13.0000000000109 1.59999999999532 4 -11.5000000000099 3.9000000000006 2 -16.0000000000127 -2.20000000001275 8 -14.5000000000118 1.89999999999389 6 -13.0000000000109 4.79999999999962 4 -16.0000000000127 2.19999999999246 8 -14.5000000000118 5.69999999999864 6 -16.0000000000127 6.59999999999766 8 -11.5000000000099 -5.20000000001287 2 -15.2500000000122 -8.20000000001927 7 -11.5000000000099 5.20000000000252 2 -15.2500000000122 8.20000000000065 7 -12.6250000000106 -6.86250000001583 3.5 -12.6250000000106 6.862500000003 3.5 0 0 25.0000000000283 0 0 1 25.0000000000283 1 5.00000000000566 0.2 5.00000000000566 0.4 10.0000000000113 0.2 5.00000000000566 0.6 10.0000000000113 0.4 15.000000000017 0.2 5.00000000000566 0.8 10.0000000000113 0.6 15.000000000017 0.4 20.0000000000226 0.2 10.0000000000113 0.8 15.000000000017 0.6 20.0000000000226 0.4 15.000000000017 0.8 20.0000000000226 0.6 20.0000000000226 0.8 2.50000000000283 0.2 2.50000000000283 0.7 22.5000000000255 0.2 22.5000000000255 0.7 1.25000000000141 0.35 23.7500000000269 0.35 7 5 1 7 6 5 9 6 7 9 8 6 10 1 2 10 7 1 10 9 7 12 8 9 12 11 8 13 9 10 13 12 9 14 10 2 15 11 12 15 3 11 16 12 13 16 15 12 17 13 10 17 10 14 18 4 3 18 3 15 18 15 16 19 16 13 19 13 17 20 4 18 20 18 16 20 16 19 21 1 5 21 5 6 22 11 3 22 8 11 23 14 2 23 17 14 24 4 20 24 20 19 25 3 1 25 1 21 25 6 8 25 22 3 25 21 6 25 8 22 26 2 4 26 4 24 26 23 2 26 19 17 26 17 23 26 24 19 
14 12 1 0.0356233946270595
-10.000000000009 -5.00000000001252 0 -5.00000000000745 -10.000000000012 0 -9.82962913145405 -6.29409522552568 0 -9.33012701893059 -7.50000000001304 0 -8.53553390594083 -8.53553390594565 0 -7.50000000000781 -9.33012701893488 0 -6.29409522552019 -9.82962913145772 0 -17.5000000000136 -12.5000000000259 10 -12.5000000000131 -17.5000000000254 10 -17.3296291314588 -13.7940952255385 10 -16.8301270189356 -15.0000000000259 10 -16.035533905946 -16.0355339059585 10 -15.0000000000132 -16.8301270189479 10 -13.7940952255257 -17.3296291314709 10 3.14159265358959 0 1.57079632679459 0 2.87979326579042 0 2.61799387799125 0 2.35619449019209 0 2.09439510239292 0 1.83259571459375 0 3.14159265358959 1 1.57079632679459 1 2.87979326579044 1 2.61799387799129 1 2.35619449019214 1 2.09439510239299 1 1.83259571459384 1 9 2 7 14 7 6 14 9 7 13 6 5 13 14 6 12 5 4 12 13 5 11 4 3 11 12 4 10 3 1 10 11 3 8 10 1 
25 44 1 0.131800829611179
5.00000000000977 -10.000000000012 0 -5.00000000000745 -10.000000000012 0 12.5000000000152 -17.5000000000254 10 -12.5000000000131 -17.5000000000254 10 4.80000000000723 -13.0000000000174 4 1.30000000000271 -11.5000000000147 2 5.70000000000799 -14.5000000000201 6 1.600000000003 -13.0000000000174 4 -1.30000000000106 -11.5000000000147 2 6.60000000000875 -16.0000000000227 8 1.90000000000328 -14.5000000000201 6 -1.60000000000124 -13.0000000000174 4 -3.90000000000482 -11.5000000000147 2 2.20000000000357 -16.0000000000227 8 -1.90000000000143 -14.5000000000201 6 -4.80000000000548 -13.0000000000174 4 -2.20000000000162 -16.0000000000227 8 -5.70000000000614 -14.5000000000201 6 -6.6000000000068 -16.0000000000227 8 5.20000000000835 -11.5000000000147 2 5.80000000000885 -12.250000000016 3 -5.20000000000671 -11.5000000000147 2 -8.20000000000895 -15.2500000000214 7 8.88750000001181 -14.8750000000207 6.5 -6.86250000000841 -12.6250000000167 3.5 0 0 25.0000000000283 0 0 1 25.0000000000283 1 5.00000000000566 0.4 10.0000000000113 0.2 5.00000000000566 0.6 10.0000000000113 0.4 15.000000000017 0.2 5.00000000000566 0.8 10.0000000000113 0.6 15.000000000017 0.4 20.0000000000226 0.2 10.0000000000113 0.8 15.000000000017 0.6 20.0000000000226 0.4 15.000000000017 0.8 20.0000000000226 0.6 20.0000000000226 0.8 2.50000000000283 0.2 2.50000000000283 0.3 22.5000000000255 0.2 22.5000000000255 0.7 1.25000000000141 0.65 23.7500000000269 0.35 8 5 6 9 1 2 9 6 1 11 7 5 11 5 8 11 10 7 12 8 6 12 6 9 13 9 2 14 3 10 14 10 11 15 11 8 15 8 12 15 14 11 16 12 9 16 9 13 17 4 3 17 3 14 17 14 15 18 12 16 18 15 12 18 17 15 19 4 17 19 17 18 20 1 6 20 6 5 21 1 20 21 20 5 22 13 2 22 16 13 23 4 19 23 19 18 24 3 1 24 5 7 24 1 21 24 10 3 24 7 10 24 21 5 25 2 4 25 4 23 25 22 2 25 18 16 25 16 22 25 23 18 

TShapes 94
Ve
1e-07
-25 -25 10
0 0

0101101
*
Ve
1e-07
-25 -25 0
0 0

0101101
*
Ed
 1e-07 1 1 0
1  1 0 0 10
2  1 1 0 0 10
2  2 2 0 0 10
6  1 1 0
6  2 2 0
0

0101000
-94 3 +93 3 *
Ve
1e-07
-25 25 10
0 0

0101101
*
Ed
 1e-07 1 1 0
1  2 0 0 50
2  3 1 0 0 50
2  4 3 0 0 50
6  3 1 0
6  4 3 4
0

0101000
-91 3 +94 3 *
Ve
1e-07
-25 25 0
0 0

0101101
*
Ed
 1e-07 1 1 0
1  3 0 0 10
2  5 1 0 0 10
2  6 4 0 0 10
6  5 1 0
6  6 4 0
0

0101000
-91 3 +89 3 *
Ed
 1e-07 1 1 0
1  4 0 0 50
2  7 1 0 0 50
2  8 5 0 0 50
6  7 1 0
6  8 5 4
0

0101000
-89 3 +93 3 *
Wi

0101000
-92 0 -90 0 +88 0 +87 0 *
Fa
0  1e-07 1 0
2  1
0101000
+86 0 *
Ve
1e-07
25 -25 0
0 0

0101101
*
Ed
 1e-07 1 1 0
1  5 0 0 50
2  9 2 0 0 50
2  10 5 0 0 50
6  9 2 0
6  10 5 4
0

0101000
-84 3 +93 3 *
Ve
1e-07
25 -25 10
0 0

0101101
*
Ed
 1e-07 1 1 0
1  6 0 0 10
2  11 2 0 0 10
2  12 6 0 0 10
6  11 2 0
6  12 6 0
0

0101000
-82 3 +84 3 *
Ed
 1e-07 1 1 0
1  7 0 0 50
2  13 2 0 0 50
2  14 3 0 0 50
6  13 2 0
6  14 3 4
0

0101000
-82 3 +94 3 *
Wi

0101000
-83 0 -81 0 +80 0 +92 0 *
Fa
0  1e-07 2 0
2  2
0101000
+79 0 *
Ve
1e-07
25 25 10
0 0

0101101
*
Ed
 1e-07 1 1 0
1  8 0 0 50
2  15 3 0 0 50
2  16 4 0 0 50
6  15 3 4
6  16 4 0
0

0101000
-77 3 +91 3 *
Ed
 1e-07 1 1 0
1  9 0 0 50
2  17 3 0 0 50
2  18 6 0 0 50
6  17 3 4
6  18 6 0
0

0101000
-77 3 +82 3 *
Wi

0101000
-90 2 -76 2 +80 2 +75 2 *
Ve
1.00001002e-07
12.5000000000152 -17.5000000000254 10
0 0

0101101
*
Ve
1e-07
17.5000000000147 -12.5000000000249 10
0 0

0101101
*
Ed
 1e-07 1 1 0
1  10 0 4.71238898038479 6.28318530717969
2  19 3 8 4.71238898038479 6.28318530717969
2  20 7 9 4.71238898038479 6.28318530717969
6  19 7 10
6  20 3 10
0

0101000
+73 11 -72 11 *
Ve
1.00001001e-07
17.5000000000147 12.5000000000034 10
0 0

0101101
*
Ed
 1e-07 1 1 0
1  11 0 0 25.0000000000283
2  21 3 8 0 25.0000000000283
2  22 8 9 0 25.0000000000283
6  21 8 10
6  22 3 10
0

0101000
+70 11 -72 11 *
Ve
1.00000001e-07
12.5 17.5000000000029 10
0 0

0101101
*
Ed
 1e-07 1 1 0
1  12 0 1.03e-13 1.57079632679783
2  23 3 8 1.03e-13 1.57079632679783
2  24 9 9 1.03e-13 1.57079632679783
6  23 9 10
6  24 3 10
0

0101000
+70 11 -68 11 *
Ve
1.00001002e-07
-12.5 17.5000000000029 10
0 0

0101101
*
Ed
 1e-07 1 1 0
1  13 0 0 25
2  25 3 8 0 25
2  26 10 9 0 25
6  25 10 10
6  26 3 10
0

0101000
+66 11 -68 11 *
Ve
1e-07
-17.5000000000136 12.5000000000023 10
0 0

0101101
*
Ed
 1e-07 1 1 0
1  14 0 1.57079632679217 3.1415926535899
2  27 3 8 1.57079632679217 3.1415926535899
2  28 11 9 1.57079632679217 3.1415926535899
6  27 11 10
6  28 3 10
0

0101000
+66 11 -64 11 *
Ve
1.00000002e-07
-17.5000000000136 -12.5000000000259 10
0 0

0101101
*
Ed
 1e-07 1 1 0
1  15 0 0 25.0000000000283
2  29 3 8 0 25.0000000000283
2  30 12 9 0 25.0000000000283
6  29 12 10
6  30 3 10
0

0101000
+62 11 -64 11 *
Ve
1.00000001e-07
-12.5000000000131 -17.5000000000254 10
0 0

0101101
*
Ed
 1e-07 1 1 0
1  16 0 3.1415926535899 4.71238898038479
2  31 3 8 3.1415926535899 4.71238898038479
2  32 13 9 3.1415926535899 4.71238898038479
6  31 13 10
6  32 3 10
0

0101000
+62 11 -60 11 *
Ed
 1e-07 1 1 0
1  17 0 0 25.0000000000283
2  33 3 8 0 25.0000000000283
2  34 14 9 0 25.0000000000283
6  33 14 10
6  34 3 10
0

0101000
+73 11 -60 11 *
Wi

0101000
-71 7 +69 7 -67 7 +65 7 -63 7 +61 7 -59 7 +58 7 *
Fa
0  1e-07 3 2
2  3
0101000
+74 0 +57 0 *
Ve
1e-07
25 25 0
0 0

0101101
*
Ed
 1e-07 1 1 0
1  18 0 0 50
2  35 4 0 0 50
2  36 5 0 0 50
6  35 4 0
6  36 5 4
0

0101000
-55 3 +89 3 *
Ed
 1e-07 1 1 0
1  19 0 0 10
2  37 4 0 0 10
2  38 6 0 0 10
6  37 4 0
6  38 6 0
0

0101000
-77 3 +55 3 *
Wi

0101000
-54 0 -53 0 +76 0 +88 0 *
Fa
0  1e-07 4 0
2  4
0101000
+52 0 *
Ed
 1e-07 1 1 0
1  20 0 0 50
2  39 5 0 0 50
2  40 6 0 0 50
6  39 5 4
6  40 6 0
0

0101000
-55 3 +84 3 *
Wi

0101000
-87 2 -54 2 +83 2 +50 2 *
Ve
1.00000517e-07
-10.000000000009 -5.00000000001252 0
0 0

0101101
*
Ve
1.00000001e-07
-5.00000000000745 -10.000000000012 0
0 0

0101101
*
Ed
 1e-07 1 1 0
1  21 0 3.14159265359 4.712388980385
2  41 5 14 3.14159265359 4.712388980385
2  42 13 15 3.14159265359 4.712388980385
6  41 13 16
6  42 5 16
0

0101000
+48 17 -47 17 *
Ve
1.00000774e-07
5.00000000000977 -10.000000000012 0
0 0

0101101
*
Ed
 1e-07 1 1 0
1  22 0 0 10.0000000000165
2  43 5 14 0 10.0000000000165
2  44 14 15 0 10.0000000000165
6  43 14 16
6  44 5 16
0

0101000
+45 17 -47 17 *
Ve
1.00001035e-07
10.000000000009 -5.00000000001097 0
0 0

0101101
*
Ed
 1e-07 1 1 0
1  23 0 4.712388980385 6.28318530718
2  45 5 14 4.712388980385 6.28318530718
2  46 7 15 4.712388980385 6.28318530718
6  45 7 16
6  46 5 16
0

0101000
+45 17 -43 17 *
Ve
1e-07
10.000000000009 5.000000000006 0
0 0

0101101
*
Ed
 1e-07 1 1 0
1  24 0 0 10.000000000018
2  47 5 14 0 10.000000000018
2  48 8 15 0 10.000000000018
6  47 8 16
6  48 5 16
0

0101000
+41 17 -43 17 *
Ve
1e-07
4.99999999999848 10.000000000006 0
0 0

0101101
*
Ed
 1e-07 1 1 0
1  25 0 0 1.570796326797
2  49 5 14 0 1.570796326797
2  50 9 15 0 1.570796326797
6  49 9 16
6  50 5 16
0

0101000
+41 17 -39 17 *
Ve
1e-07
-4.99999999999952 10.000000000006 0
0 0

0101101
*
Ed
 1e-07 1 1 0
1  26 0 0 9.999999999998
2  51 5 14 0 9.999999999998
2  52 10 15 0 9.999999999998
6  51 10 16
6  52 5 16
0

0101000
+37 17 -39 17 *
Ve
1.00000001e-07
-10.000000000009 5.00000000000497 0
0 0

0101101
*
Ed
 1e-07 1 1 0
1  27 0 1.570796326793 3.14159265359
2  53 5 14 1.570796326793 3.14159265359
2  54 11 15 1.570796326793 3.14159265359
6  53 11 16
6  54 5 16
0

0101000
+37 17 -35 17 *
Ed
 1e-07 1 1 0
1  28 0 0 10.000000000017
2  55 5 14 0 10.000000000017
2  56 12 15 0 10.000000000017
6  55 12 16
6  56 5 16
0

0101000
+48 17 -35 17 *
Wi

0101000
-46 13 +44 13 -42 13 +40 13 -38 13 +36 13 -34 13 +33 13 *
Fa
0  1e-07 5 2
2  5
0101000
+49 0 +32 0 *
Wi

0101000
-81 0 -75 0 +53 0 +50 0 *
Fa
0  1e-07 6 0
2  6
0101000
+30 0 *
Ed
 1e-07 1 1 0
1  29 0 0 1
2  57 7 0 0 1
2  58 14 0 0 1
4 G1 7 0 14 0
6  57 7 18
6  58 14 18
0

0101000
+45 19 -73 19 *
Ed
 1e-07 1 1 0
1  30 0 0 1
2  59 7 0 0 1
2  60 8 0 0 1
4 G1 7 0 8 0
6  59 7 18
6  60 8 18
0

0101000
+43 19 -72 19 *
Wi

0101000
-42 13 +28 6 -27 6 +71 7 *
Fa
0  1e-07 7 6
2  7
0101000
+26 0 *
Ed
 1e-07 1 1 0
1  31 0 0 1
2  61 8 0 0 1
2  62 9 0 0 1
4 G1 8 0 9 0
6  61 8 18
6  62 9 18
0

0101000
+41 19 -70 19 *
Wi

0101000
+40 13 -24 6 +27 6 -69 7 *
Fa
0  1e-07 8 6
2  8
0101000
+23 0 *
Ed
 1e-07 1 1 0
1  32 0 0 1
2  63 9 0 0 1
2  64 10 0 0 1
4 G1 9 0 10 0
6  63 9 18
6  64 10 18
0

0101000
+39 19 -68 19 *
Wi

0101000
-38 13 +24 6 -21 6 +67 7 *
Fa
0  1e-07 9 6
2  9
0101000
+20 0 *
Ed
 1e-07 1 1 0
1  33 0 0 1
2  65 10 0 0 1
2  66 11 0 0 1
4 G1 10 0 11 0
6  65 10 18
6  66 11 18
0

0101000
+37 19 -66 19 *
Wi

0101000
+36 13 -18 6 +21 6 -65 7 *
Fa
0  1e-07 10 6
2  10
0101000
+17 0 *
Ed
 1e-07 1 1 0
1  34 0 0 1
2  67 11 0 0 1
2  68 12 0 0 1
4 G1 11 0 12 0
6  67 11 18
6  68 12 18
0

0101000
+35 19 -64 19 *
Wi

0101000
-34 13 +18 6 -15 6 +63 7 *
Fa
0  1e-07 11 6
2  11
0101000
+14 0 *
Ed
 1e-07 1 1 0
1  35 0 0 1
2  69 12 0 0 1
2  70 13 0 0 1
4 G1 12 0 13 0
6  69 12 18
6  70 13 18
0

0101000
+48 19 -62 19 *
Wi

0101000
+33 13 -12 6 +15 6 -61 7 *
Fa
0  1e-07 12 6
2  12
0101000
+11 0 *
Ed
 1e-07 1 1 0
1  36 0 0 1
2  71 13 0 0 1
2  72 14 0 0 1
4 G1 13 0 14 0
6  71 13 18
6  72 14 18
0

0101000
+47 19 -60 19 *
Wi

0101000
-46 13 +12 6 -9 6 +59 7 *
Fa
0  1e-07 13 6
2  13
0101000
+8 0 *
Wi

0101100
+44 13 -28 6 +9 6 -58 7 *
Fa
0  1e-07 14 6
2  14
0101000
+6 0 *
Sh

0101100
-85 2 -78 2 +56 0 +51 2 -31 0 +29 2 +25 0 +22 0 +19 0 +16 0 
+13 0 +10 0 +7 0 +5 0 *
So

0100000
+4 0 *
Co

0100000
+3 0 *
Co

1100000
+2 1 *

+1 0 