DBRep_DrawableShape

CASCADE Topology V1, (c) Matra-Datavision
Locations 14
1
              1               0               0               0 
              0               1               0               0 
              0               0               1               0 
2  1 -1 0
1
              1               0               0               0 
              0               1               0               0 
              0               0               1               0 
1
              1               0               0               0 
              0               1               0               0 
              0               0               1               0 
2  3 1 4 -1 0
2  4 1 3 -1 0
2  3 -1 0
2  1 -1 4 1 3 -1 0
1
              1               0               0               0 
              0               1               0               0 
              0               0               1               1 
2  3 1 4 -1 9 1 0
2  9 -1 4 1 3 -1 0
2  1 -1 9 -1 4 1 3 -1 0
2  4 -1 0
2  4 -1 9 1 0
Curve2ds 120
1 0 0 0 -1 
1 14.535533905934322 0 0 -1 
1 7.4999999999999964 0 0 -1 
1 0 0 0 -1 
1 0 0 1 0 
1 0 0 0 1 
1 0 -1 1 0 
1 0 0 0 1 
1 9.9999999999999982 0 0 -1 
1 0 0 0 -1 
1 0 0 1 0 
1 0 7.4999999999999964 1 0 
1 0 -1 1 0 
1 0 7.4999999999999964 1 0 
1 5 0 0 -1 
1 0 -0 0 -1 
1 0 0 1 0 
1 9.9999999999999982 7.4999999999999964 0 1 
1 0 -1 1 0 
1 9.9999999999999982 7.4999999999999964 0 1 
1 9.9999999999999982 0 0 -1 
1 0 0 0 -1 
1 0 -0 1 0 
1 9.9999999999999982 12.499999999999996 -1 0 
1 0 -1 1 0 
1 9.9999999999999982 12.499999999999996 -1 0 
1 5 0 0 -1 
1 0 0 0 -1 
1 0 0 1 0 
1 0 12.499999999999996 0 1 
1 0 -1 1 0 
1 0 12.499999999999996 0 1 
1 5 0 0 -1 
1 0 0 0 -1 
1 0 0 1 0 
1 0 17.499999999999996 1 0 
1 0 -1 1 0 
1 0 17.499999999999996 1 0 
1 5 0 0 -1 
1 0 0 0 -1 
1 0 0 1 0 
1 5 17.499999999999996 0.70710678118686443 0.7071067811862306 
1 0 -1 1 0 
1 5 17.499999999999996 0.70710678118686443 0.7071067811862306 
1 5 0 0 -1 
1 0 0 0 -1 
1 0 0 1 0 
1 8.5355339059343223 21.03553390593115 0 1 
1 0 -1 1 0 
1 8.5355339059343223 21.03553390593115 0 1 
1 5 0 0 -1 
1 0 0 0 -1 
1 0 0 1 0 
1 8.5355339059343223 26.03553390593115 1 0 
1 0 -1 1 0 
1 8.5355339059343223 26.03553390593115 1 0 
1 16.22924359445836 0 0 -1 
1 0 0 0 -1 
1 0 0 1 0 
1 13.535533905934322 26.03553390593115 0.15404291552156202 -0.98806415792579838 
1 0 -1 1 0 
1 13.535533905934322 26.03553390593115 0.15404291552156202 -0.98806415792579838 
1 16.22924359445836 0 0 -1 
1 0 0 0 -1 
1 0 0 1 0 
1 16.035533905934322 9.9999999999999964 0.15404291552156202 0.98806415792579838 
1 0 -1 1 0 
1 16.035533905934322 9.9999999999999964 0.15404291552156202 0.98806415792579838 
1 10 0 0 -1 
1 0 0 0 -1 
1 0 0 1 0 
1 18.535533905934322 26.03553390593115 1 0 
1 0 -1 1 0 
1 18.535533905934322 26.03553390593115 1 0 
1 11.035533905931153 0 0 -1 
1 0 -0 0 -1 
1 0 0 1 0 
1 28.535533905934322 26.03553390593115 0 -1 
1 0 -1 1 0 
1 28.535533905934322 26.03553390593115 0 -1 
1 5 0 0 -1 
1 0 0 0 -1 
1 0 -0 1 0 
1 28.535533905934322 14.999999999999996 -1 0 
1 0 -1 1 0 
1 28.535533905934322 14.999999999999996 -1 0 
1 10 0 0 -1 
1 0 0 0 -1 
1 0 0 1 0 
1 23.535533905934322 14.999999999999996 0 -1 
1 0 -1 1 0 
1 23.535533905934322 14.999999999999996 0 -1 
1 5 0 0 -1 
1 0 0 0 -1 
1 0 0 1 0 
1 23.535533905934322 4.9999999999999964 1 0 
1 0 -1 1 0 
1 23.535533905934322 4.9999999999999964 1 0 
1 5 0 0 -1 
1 0 -0 0 -1 
1 0 0 1 0 
1 28.535533905934322 4.9999999999999964 0 -1 
1 0 -1 1 0 
1 28.535533905934322 4.9999999999999964 0 -1 
1 11 0 0 -1 
1 0 0 0 -1 
1 0 -0 1 0 
1 28.535533905934322 -3.5500000000000001e-15 -1 0 
1 0 -1 1 0 
1 28.535533905934322 -3.5500000000000001e-15 -1 0 
1 3.1415926535897905 0 0 -1 
1 0 -0 0 -1 
1 0 0 1 0 
2 16.035533905934322 -3.5500000000000001e-15 1 0 -0 1 1.5
1 0 -1 1 0 
2 16.035533905934322 -3.5500000000000001e-15 1 0 -0 1 1.5
1 0 -0 1 0 
1 14.535533905934322 0 -1 0 
1 0 -1 1 0 
1 14.535533905934322 0 -1 0 
Curves 60
1 -16.035533905934322 -9.9999999999999964 0 0 0 1 
1 -16.035533905934322 -2.5 0 0 0 1 
1 -16.035533905934322 -9.9999999999999964 0 0 1 0 
1 -16.035533905934322 -9.9999999999999964 0 0 1 0 
1 -6.035533905934324 -2.5 0 0 0 1 
1 -16.035533905934322 -2.5 0 1 0 0 
1 -16.035533905934322 -2.5 0 1 0 0 
1 -6.035533905934324 2.5 0 0 0 1 
1 -6.035533905934324 -2.5 0 0 1 0 
1 -6.035533905934324 -2.5 0 0 1 0 
1 -16.035533905934322 2.5 0 0 0 1 
1 -6.035533905934324 2.5 0 -1 0 0 
1 -6.035533905934324 2.5 0 -1 0 0 
1 -16.035533905934322 7.5 0 0 0 1 
1 -16.035533905934322 2.5 0 0 1 0 
1 -16.035533905934322 2.5 0 0 1 0 
1 -11.035533905934322 7.5 0 0 0 1 
1 -16.035533905934322 7.5 0 1 0 0 
1 -16.035533905934322 7.5 0 1 0 0 
1 -7.5 11.035533905931153 0 0 0 1 
1 -11.035533905934322 7.5 0 0.70710678118686443 0.7071067811862306 0 
1 -11.035533905934322 7.5 0 0.70710678118686443 0.7071067811862306 0 
1 -7.5 16.035533905931153 0 0 0 1 
1 -7.5 11.035533905931153 0 0 1 0 
1 -7.5 11.035533905931153 0 0 1 0 
1 -2.5 16.035533905931153 0 0 0 1 
1 -7.5 16.035533905931153 0 1 0 0 
1 -7.5 16.035533905931153 0 1 0 0 
1 0 0 0 0 0 1 
1 -2.5 16.035533905931153 0 0.15404291552156202 -0.98806415792579838 0 
1 -2.5 16.035533905931153 0 0.15404291552156202 -0.98806415792579838 0 
1 2.5 16.035533905931153 0 0 0 1 
1 0 0 0 0.15404291552156202 0.98806415792579838 0 
1 0 0 0 0.15404291552156202 0.98806415792579838 0 
1 12.5 16.035533905931153 0 0 0 1 
1 2.5 16.035533905931153 0 1 0 0 
1 2.5 16.035533905931153 0 1 0 0 
1 12.5 5 0 0 0 1 
1 12.5 16.035533905931153 0 0 -1 0 
1 12.5 16.035533905931153 0 0 -1 0 
1 7.5 5 0 0 0 1 
1 12.5 5 0 -1 0 0 
1 12.5 5 0 -1 0 0 
1 7.5 -5 0 0 0 1 
1 7.5 5 0 0 -1 0 
1 7.5 5 0 0 -1 0 
1 12.5 -5 0 0 0 1 
1 7.5 -5 0 1 0 0 
1 7.5 -5 0 1 0 0 
1 12.5 -10 0 0 0 1 
1 12.5 -5 0 0 -1 0 
1 12.5 -5 0 0 -1 0 
1 1.5 -10 0 0 0 1 
1 12.5 -10 0 -1 0 0 
1 12.5 -10 0 -1 0 0 
1 -1.5 -9.9999999999999964 0 0 0 1 
2 0 -10 0 0 0 1 1 0 -0 -0 1 0 1.5
2 0 -10 0 0 0 1 1 0 -0 -0 1 0 1.5
1 -1.5 -9.9999999999999964 0 -1 0 0 
1 -1.5 -9.9999999999999964 0 -1 0 0 
Polygon3D 0
PolygonOnTriangulations 120
2 1 2 
p 0.0926184463531091 1 0 1 
2 3 4 
p 0.0926184463531091 1 0 1 
2 3 4 
p 0.0926184463531091 1 0 1 
2 1 2 
p 0.0926184463531091 1 0 1 
2 1 3 
p 0.0926184463531091 1 0 7.5 
2 1 2 
p 0.0926184463531091 1 0 7.5 
2 2 4 
p 0.0926184463531091 1 0 7.5 
2 1 2 
p 0.0926184463531091 1 0 7.5 
2 3 4 
p 0.0926184463531091 1 0 1 
2 1 2 
p 0.0926184463531091 1 0 1 
2 1 3 
p 0.0926184463531091 1 0 10 
2 2 3 
p 0.0926184463531091 1 0 10 
2 2 4 
p 0.0926184463531091 1 0 10 
2 2 3 
p 0.0926184463531091 1 0 10 
2 3 4 
p 0.0926184463531091 1 0 1 
2 1 2 
p 0.0926184463531091 1 0 1 
2 1 3 
p 0.0926184463531091 1 0 5 
2 3 4 
p 0.0926184463531091 1 0 5 
2 2 4 
p 0.0926184463531091 1 0 5 
2 3 4 
p 0.0926184463531091 1 0 5 
2 3 4 
p 0.0926184463531091 1 0 1 
2 1 2 
p 0.0926184463531091 1 0 1 
2 1 3 
p 0.0926184463531091 1 0 10 
2 4 5 
p 0.0926184463531091 1 0 10 
2 2 4 
p 0.0926184463531091 1 0 10 
2 4 5 
p 0.0926184463531091 1 0 10 
2 3 4 
p 0.0926184463531091 1 0 1 
2 1 2 
p 0.0926184463531091 1 0 1 
2 1 3 
p 0.0926184463531091 1 0 5 
2 5 6 
p 0.0926184463531091 1 0 5 
2 2 4 
p 0.0926184463531091 1 0 5 
2 5 6 
p 0.0926184463531091 1 0 5 
2 3 4 
p 0.0926184463531091 1 0 1 
2 1 2 
p 0.0926184463531091 1 0 1 
2 1 3 
p 0.0926184463531091 1 0 5 
2 6 7 
p 0.0926184463531091 1 0 5 
2 2 4 
p 0.0926184463531091 1 0 5 
2 6 7 
p 0.0926184463531091 1 0 5 
2 3 4 
p 0.0926184463531091 1 0 1 
2 1 2 
p 0.0926184463531091 1 0 1 
2 1 3 
p 0.0926184463531091 1 0 5 
2 7 8 
p 0.0926184463531091 1 0 5 
2 2 4 
p 0.0926184463531091 1 0 5 
2 7 8 
p 0.0926184463531091 1 0 5 
2 3 4 
p 0.0926184463531091 1 0 1 
2 1 2 
p 0.0926184463531091 1 0 1 
2 1 3 
p 0.0926184463531091 1 0 5 
2 8 9 
p 0.0926184463531091 1 0 5 
2 2 4 
p 0.0926184463531091 1 0 5 
2 8 9 
p 0.0926184463531091 1 0 5 
2 3 4 
p 0.0926184463531091 1 0 1 
2 1 2 
p 0.0926184463531091 1 0 1 
2 1 3 
p 0.0926184463531091 1 0 5 
2 9 10 
p 0.0926184463531091 1 0 5 
2 2 4 
p 0.0926184463531091 1 0 5 
2 9 10 
p 0.0926184463531091 1 0 5 
2 3 4 
p 0.0926184463531091 1 0 1 
2 1 2 
p 0.0926184463531091 1 0 1 
2 1 3 
p 0.0926184463531091 1 0 16.2292435944584 
2 10 11 
p 0.0926184463531091 1 0 16.2292435944584 
2 2 4 
p 0.0926184463531091 1 0 16.2292435944584 
2 10 11 
p 0.0926184463531091 1 0 16.2292435944584 
2 3 4 
p 0.0926184463531091 1 0 1 
2 1 2 
p 0.0926184463531091 1 0 1 
2 1 3 
p 0.0926184463531091 1 0 16.2292435944584 
2 11 12 
p 0.0926184463531091 1 0 16.2292435944584 
2 2 4 
p 0.0926184463531091 1 0 16.2292435944584 
2 11 12 
p 0.0926184463531091 1 0 16.2292435944584 
2 3 4 
p 0.0926184463531091 1 0 1 
2 1 2 
p 0.0926184463531091 1 0 1 
2 1 3 
p 0.0926184463531091 1 0 10 
2 12 13 
p 0.0926184463531091 1 0 10 
2 2 4 
p 0.0926184463531091 1 0 10 
2 12 13 
p 0.0926184463531091 1 0 10 
2 3 4 
p 0.0926184463531091 1 0 1 
2 1 2 
p 0.0926184463531091 1 0 1 
2 1 3 
p 0.0926184463531091 1 0 11.0355339059312 
2 13 14 
p 0.0926184463531091 1 0 11.0355339059312 
2 2 4 
p 0.0926184463531091 1 0 11.0355339059312 
2 13 14 
p 0.0926184463531091 1 0 11.0355339059312 
2 3 4 
p 0.0926184463531091 1 0 1 
2 1 2 
p 0.0926184463531091 1 0 1 
2 1 3 
p 0.0926184463531091 1 0 5 
2 14 15 
p 0.0926184463531091 1 0 5 
2 2 4 
p 0.0926184463531091 1 0 5 
2 14 15 
p 0.0926184463531091 1 0 5 
2 3 4 
p 0.0926184463531091 1 0 1 
2 1 2 
p 0.0926184463531091 1 0 1 
2 1 3 
p 0.0926184463531091 1 0 10 
2 15 16 
p 0.0926184463531091 1 0 10 
2 2 4 
p 0.0926184463531091 1 0 10 
2 15 16 
p 0.0926184463531091 1 0 10 
2 3 4 
p 0.0926184463531091 1 0 1 
2 1 2 
p 0.0926184463531091 1 0 1 
2 1 3 
p 0.0926184463531091 1 0 5 
2 16 17 
p 0.0926184463531091 1 0 5 
2 2 4 
p 0.0926184463531091 1 0 5 
2 16 17 
p 0.0926184463531091 1 0 5 
2 3 4 
p 0.0926184463531091 1 0 1 
2 1 2 
p 0.0926184463531091 1 0 1 
2 1 3 
p 0.0926184463531091 1 0 5 
2 17 18 
p 0.0926184463531091 1 0 5 
2 2 4 
p 0.0926184463531091 1 0 5 
2 17 18 
p 0.0926184463531091 1 0 5 
2 1 2 
p 0.0926184463531091 1 0 1 
2 3 4 
p 0.0926184463531091 1 0 1 
2 1 3 
p 0.0926184463531091 1 0 11 
2 18 19 
p 0.0926184463531091 1 0 11 
2 2 4 
p 0.0926184463531091 1 0 11 
2 18 19 
p 0.0926184463531091 1 0 11 
2 3 4 
p 0.0926184463531091 1 0 1 
2 1 2 
p 0.0926184463531091 1 0 1 
13 1 5 6 7 8 9 10 11 12 13 14 15 3 
p 0.0926184463531091 1 0 0.261799387799149 0.523598775598298 0.785398163397448 1.0471975511966 1.30899693899575 1.5707963267949 1.83259571459404 2.09439510239319 2.35619449019234 2.61799387799149 2.87979326579064 3.14159265358979 
13 19 21 22 23 24 25 26 27 28 29 30 31 20 
p 0.0926184463531091 1 0 0.261799387799149 0.523598775598298 0.785398163397448 1.0471975511966 1.30899693899575 1.5707963267949 1.83259571459404 2.09439510239319 2.35619449019234 2.61799387799149 2.87979326579064 3.14159265358979 
13 2 16 17 18 19 20 21 22 23 24 25 26 4 
p 0.0926184463531091 1 0 0.261799387799149 0.523598775598298 0.785398163397448 1.0471975511966 1.30899693899575 1.5707963267949 1.83259571459404 2.09439510239319 2.35619449019234 2.61799387799149 2.87979326579064 3.14159265358979 
13 19 21 22 23 24 25 26 27 28 29 30 31 20 
p 0.0926184463531091 1 0 0.261799387799149 0.523598775598298 0.785398163397448 1.0471975511966 1.30899693899575 1.5707963267949 1.83259571459404 2.09439510239319 2.35619449019234 2.61799387799149 2.87979326579064 3.14159265358979 
2 1 3 
p 0.0926184463531091 1 0 14.5355339059343 
2 20 1 
p 0.0926184463531091 1 0 14.5355339059343 
2 2 4 
p 0.0926184463531091 1 0 14.5355339059343 
2 20 1 
p 0.0926184463531091 1 0 14.5355339059343 
Surfaces 22
1 -16.035533905934322 -9.9999999999999964 0 -1 0 0 0 1 0 0 0 -1 
1 -1.5 -9.9999999999999964 0 0 -1 0 -1 0 0 -0 -0 -1 
1 -16.035533905934322 -2.5 0 0 1 0 1 0 0 0 0 -1 
1 -16.035533905934322 -9.9999999999999964 0 0 0 1 1 0 -0 -0 1 0 
1 -16.035533905934322 -9.9999999999999964 0 0 0 1 1 0 -0 -0 1 0 
1 -6.035533905934324 -2.5 0 -1 0 0 0 1 0 0 0 -1 
1 -6.035533905934324 2.5 0 0 -1 0 -1 0 0 -0 -0 -1 
1 -16.035533905934322 2.5 0 -1 0 0 0 1 0 0 0 -1 
1 -16.035533905934322 7.5 0 0 1 0 1 0 0 0 0 -1 
1 -11.035533905934322 7.5 0 -0.7071067811862306 0.70710678118686443 0 0.70710678118686443 0.7071067811862306 0 0 0 -1 
1 -7.5 11.035533905931153 0 -1 0 0 0 1 0 0 0 -1 
1 -7.5 16.035533905931153 0 0 1 0 1 0 0 0 0 -1 
1 -2.5 16.035533905931153 0 0.98806415792579838 0.15404291552156202 -0 0.15404291552156202 -0.98806415792579838 0 0 -0 -1 
1 0 0 0 -0.98806415792579838 0.15404291552156202 0 0.15404291552156202 0.98806415792579838 0 0 0 -1 
1 2.5 16.035533905931153 0 0 1 0 1 0 0 0 0 -1 
1 12.5 16.035533905931153 0 1 0 -0 0 -1 0 0 -0 -1 
1 12.5 5 0 0 -1 0 -1 0 0 -0 -0 -1 
1 7.5 5 0 1 0 -0 0 -1 0 0 -0 -1 
1 7.5 -5 0 0 1 0 1 0 0 0 0 -1 
1 12.5 -5 0 1 0 -0 0 -1 0 0 -0 -1 
1 12.5 -10 0 0 -1 0 -1 0 0 -0 -0 -1 
2 0 -10 0 -0 -0 -1 1 0 0 -0 1 -0 1.5
Triangulations 22
4 2 1 0
-16.0355339059343 -10 0 -16.0355339059343 -10 1 -16.0355339059343 -2.5 0 -16.0355339059343 -2.5 1 0 0 0 -1 7.5 0 7.5 -1 3 1 2 3 2 4 
4 2 1 5.55111512312578e-17
-1.5 -10 0 -1.5 -10 1 -16.0355339059343 -10 0 -16.0355339059343 -10 1 0 0 0 -1 14.5355339059343 0 14.5355339059343 -1 3 1 2 3 2 4 
4 2 1 1.11022302462516e-16
-16.0355339059343 -2.5 0 -16.0355339059343 -2.5 1 -6.03553390593432 -2.5 0 -6.03553390593432 -2.5 1 0 0 0 -1 10 0 10 -1 4 1 2 3 1 4 
31 29 1 1.21165843082444e-15
-16.0355339059343 -10 0 -16.0355339059343 -2.5 0 -6.03553390593432 -2.5 0 -6.03553390593432 2.5 0 -16.0355339059343 2.5 0 -16.0355339059343 7.5 0 -11.0355339059343 7.5 0 -7.5 11.0355339059312 0 -7.5 16.0355339059312 0 -2.5 16.0355339059312 0 0 0 0 2.5 16.0355339059312 0 12.5 16.0355339059312 0 12.5 5 0 7.5 5 0 7.5 -5 0 12.5 -5 0 12.5 -10 0 1.5 -10 0 -1.5 -10 0 1.4488887394336 -9.61177143234622 0 1.29903810567666 -9.25 0 1.06066017177982 -8.93933982822018 0 0.750000000000001 -8.70096189432334 0 0.388228567653783 -8.5511112605664 0 2.42331686164888e-15 -8.5 0 -0.388228567653778 -8.5511112605664 0 -0.749999999999997 -8.70096189432334 0 -1.06066017177982 -8.93933982822018 0 -1.29903810567666 -9.25 0 -1.4488887394336 -9.61177143234621 0 0 0 0 7.5 10 7.5 10 12.5 0 12.5 0 17.5 5 17.5 8.53553390593432 21.0355339059311 8.53553390593432 26.0355339059311 13.5355339059343 26.0355339059311 16.0355339059343 10 18.5355339059343 26.0355339059311 28.5355339059343 26.0355339059311 28.5355339059343 15 23.5355339059343 15 23.5355339059343 5 28.5355339059343 5 28.5355339059343 -3.5527136788005e-15 17.5355339059343 -3.55e-15 14.5355339059343 1.29663372329776e-15 17.4844226453679 0.388228567653777 17.334572011611 0.749999999999996 17.0961940777141 1.06066017177982 16.7855339059343 1.29903810567665 16.4237624735881 1.4488887394336 16.0355339059343 1.5 15.6473053382805 1.4488887394336 15.2855339059343 1.29903810567666 14.9748737341545 1.06066017177982 14.7364958002577 0.75 14.5866451665007 0.388228567653782 3 2 1 3 28 27 3 29 28 3 30 29 3 31 30 3 20 31 3 1 20 7 5 4 7 6 5 11 4 3 11 25 24 11 26 25 11 27 26 11 3 27 16 19 18 16 21 19 16 22 21 16 23 22 16 24 23 16 11 24 8 4 11 8 7 4 17 16 18 15 11 16 10 9 8 13 15 14 13 12 15 11 10 8 12 11 15 
31 29 1 1.21165843082444e-15
-16.0355339059343 -10 0 -16.0355339059343 -2.5 0 -6.03553390593432 -2.5 0 -6.03553390593432 2.5 0 -16.0355339059343 2.5 0 -16.0355339059343 7.5 0 -11.0355339059343 7.5 0 -7.5 11.0355339059312 0 -7.5 16.0355339059312 0 -2.5 16.0355339059312 0 0 0 0 2.5 16.0355339059312 0 12.5 16.0355339059312 0 12.5 5 0 7.5 5 0 7.5 -5 0 12.5 -5 0 12.5 -10 0 1.5 -10 0 -1.5 -10 0 1.4488887394336 -9.61177143234622 0 1.29903810567666 -9.25 0 1.06066017177982 -8.93933982822018 0 0.750000000000001 -8.70096189432334 0 0.388228567653783 -8.5511112605664 0 2.42331686164888e-15 -8.5 0 -0.388228567653778 -8.5511112605664 0 -0.749999999999997 -8.70096189432334 0 -1.06066017177982 -8.93933982822018 0 -1.29903810567666 -9.25 0 -1.4488887394336 -9.61177143234621 0 0 0 0 7.5 10 7.5 10 12.5 0 12.5 0 17.5 5 17.5 8.53553390593432 21.0355339059311 8.53553390593432 26.0355339059311 13.5355339059343 26.0355339059311 16.0355339059343 10 18.5355339059343 26.0355339059311 28.5355339059343 26.0355339059311 28.5355339059343 15 23.5355339059343 15 23.5355339059343 5 28.5355339059343 5 28.5355339059343 -3.5527136788005e-15 17.5355339059343 -3.55e-15 14.5355339059343 1.29663372329776e-15 17.4844226453679 0.388228567653777 17.334572011611 0.749999999999996 17.0961940777141 1.06066017177982 16.7855339059343 1.29903810567665 16.4237624735881 1.4488887394336 16.0355339059343 1.5 15.6473053382805 1.4488887394336 15.2855339059343 1.29903810567666 14.9748737341545 1.06066017177982 14.7364958002577 0.75 14.5866451665007 0.388228567653782 3 2 1 3 28 27 3 29 28 3 30 29 3 31 30 3 20 31 3 1 20 7 5 4 7 6 5 11 4 3 11 25 24 11 26 25 11 27 26 11 3 27 16 19 18 16 21 19 16 22 21 16 23 22 16 24 23 16 11 24 8 4 11 8 7 4 17 16 18 15 11 16 10 9 8 13 15 14 13 12 15 11 10 8 12 11 15 
4 2 1 0
-6.03553390593432 -2.5 0 -6.03553390593432 -2.5 1 -6.03553390593432 2.5 0 -6.03553390593432 2.5 1 0 0 0 -1 5 0 5 -1 4 1 2 3 1 4 
4 2 1 5.55111512312578e-17
-6.03553390593432 2.5 0 -6.03553390593432 2.5 1 -16.0355339059343 2.5 0 -16.0355339059343 2.5 1 0 0 0 -1 10 0 10 -1 4 1 2 3 1 4 
4 2 1 0
-16.0355339059343 2.5 0 -16.0355339059343 2.5 1 -16.0355339059343 7.5 0 -16.0355339059343 7.5 1 0 0 0 -1 5 0 5 -1 4 1 2 3 1 4 
4 2 1 0
-16.0355339059343 7.5 0 -16.0355339059343 7.5 1 -11.0355339059343 7.5 0 -11.0355339059343 7.5 1 0 0 0 -1 5 0 5 -1 4 1 2 3 1 4 
4 2 1 8.88178419700125e-16
-11.0355339059343 7.5 0 -11.0355339059343 7.5 1 -7.5 11.0355339059312 0 -7.5 11.0355339059312 1 0 0 0 -1 5 0 5 -1 3 1 2 3 2 4 
4 2 1 0
-7.5 11.0355339059312 0 -7.5 11.0355339059312 1 -7.5 16.0355339059312 0 -7.5 16.0355339059312 1 0 0 0 -1 5 0 5 -1 4 1 2 3 1 4 
4 2 1 0
-7.5 16.0355339059312 0 -7.5 16.0355339059312 1 -2.5 16.0355339059312 0 -2.5 16.0355339059312 1 0 0 0 -1 5 0 5 -1 4 1 2 3 1 4 
4 2 1 2.4980018054066e-16
-2.5 16.0355339059312 0 -2.5 16.0355339059312 1 0 0 0 0 0 1 0 0 0 -1 16.2292435944584 0 16.2292435944584 -1 3 1 2 3 2 4 
4 2 1 2.4980018054066e-16
0 0 0 0 0 1 2.5 16.0355339059312 0 2.5 16.0355339059312 1 0 0 0 -1 16.2292435944584 0 16.2292435944584 -1 3 1 2 3 2 4 
4 2 1 0
2.5 16.0355339059312 0 2.5 16.0355339059312 1 12.5 16.0355339059312 0 12.5 16.0355339059312 1 0 0 0 -1 10 0 10 -1 3 1 2 3 2 4 
4 2 1 0
12.5 16.0355339059312 0 12.5 16.0355339059312 1 12.5 5 0 12.5 5 1 0 0 0 -1 11.0355339059312 0 11.0355339059312 -1 3 1 2 3 2 4 
4 2 1 0
12.5 5 0 12.5 5 1 7.5 5 0 7.5 5 1 0 0 0 -1 5 0 5 -1 4 1 2 3 1 4 
4 2 1 0
7.5 5 0 7.5 5 1 7.5 -5 0 7.5 -5 1 0 0 0 -1 10 0 10 -1 3 1 2 3 2 4 
4 2 1 0
7.5 -5 0 7.5 -5 1 12.5 -5 0 12.5 -5 1 0 0 0 -1 5 0 5 -1 4 1 2 3 1 4 
4 2 1 0
12.5 -5 0 12.5 -5 1 12.5 -10 0 12.5 -10 1 0 0 0 -1 5 0 5 -1 4 1 2 3 1 4 
4 2 1 0
12.5 -10 0 12.5 -10 1 1.5 -10 0 1.5 -10 1 0 0 0 -1 11 0 11 -1 3 1 2 3 2 4 
26 24 1 0.0128327079392851
1.5 -10 0 1.5 -10 1 -1.5 -10 0 -1.5 -10 1 1.4488887394336 -9.61177143234622 0 1.29903810567666 -9.25 0 1.06066017177982 -8.93933982822018 0 0.750000000000001 -8.70096189432334 0 0.388228567653783 -8.5511112605664 0 2.42331686164888e-15 -8.5 0 -0.388228567653778 -8.5511112605664 0 -0.749999999999997 -8.70096189432334 0 -1.06066017177982 -8.93933982822018 0 -1.29903810567666 -9.25 0 -1.4488887394336 -9.61177143234621 0 1.4488887394336 -9.61177143234622 1 1.29903810567666 -9.25 1 1.06066017177982 -8.93933982822018 1 0.750000000000001 -8.70096189432334 1 0.388228567653783 -8.5511112605664 1 2.42331686164888e-15 -8.5 1 -0.388228567653778 -8.5511112605664 1 -0.749999999999997 -8.70096189432334 1 -1.06066017177982 -8.93933982822018 1 -1.29903810567666 -9.25 1 -1.4488887394336 -9.61177143234621 1 0 0 0 -1 3.14159265358979 0 3.14159265358979 -1 0.261799387799149 0 0.523598775598298 0 0.785398163397448 0 1.0471975511966 0 1.30899693899575 0 1.5707963267949 0 1.83259571459404 0 2.09439510239319 0 2.35619449019234 0 2.61799387799149 0 2.87979326579064 0 0.261799387799149 -1 0.523598775598298 -1 0.785398163397448 -1 1.0471975511966 -1 1.30899693899575 -1 1.5707963267949 -1 1.83259571459404 -1 2.09439510239319 -1 2.35619449019234 -1 2.61799387799149 -1 2.87979326579064 -1 5 1 2 5 2 16 6 16 17 6 17 18 6 5 16 7 6 18 8 18 19 8 19 20 8 7 18 9 20 21 9 8 20 10 9 21 11 21 22 11 22 23 11 10 21 12 11 23 13 23 24 13 12 23 14 24 25 14 25 26 14 13 24 15 14 26 3 26 4 3 15 26 

TShapes 147
Ve
1e-07
-16.0355339059343 -10 0
0 0

0101101
*
Ve
1e-07
-16.0355339059343 -10 1
0 0

0101101
*
Ed
 1e-07 1 1 0
1  1 0 0 1
2  1 1 0 0 1
2  2 2 0 0 1
6  1 1 0
6  2 2 0
0

0101000
+147 2 -146 2 *
Ve
1e-07
-16.0355339059343 -2.5 0
0 0

0101101
*
Ve
1e-07
-16.0355339059343 -2.5 1
0 0

0101101
*
Ed
 1e-07 1 1 0
1  2 0 0 1
2  3 1 0 0 1
2  4 3 0 0 1
6  3 1 0
6  4 3 0
0

0101000
+144 2 -143 2 *
Ed
 1e-07 1 1 0
1  3 0 0 7.5
2  5 1 6 0 7.5
2  6 4 7 0 7.5
6  5 1 6
6  6 4 7
0

0101000
+147 8 -144 8 *
Ed
 1e-07 1 1 0
1  4 0 0 7.5
2  7 1 11 0 7.5
2  8 5 7 0 7.5
6  7 1 11
6  8 5 7
0

0101000
+146 12 -143 12 *
Wi

0101000
+145 0 -142 0 -141 5 +140 10 *
Fa
0  1e-07 1 0
2  1
0101000
+139 0 *
Ve
1e-07
-6.03553390593432 -2.5 0
0 0

0101101
*
Ve
1e-07
-6.03553390593432 -2.5 1
0 0

0101101
*
Ed
 1e-07 1 1 0
1  5 0 0 1
2  9 3 0 0 1
2  10 6 0 0 1
6  9 3 0
6  10 6 0
0

0101000
+137 2 -136 2 *
Ed
 1e-07 1 1 0
1  6 0 0 10
2  11 3 6 0 10
2  12 4 7 0 10
6  11 3 6
6  12 4 7
0

0101000
+144 8 -137 8 *
Ed
 1e-07 1 1 0
1  7 0 0 10
2  13 3 11 0 10
2  14 5 7 0 10
6  13 3 11
6  14 5 7
0

0101000
+143 12 -136 12 *
Wi

0101000
+142 0 -135 0 -134 5 +133 10 *
Fa
0  1e-07 3 0
2  3
0101000
+132 0 *
Ve
1e-07
-6.03553390593432 2.5 0
0 0

0101101
*
Ve
1e-07
-6.03553390593432 2.5 1
0 0

0101101
*
Ed
 1e-07 1 1 0
1  8 0 0 1
2  15 6 0 0 1
2  16 7 0 0 1
6  15 6 0
6  16 7 0
0

0101000
+130 2 -129 2 *
Ed
 1e-07 1 1 0
1  9 0 0 5
2  17 6 6 0 5
2  18 4 7 0 5
6  17 6 6
6  18 4 7
0

0101000
+137 8 -130 8 *
Ed
 1e-07 1 1 0
1  10 0 0 5
2  19 6 11 0 5
2  20 5 7 0 5
6  19 6 11
6  20 5 7
0

0101000
+136 12 -129 12 *
Wi

0101000
+135 0 -128 0 -127 5 +126 10 *
Fa
0  1e-07 6 0
2  6
0101000
+125 0 *
Ve
1e-07
-16.0355339059343 2.5 0
0 0

0101101
*
Ve
1e-07
-16.0355339059343 2.5 1
0 0

0101101
*
Ed
 1e-07 1 1 0
1  11 0 0 1
2  21 7 0 0 1
2  22 8 0 0 1
6  21 7 0
6  22 8 0
0

0101000
+123 2 -122 2 *
Ed
 1e-07 1 1 0
1  12 0 0 10
2  23 7 6 0 10
2  24 4 7 0 10
6  23 7 6
6  24 4 7
0

0101000
+130 8 -123 8 *
Ed
 1e-07 1 1 0
1  13 0 0 10
2  25 7 11 0 10
2  26 5 7 0 10
6  25 7 11
6  26 5 7
0

0101000
+129 12 -122 12 *
Wi

0101000
+128 0 -121 0 -120 5 +119 10 *
Fa
0  1e-07 7 0
2  7
0101000
+118 0 *
Ve
1e-07
-16.0355339059343 7.5 0
0 0

0101101
*
Ve
1e-07
-16.0355339059343 7.5 1
0 0

0101101
*
Ed
 1e-07 1 1 0
1  14 0 0 1
2  27 8 0 0 1
2  28 9 0 0 1
6  27 8 0
6  28 9 0
0

0101000
+116 2 -115 2 *
Ed
 1e-07 1 1 0
1  15 0 0 5
2  29 8 6 0 5
2  30 4 7 0 5
6  29 8 6
6  30 4 7
0

0101000
+123 8 -116 8 *
Ed
 1e-07 1 1 0
1  16 0 0 5
2  31 8 11 0 5
2  32 5 7 0 5
6  31 8 11
6  32 5 7
0

0101000
+122 12 -115 12 *
Wi

0101000
+121 0 -114 0 -113 5 +112 10 *
Fa
0  1e-07 8 0
2  8
0101000
+111 0 *
Ve
1e-07
-11.0355339059343 7.5 0
0 0

0101101
*
Ve
1e-07
-11.0355339059343 7.5 1
0 0

0101101
*
Ed
 1e-07 1 1 0
1  17 0 0 1
2  33 9 0 0 1
2  34 10 0 0 1
6  33 9 0
6  34 10 0
0

0101000
+109 2 -108 2 *
Ed
 1e-07 1 1 0
1  18 0 0 5
2  35 9 6 0 5
2  36 4 7 0 5
6  35 9 6
6  36 4 7
0

0101000
+116 8 -109 8 *
Ed
 1e-07 1 1 0
1  19 0 0 5
2  37 9 11 0 5
2  38 5 7 0 5
6  37 9 11
6  38 5 7
0

0101000
+115 12 -108 12 *
Wi

0101000
+114 0 -107 0 -106 5 +105 10 *
Fa
0  1e-07 9 0
2  9
0101000
+104 0 *
Ve
1e-07
-7.5 11.0355339059312 0
0 0

0101101
*
Ve
1e-07
-7.5 11.0355339059312 1
0 0

0101101
*
Ed
 1e-07 1 1 0
1  20 0 0 1
2  39 10 0 0 1
2  40 11 0 0 1
6  39 10 0
6  40 11 0
0

0101000
+102 2 -101 2 *
Ed
 1e-07 1 1 0
1  21 0 0 5
2  41 10 6 0 5
2  42 4 7 0 5
6  41 10 6
6  42 4 7
0

0101000
+109 8 -102 8 *
Ed
 1e-07 1 1 0
1  22 0 0 5
2  43 10 11 0 5
2  44 5 7 0 5
6  43 10 11
6  44 5 7
0

0101000
+108 12 -101 12 *
Wi

0101000
+107 0 -100 0 -99 5 +98 10 *
Fa
0  1e-07 10 0
2  10
0101000
+97 0 *
Ve
1e-07
-7.5 16.0355339059312 0
0 0

0101101
*
Ve
1e-07
-7.5 16.0355339059312 1
0 0

0101101
*
Ed
 1e-07 1 1 0
1  23 0 0 1
2  45 11 0 0 1
2  46 12 0 0 1
6  45 11 0
6  46 12 0
0

0101000
+95 2 -94 2 *
Ed
 1e-07 1 1 0
1  24 0 0 5
2  47 11 6 0 5
2  48 4 7 0 5
6  47 11 6
6  48 4 7
0

0101000
+102 8 -95 8 *
Ed
 1e-07 1 1 0
1  25 0 0 5
2  49 11 11 0 5
2  50 5 7 0 5
6  49 11 11
6  50 5 7
0

0101000
+101 12 -94 12 *
Wi

0101000
+100 0 -93 0 -92 5 +91 10 *
Fa
0  1e-07 11 0
2  11
0101000
+90 0 *
Ve
1e-07
-2.5 16.0355339059312 0
0 0

0101101
*
Ve
1e-07
-2.5 16.0355339059312 1
0 0

0101101
*
Ed
 1e-07 1 1 0
1  26 0 0 1
2  51 12 0 0 1
2  52 13 0 0 1
6  51 12 0
6  52 13 0
0

0101000
+88 2 -87 2 *
Ed
 1e-07 1 1 0
1  27 0 0 5
2  53 12 6 0 5
2  54 4 7 0 5
6  53 12 6
6  54 4 7
0

0101000
+95 8 -88 8 *
Ed
 1e-07 1 1 0
1  28 0 0 5
2  55 12 11 0 5
2  56 5 7 0 5
6  55 12 11
6  56 5 7
0

0101000
+94 12 -87 12 *
Wi

0101000
+93 0 -86 0 -85 5 +84 10 *
Fa
0  1e-07 12 0
2  12
0101000
+83 0 *
Ve
1e-07
0 0 0
0 0

0101101
*
Ve
1e-07
0 0 1
0 0

0101101
*
Ed
 1e-07 1 1 0
1  29 0 0 1
2  57 13 0 0 1
2  58 14 0 0 1
6  57 13 0
6  58 14 0
0

0101000
+81 2 -80 2 *
Ed
 1e-07 1 1 0
1  30 0 0 16.2292435944584
2  59 13 6 0 16.2292435944584
2  60 4 7 0 16.2292435944584
6  59 13 6
6  60 4 7
0

0101000
+88 8 -81 8 *
Ed
 1e-07 1 1 0
1  31 0 0 16.2292435944584
2  61 13 11 0 16.2292435944584
2  62 5 7 0 16.2292435944584
6  61 13 11
6  62 5 7
0

0101000
+87 12 -80 12 *
Wi

0101000
+86 0 -79 0 -78 5 +77 10 *
Fa
0  1e-07 13 0
2  13
0101000
+76 0 *
Ve
1e-07
2.5 16.0355339059312 0
0 0

0101101
*
Ve
1e-07
2.5 16.0355339059312 1
0 0

0101101
*
Ed
 1e-07 1 1 0
1  32 0 0 1
2  63 14 0 0 1
2  64 15 0 0 1
6  63 14 0
6  64 15 0
0

0101000
+74 2 -73 2 *
Ed
 1e-07 1 1 0
1  33 0 0 16.2292435944584
2  65 14 6 0 16.2292435944584
2  66 4 7 0 16.2292435944584
6  65 14 6
6  66 4 7
0

0101000
+81 8 -74 8 *
Ed
 1e-07 1 1 0
1  34 0 0 16.2292435944584
2  67 14 11 0 16.2292435944584
2  68 5 7 0 16.2292435944584
6  67 14 11
6  68 5 7
0

0101000
+80 12 -73 12 *
Wi

0101000
+79 0 -72 0 -71 5 +70 10 *
Fa
0  1e-07 14 0
2  14
0101000
+69 0 *
Ve
1e-07
12.5 16.0355339059312 0
0 0

0101101
*
Ve
1e-07
12.5 16.0355339059312 1
0 0

0101101
*
Ed
 1e-07 1 1 0
1  35 0 0 1
2  69 15 0 0 1
2  70 16 0 0 1
6  69 15 0
6  70 16 0
0

0101000
+67 2 -66 2 *
Ed
 1e-07 1 1 0
1  36 0 0 10
2  71 15 6 0 10
2  72 4 7 0 10
6  71 15 6
6  72 4 7
0

0101000
+74 8 -67 8 *
Ed
 1e-07 1 1 0
1  37 0 0 10
2  73 15 11 0 10
2  74 5 7 0 10
6  73 15 11
6  74 5 7
0

0101000
+73 12 -66 12 *
Wi

0101000
+72 0 -65 0 -64 5 +63 10 *
Fa
0  1e-07 15 0
2  15
0101000
+62 0 *
Ve
1e-07
12.5 5 0
0 0

0101101
*
Ve
1e-07
12.5 5 1
0 0

0101101
*
Ed
 1e-07 1 1 0
1  38 0 0 1
2  75 16 0 0 1
2  76 17 0 0 1
6  75 16 0
6  76 17 0
0

0101000
+60 2 -59 2 *
Ed
 1e-07 1 1 0
1  39 0 0 11.0355339059312
2  77 16 6 0 11.0355339059312
2  78 4 7 0 11.0355339059312
6  77 16 6
6  78 4 7
0

0101000
+67 8 -60 8 *
Ed
 1e-07 1 1 0
1  40 0 0 11.0355339059312
2  79 16 11 0 11.0355339059312
2  80 5 7 0 11.0355339059312
6  79 16 11
6  80 5 7
0

0101000
+66 12 -59 12 *
Wi

0101000
+65 0 -58 0 -57 5 +56 10 *
Fa
0  1e-07 16 0
2  16
0101000
+55 0 *
Ve
1e-07
7.5 5 0
0 0

0101101
*
Ve
1e-07
7.5 5 1
0 0

0101101
*
Ed
 1e-07 1 1 0
1  41 0 0 1
2  81 17 0 0 1
2  82 18 0 0 1
6  81 17 0
6  82 18 0
0

0101000
+53 2 -52 2 *
Ed
 1e-07 1 1 0
1  42 0 0 5
2  83 17 6 0 5
2  84 4 7 0 5
6  83 17 6
6  84 4 7
0

0101000
+60 8 -53 8 *
Ed
 1e-07 1 1 0
1  43 0 0 5
2  85 17 11 0 5
2  86 5 7 0 5
6  85 17 11
6  86 5 7
0

0101000
+59 12 -52 12 *
Wi

0101000
+58 0 -51 0 -50 5 +49 10 *
Fa
0  1e-07 17 0
2  17
0101000
+48 0 *
Ve
1e-07
7.5 -5 0
0 0

0101101
*
Ve
1e-07
7.5 -5 1
0 0

0101101
*
Ed
 1e-07 1 1 0
1  44 0 0 1
2  87 18 0 0 1
2  88 19 0 0 1
6  87 18 0
6  88 19 0
0

0101000
+46 2 -45 2 *
Ed
 1e-07 1 1 0
1  45 0 0 10
2  89 18 6 0 10
2  90 4 7 0 10
6  89 18 6
6  90 4 7
0

0101000
+53 8 -46 8 *
Ed
 1e-07 1 1 0
1  46 0 0 10
2  91 18 11 0 10
2  92 5 7 0 10
6  91 18 11
6  92 5 7
0

0101000
+52 12 -45 12 *
Wi

0101000
+51 0 -44 0 -43 5 +42 10 *
Fa
0  1e-07 18 0
2  18
0101000
+41 0 *
Ve
1e-07
12.5 -5 0
0 0

0101101
*
Ve
1e-07
12.5 -5 1
0 0

0101101
*
Ed
 1e-07 1 1 0
1  47 0 0 1
2  93 19 0 0 1
2  94 20 0 0 1
6  93 19 0
6  94 20 0
0

0101000
+39 2 -38 2 *
Ed
 1e-07 1 1 0
1  48 0 0 5
2  95 19 6 0 5
2  96 4 7 0 5
6  95 19 6
6  96 4 7
0

0101000
+46 8 -39 8 *
Ed
 1e-07 1 1 0
1  49 0 0 5
2  97 19 11 0 5
2  98 5 7 0 5
6  97 19 11
6  98 5 7
0

0101000
+45 12 -38 12 *
Wi

0101000
+44 0 -37 0 -36 5 +35 10 *
Fa
0  1e-07 19 0
2  19
0101000
+34 0 *
Ve
1e-07
12.5 -10 0
0 0

0101101
*
Ve
1e-07
12.5 -10 1
0 0

0101101
*
Ed
 1e-07 1 1 0
1  50 0 0 1
2  99 20 0 0 1
2  100 21 0 0 1
6  99 20 0
6  100 21 0
0

0101000
+32 2 -31 2 *
Ed
 1e-07 1 1 0
1  51 0 0 5
2  101 20 6 0 5
2  102 4 7 0 5
6  101 20 6
6  102 4 7
0

0101000
+39 8 -32 8 *
Ed
 1e-07 1 1 0
1  52 0 0 5
2  103 20 11 0 5
2  104 5 7 0 5
6  103 20 11
6  104 5 7
0

0101000
+38 12 -31 12 *
Wi

0101000
+37 0 -30 0 -29 5 +28 10 *
Fa
0  1e-07 20 0
2  20
0101000
+27 0 *
Ve
1e-07
1.5 -10 0
0 0

0101101
*
Ve
1e-07
1.5 -10 1
0 0

0101101
*
Ed
 1e-07 1 1 0
1  53 0 0 1
2  105 21 0 0 1
2  106 22 0 0 1
6  105 22 0
6  106 21 0
0

0101000
+25 2 -24 2 *
Ed
 1e-07 1 1 0
1  54 0 0 11
2  107 21 6 0 11
2  108 4 7 0 11
6  107 21 6
6  108 4 7
0

0101000
+32 8 -25 8 *
Ed
 1e-07 1 1 0
1  55 0 0 11
2  109 21 11 0 11
2  110 5 7 0 11
6  109 21 11
6  110 5 7
0

0101000
+31 12 -24 12 *
Wi

0101000
+30 0 -23 0 -22 5 +21 10 *
Fa
0  1e-07 21 0
2  21
0101000
+20 0 *
Ve
1e-07
-1.5 -10 0
0 0

0101101
*
Ve
1e-07
-1.5 -10 1
0 0

0101101
*
Ed
 1e-07 1 1 0
1  56 0 0 1
2  111 22 0 0 1
2  112 2 0 0 1
6  111 22 0
6  112 2 0
0

0101000
+18 2 -17 2 *
Ed
 1e-07 1 1 0
1  57 0 0 3.14159265358979
2  113 22 6 0 3.14159265358979
2  114 4 7 0 3.14159265358979
6  113 22 6
6  114 4 7
0

0101000
+25 8 -18 8 *
Ed
 1e-07 1 1 0
1  58 0 0 3.14159265358979
2  115 22 11 0 3.14159265358979
2  116 5 7 0 3.14159265358979
6  115 22 11
6  116 5 7
0

0101000
+24 12 -17 12 *
Wi

0101000
+23 0 -16 0 -15 5 +14 10 *
Fa
0  1e-07 22 0
2  22
0101000
+13 0 *
Ed
 1e-07 1 1 0
1  59 0 0 14.5355339059343
2  117 2 6 0 14.5355339059343
2  118 4 7 0 14.5355339059343
6  117 2 6
6  118 4 7
0

0101000
+18 8 -147 8 *
Ed
 1e-07 1 1 0
1  60 0 0 14.5355339059343
2  119 2 11 0 14.5355339059343
2  120 5 7 0 14.5355339059343
6  119 2 11
6  120 5 7
0

0101000
+17 12 -146 12 *
Wi

0101000
+16 0 -145 0 -11 5 +10 10 *
Fa
0  1e-07 2 0
2  2
0101000
+9 0 *
Wi

0101100
+141 0 +134 0 +127 0 +120 0 +113 0 +106 0 +99 0 +92 0 +85 0 +78 0 
+71 0 +64 0 +57 0 +50 0 +43 0 +36 0 +29 0 +22 0 +15 0 +11 0 
*
Fa
0  1e-07 4 0
2  4
0101000
-7 3 *
Wi

0101100
+140 0 +133 0 +126 0 +119 0 +112 0 +105 0 +98 0 +91 0 +84 0 +77 0 
+70 0 +63 0 +56 0 +49 0 +42 0 +35 0 +28 0 +21 0 +14 0 +10 0 
*
Fa
0  1e-07 5 0
2  5
0101000
-5 3 *
Sh

0101100
-138 0 -131 0 -124 0 -117 0 -110 0 -103 0 -96 0 -89 0 -82 0 -75 0 
-68 0 -61 0 -54 0 -47 0 -40 0 -33 0 -26 0 -19 0 -12 0 -8 0 
+6 13 -4 14 *
So

0100100
-3 0 *
Co

1100000
+2 1 *

+1 0 