DBRep_DrawableShape

CASCADE Topology V1, (c) Matra-Datavision
Locations 42
1
              1               0               0               0 
              0               1               0               0 
              0               0               1               0 
1
              1               0               0               0 
              0               1               0               0 
              0               0               1               0 
2  2 -1 0
1
              1               0               0               0 
              0               1               0               0 
              0               0               1               0 
1
              1               0               0               0 
              0               1               0               0 
              0               0               1               0 
2  4 1 5 1 2 1 0
1
0.866025403784439            -0.5               0               0 
            0.5 0.866025403784439               0               0 
              0               0               1               0 
1
              1               0               0               0 
              0               1               0               0 
              0               0               1               0 
2  7 1 8 1 0
2  5 -1 4 -1 0
2  7 1 8 1 4 1 5 1 0
2  8 -1 7 -1 0
2  5 -1 4 -1 8 -1 7 -1 0
2  4 -1 8 -1 7 -1 0
2  4 1 5 1 0
2  2 -1 5 -1 4 -1 8 -1 7 -1 0
1
              1               0               0               0 
              0               1               0               0 
              0               0               1               0 
2  17 1 7 -1 0
1
0.965925826289068 -0.258819045102521               0               0 
0.258819045102521 0.965925826289068               0               0 
              0               0               1              10 
2  19 1 4 1 5 1 0
2  7 1 8 1 19 -1 0
2  19 -1 0
2  4 -1 19 -1 0
2  7 1 8 1 4 1 5 1 2 1 0
2  4 -1 0
2  17 1 8 1 0
2  17 1 8 1 4 1 0
2  8 -1 17 -1 0
2  4 -1 8 -1 17 -1 0
2  2 -1 5 -1 4 -1 8 -1 17 -1 0
2  7 1 8 1 4 1 0
2  2 -1 5 -1 4 -1 19 -1 0
2  8 1 4 1 5 1 0
2  8 -1 0
2  4 -1 8 -1 0
2  2 -1 5 -1 4 -1 0
2  17 1 8 1 4 1 5 1 2 1 0
2  5 1 2 1 0
2  2 -1 5 -1 0
2  8 1 4 1 0
2  19 1 4 1 0
2  19 1 4 1 5 1 2 1 0
Curve2ds 89
1 0 -70 1 0 
1 0 0 1 0 
1 0 0 0 1 
1 25.000000000000011 -5.9496672573349656e-17 0 -1 
1 0 0 0 -1 
1 0 0 0 1 
1 0 0 1 0 
1 0 0 1 0 
1 0 0 1 0 
1 0 0 1 0 
1 10 0 1 0 
1 0 0 1 0 
1 0 -70 1 0 
1 0 100 1 0 
1 0 0 0 1 
1 25.000000000000011 7.1054273576010019e-15 0 1 
1 0 70 1 0 
1 0 0 0 1 
1 0 0 1 0 
2 25.000000000000011 5 0 -1 1 0 5
1 1.5707963267948966 0 0 1 
1 5 0 0 1 
7 0 0  8 9 2  -6.6100297432205664e-17 70.000000000000028  0.19634954159936213 69.999999999018286  0.3926990821983054 69.779696118588618  0.58904862279496228 69.339090230525471  0.78539816339798563 68.696293752407655  0.98174770399509725 67.887566306919325  1.1780972445961879 66.96349564382399  1.3744467851955344 65.981747707996846  1.5707963267948966 65.000000000000085 
 0 9 1.5707963267948966 9
7 0 0  8 9 2  -6.610029453707352e-17 -3.5552136764144148e-15  0.19634954159936213 9.8174415028313156e-10  0.39269908219841909 0.22030388133498491  0.58904862279769077 0.66090976949999458  0.78539816339707613 1.3037062475468701  0.98174770399373301 2.1124336931297876  1.1780972445960742 3.0365043561300809  1.3744467851955366 4.0182522920031856  1.5707963267948988 4.9999999999999929 
 0 9 1.5707963267948966 9
1 30 0 0 1 
1 0 0 1 0 
1 0 0 1 0 
1 0 100 1 0 
8 -10 110
1 20 0 0 1 
8 -10 110
1 0 0 0.96592582628906831 0.25881904510252074 
1 0 0 1 0 
1 0 100 1 0 
1 2.9582283945787943e-31 31.819805153394658 0 1 
1 30.650000000000002 75.649999999999977 0.70710678118654724 -0.70710678118654779 
1 0 0 0 1 
1 0 0 1 0 
1 10 0 0 1 
1 0 0 1 0 
1 0 0 0 -1 
1 0 0 0 1 
1 10 0 0 -1 
1 0 0 0 1 
1 0 -70 1 0 
1 0 0 1 0 
1 30 0 0 -1 
1 100 0 0 1 
1 0 100.00000000000001 1 0 
2 25.000000000000011 -65.000000000000028 0 -1 1 0 5
8 -52.92134664846413 7
1 20 0 0 1 
8 -52.92134664846413 7
1 96.59258262890684 25.881904510252067 0.25881904510252074 -0.96592582628906831 
1 0 0 0 -1 
1 100 0 0 1 
8 4 16
1 5 -45.674413385593546 1 0 
8 4 16
1 -5 84.771174570829743 1 0 
8 -11 1
1 0 75.055534994651353 -1 0 
8 -11 1
1 0 -23.094010767585043 -1 0 
8 -52.92134664846413 7
1 10 0 0 1 
8 -52.92134664846413 7
1 96.59258262890684 25.881904510252067 0.25881904510252074 -0.96592582628906831 
1 1.5707963267948966 0 0 1 
1 3.5527136788005009e-15 65.000000000000043 1 0 
1 10 0 0 1 
1 0 70 1 0 
1 0 -2.6162950903902242 1 0 
1 6.2999999999999998 0 0 -1 
1 0 0 0 -1 
1 100 0 0 1 
1 0 0 0 1 
7 0 0  1 2 2  6.2999999999999998 -25.803507231117145  6.2999999999999998 -26.973837746744422 
 25.803507231117148 2 26.973837746744426 2
1 0 -70 1 0 
1 0 100 1 0 
1 0 -2.6162950903902242 1 0 
1 6.2999999999999998 0 0 -1 
1 0 2.6162950903902384 1 0 
1 96.299999999999997 0 0 1 
8 -2.6162950903902242 2.6162950903902384
1 25.803507231117113 0 0 1 
8 -2.6162950903902242 2.6162950903902384
7 0 0  1 2 2  0 25.803507231117148  1.1703305156272776 25.803507231117148 
 -2.6162950903902242 2 2.6162950903902384 2
1 0 70 1 0 
1 0 0 0 1 
1 70 31.819805153394658 0 1 
1 30.650000000000002 75.649999999999977 0.70710678118654724 -0.70710678118654779 
1 0 0 0 1 
1 0 70 1 0 
1 10 0 0 1 
1 1.1703305156272776 0 0 1 
7 0 0  1 2 2  99.697096173491019 -3.5527136788005009e-15  100 1.1304524703385923 
 25.803507231117148 2 26.973837746744426 2
8 0 1.1703305156272776
7 0 0  1 2 2  26.973837746744426 -2.6162950903902242  26.973837746744426 2.6162950903902384 
 0 2 1.1703305156272776 2
8 0 1.1703305156272776
1 0 26.973837746744426 1 0 
1 0 2.6162950903902384 1 0 
1 96.299999999999997 0 0 1 
Curves 45
1 0 70 0 0 0 1 
1 -8.8817841970012523e-16 -4.4408920985006262e-16 25.000000000000011 -0.49999999999999989 0.86602540378443882 0 
1 0 0 0 -0 1 0 
1 0 0 0 0 0 1 
1 0 0 0 0 0 1 
1 0 0 0 0 0 1 
1 100 70 0 0 0 1 
1 -35 60.621778264910745 25.000000000000011 0.86602540378443882 0.49999999999999989 0 
1 0 70 0 1 0 -0 
8 7.127078414416857e-16 1.5707963267948968
2 4.3301270189221936 2.4999999999999991 25.000000000000011 -0.49999999999999989 0.86602540378443882 0 -0.86602540378443882 -0.49999999999999989 0 0 0 1 5
1 4.3301270189221936 2.4999999999999991 30.000000000000011 -0.49999999999999989 0.86602540378443882 0 
8 0 1.5707963267948966
3 -28.169872981077805 58.791651245988533 25.000000000000011 0.25881904510252096 0.96592582628906831 0 -0.96592582628906831 0.25881904510252096 0 0 -0 1 7.0710678118654755 5
1 0 0 30 1 0 -0 
1 100 0 0 0 0 1 
1 0 0 20 0.86602540378443871 0.49999999999999994 -0 
1 100 0 0 0 0 1 
8 -34.436100243784878 -29.203510063004423
1 75.649999999999977 0 30.650000000000002 -0.70710678118654779 0 0.70710678118654724 
1 0 0 0 1 0 -0 
1 0 0 10 1 0 -0 
1 0 0 0 -0 1 0 
1 0 0 10 -0 1 0 
1 0 70 0 0 0 1 
1 100 0 30 0 1 0 
8 2.8113205889224823e-15 1.5707963267948981
2 54.102540378443877 106.29165124598853 25.000000000000011 0.86602540378443882 0.49999999999999989 0 -0.49999999999999989 0.86602540378443882 0 0 -0 1 5
1 86.602540378443877 49.999999999999993 20 0.49999999999999994 -0.86602540378443871 0 
1 100 0 0 -0 1 0 
1 63.765333685647107 89.555202294876011 5 0 -0 1 
1 75.055534994651353 70 0 0 0 -1 
1 86.602540378443877 49.999999999999993 10 0.49999999999999994 -0.86602540378443871 0 
1 -32.5 56.291651245988547 30.000000000000011 0.86602540378443882 0.49999999999999989 0 
1 0 70 10 1 0 -0 
1 100 0 6.2999999999999998 0 1 0 
1 100 0 0 -0 1 0 
7 0 0  1 2 2  100 25.803507231117145 6.2999999999999998  100 26.973837746744422 6.2999999999999998 
 25.803507231117148 2 26.973837746744426 2
1 100 70 0 0 0 1 
1 100 0 6.2999999999999998 0 1 0 
1 96.299999999999997 0 10 0 1 0 
1 98.150000000000006 25.803507231117113 8.1500000000000004 -0.70710678118654779 0 0.70710678118654724 
1 0 70 0 1 0 -0 
8 -34.436100243784878 -29.203510063004423
1 75.649999999999977 70 30.650000000000002 -0.70710678118654779 0 0.70710678118654724 
1 0 70 0 1 0 -0 
1 0 70 10 1 0 0 
7 0 0  1 2 2  96.299999999999997 25.803507231117145 10  96.299999999999997 26.973837746744422 10 
 25.803507231117148 2 26.973837746744426 2
7 0 0  1 2 2  100 26.973837746744422 6.2999999999999998  96.299999999999997 26.973837746744422 10 
 0 2 1.1703305156272776 2
1 96.299999999999997 0 10 0 1 0 
Polygon3D 0
PolygonOnTriangulations 92
2 1 2 
p 0.100075997412205 1 0 25 
2 4 3 
p 0.100075997412205 1 0 25 
2 1 8 
p 0.100075997412205 1 -5.94966725733497e-17 70 
2 3 2 
p 0.100075997412205 1 -5.94966725733497e-17 70 
2 4 1 
p 0.100075997412205 1 0 70 
2 1 2 
p 0.100075997412205 1 0 70 
2 5 3 
p 0.100075997412205 1 20 25 
2 10 3 
p 0.100075997412205 1 20 25 
2 4 6 
p 0.100075997412205 1 0 10 
2 4 5 
p 0.100075997412205 1 0 10 
2 6 5 
p 0.100075997412205 1 0 10 
2 1 2 
p 0.100075997412205 1 0 10 
2 1 2 
p 0.100075997412205 1 0 25 
2 10 3 
p 0.100075997412205 1 0 25 
2 1 11 
p 0.100075997412205 1 -7.105427357601e-15 100 
2 3 2 
p 0.100075997412205 1 -7.105427357601e-15 100 
2 4 1 
p 0.100075997412205 1 0 100 
2 2 3 
p 0.100075997412205 1 0 100 
7 1 3 4 5 6 7 2 
p 0.100075997412205 1 7.12707841441686e-16 0.26179938779915 0.523598775598299 0.785398163397449 1.0471975511966 1.30899693899575 1.5707963267949 
7 3 4 5 6 7 8 1 
p 0.100075997412205 1 7.12707841441686e-16 0.26179938779915 0.523598775598299 0.785398163397449 1.0471975511966 1.30899693899575 1.5707963267949 
2 2 9 
p 0.100075997412205 1 -5.94966725733497e-17 65 
2 4 3 
p 0.100075997412205 1 -5.94966725733497e-17 65 
10 8 10 11 12 13 14 15 16 17 9 
p 0.100075997412205 1 0 0.173452269442063 0.346904538884126 0.520356808326188 0.693809077768251 0.867261347210313 1.04071361665238 1.27198330924179 1.42138981801834 1.5707963267949 
10 1 3 4 5 6 7 8 9 10 2 
p 0.100075997412205 1 0 0.173452269442063 0.346904538884126 0.520356808326188 0.693809077768251 0.867261347210313 1.04071361665238 1.27198330924179 1.42138981801834 1.5707963267949 
2 1 2 
p 0.100075997412205 1 5 100 
2 4 1 
p 0.100075997412205 1 5 100 
2 9 1 
p 0.461113070330442 1 20 30 
2 9 2 
p 0.100075997412205 1 20 30 
2 9 1 
p 0.100075997412205 1 20 30 
2 10 9 
p 0.100075997412205 1 0 100 
2 4 3 
p 0.100075997412205 1 0 100 
2 1 2 
p 0.100075997412205 1 0 6.3 
2 1 2 
p 0.100075997412205 1 0 6.3 
2 2 3 
p 0.100075997412205 1 -34.4361002437849 -29.2035100630044 
2 1 2 
p 0.100075997412205 1 -34.4361002437849 -29.2035100630044 
2 4 1 
p 0.100075997412205 1 0 100 
2 1 6 
p 0.100075997412205 1 0 100 
2 5 3 
p 0.100075997412205 1 0 96.3 
2 8 1 
p 0.100075997412205 1 0 96.3 
2 1 3 
p 0.100075997412205 1 0 70 
2 8 7 
p 0.100075997412205 1 0 70 
2 2 4 
p 0.100075997412205 1 0 70 
2 4 1 
p 0.100075997412205 1 0 70 
2 3 4 
p 0.100075997412205 1 0 10 
2 1 4 
p 0.100075997412205 1 0 10 
2 1 2 
p 0.100075997412205 1 0 65 
2 1 2 
p 0.100075997412205 1 0 65 
7 11 13 14 15 16 17 12 
p 0.100075997412205 1 2.81132058892248e-15 0.261799387799152 0.523598775598301 0.78539816339745 1.0471975511966 1.30899693899575 1.5707963267949 
7 3 4 5 6 7 8 2 
p 0.100075997412205 1 2.81132058892248e-15 0.261799387799152 0.523598775598301 0.78539816339745 1.0471975511966 1.30899693899575 1.5707963267949 
2 11 9 
p 0.100075997412205 1 -45.6744133855935 0 
2 2 3 
p 0.100075997412205 1 -45.6744133855935 0 
2 12 10 
p 0.100075997412205 1 23.094010767585 70 
2 4 3 
p 0.100075997412205 1 23.094010767585 70 
2 13 11 
p 0.100075997412205 1 5 15 
2 2 3 
p 0.100075997412205 1 5 15 
2 6 4 
p 0.461588761920621 1 -10 0 
2 14 12 
p 0.100075997412205 1 -10 0 
2 5 4 
p 0.100075997412205 1 -10 0 
2 13 14 
p 0.100075997412205 1 -45.6744133855935 -23.094010767585 
2 6 5 
p 0.100075997412205 1 -45.6744133855935 -23.094010767585 
2 2 12 
p 0.100075997412205 1 4.99999999999999 100 
2 3 2 
p 0.100075997412205 1 4.99999999999999 100 
2 1 2 
p 0.100075997412205 1 0 84.7711745708297 
2 4 3 
p 0.100075997412205 1 0 84.7711745708297 
2 2 3 
p 0.100075997412205 1 0 25.8035072311171 
2 1 3 
p 0.100075997412205 1 0 25.8035072311171 
2 1 4 
p 0.100075997412205 1 0 70 
2 6 5 
p 0.100075997412205 1 0 70 
2 1 3 
p 0.100075997412205 1 25.8035072311171 26.9738377467444 
2 3 5 
p 0.100075997412205 1 25.8035072311171 26.9738377467444 
2 4 6 
p 0.100075997412205 1 0 6.3 
2 1 2 
p 0.100075997412205 1 0 6.3 
2 5 6 
p 0.100075997412205 1 26.9738377467444 70 
2 1 3 
p 0.100075997412205 1 26.9738377467444 70 
2 2 4 
p 0.100075997412205 1 0 25.8035072311171 
2 1 2 
p 0.100075997412205 1 0 25.8035072311171 
2 1 2 
p 0.100075997412205 1 -2.61629509039022 2.61629509039024 
2 3 4 
p 0.100075997412205 1 -2.61629509039022 2.61629509039024 
2 1 2 
p 0.100075997412205 1 0 84.7711745708297 
2 7 6 
p 0.100075997412205 1 0 84.7711745708297 
2 2 3 
p 0.100075997412205 1 -34.4361002437849 -29.2035100630044 
2 3 4 
p 0.100075997412205 1 -34.4361002437849 -29.2035100630044 
2 4 1 
p 0.100075997412205 1 75.0555349946514 100 
2 4 5 
p 0.100075997412205 1 75.0555349946514 100 
2 5 3 
p 0.100075997412205 1 75.0555349946514 96.3 
2 5 4 
p 0.100075997412205 1 75.0555349946514 96.3 
2 2 4 
p 0.100075997412205 1 25.8035072311171 26.9738377467444 
2 2 3 
p 0.100075997412205 1 25.8035072311171 26.9738377467444 
2 3 4 
p 0.100075997412205 1 0 1.17033051562728 
2 1 2 
p 0.100075997412205 1 0 1.17033051562728 
2 2 4 
p 0.100075997412205 1 26.9738377467444 70 
2 3 4 
p 0.100075997412205 1 26.9738377467444 70 
Surfaces 23
1 0 0 0 1 0 -0 0 0 1 0 -1 0 
1 0 70 0 -0 1 0 0 0 1 1 0 -0 
2 4.3301270189221936 2.4999999999999991 25.000000000000011 -0.49999999999999989 0.86602540378443882 0 -0.86602540378443882 -0.49999999999999989 0 0 0 1 5
1 0 0 0 0 0 1 1 0 -0 -0 1 0 
1 0 0 0 -0 1 0 0 0 1 1 0 -0 
1 0 0 0 -0 1 0 0 0 1 1 0 -0 
1 0 0 0 1 0 -0 0 0 1 0 -1 0 
1 100 0 0 1 0 -0 0 0 1 0 -1 0 
2 -32.5 56.291651245988547 25.000000000000011 0.86602540378443882 0.49999999999999989 0 -0.49999999999999989 0.86602540378443882 0 0 -0 1 5
1 0 0 30 0 0 1 1 0 -0 -0 1 0 
1 0 0 10 0 0 1 1 0 -0 -0 1 0 
1 100 0 0 1 0 -0 0 0 1 0 -1 0 
1 98.150000000000006 0 8.1500000000000004 0.70710678118654724 3.1325705503055865e-17 0.70710678118654779 -2.2150618786663543e-17 1 -2.2150618786663558e-17 -0.70710678118654779 0 0.70710678118654724 
1 0 0 0 0 0 1 1 0 -0 -0 1 0 
1 0 0 10 0 0 1 1 0 -0 -0 1 0 
1 0 0 0 0 0 1 1 0 -0 -0 1 0 
1 0 70 0 -0 1 0 0 0 1 1 0 -0 
1 0 70 0 -0 1 0 0 0 1 1 0 -0 
9 0 0 0 0 1 1 2 2 2 2 100 25.803507231117145 6.2999999999999998  100 26.973837746744422 6.2999999999999998  
96.299999999999997 25.803507231117145 10  96.299999999999997 26.973837746744422 10  

0 2
1.1703305156272776 2

25.803507231117148 2
26.973837746744426 2

1 98.150000000000006 0 8.1500000000000004 0.70710678118654724 3.1325705503055865e-17 0.70710678118654779 -2.2150618786663543e-17 1 -2.2150618786663558e-17 -0.70710678118654779 0 0.70710678118654724 
1 0 0 0 0 0 1 1 0 -0 -0 1 0 
1 0 0 0 0 -0 1 1 0 0 -0 1 0 
1 96.299999999999997 0 10 0 0 -1 -1 0 -0 0 1 0 
Triangulations 20
6 4 1 6.8685797790143e-15
-35 60.6217782649107 0 -35 60.6217782649107 25 -8.88178419700125e-16 -4.44089209850063e-16 25 0 0 0 0 0 20 0 0 10 0 -70 25 -70 25 0 0 0 20 0 10 0 6 1 2 6 4 1 5 6 2 3 5 2 
4 2 1 7.37776405560993e-15
100 70 0 100 70 25 0 70 25 -3.5527136788005e-15 70 0 0 100 25 100 25 0 0 0 2 1 4 2 4 3 
17 15 1 0.0334089290708404
-8.88178419700125e-16 -4.44089209850063e-16 25 4.33012701892219 2.5 30 0.147545500233154 0.0851854342773293 26.2940952255126 0.580127018922194 0.334936490538904 27.5 1.26826484044322 0.732233047033632 28.5355339059327 2.1650635094611 1.25 29.3301270189222 3.20940767871213 1.8529523872437 29.8296291314454 -35 60.6217782649107 25 -28.1698729810778 58.7916512459885 30 -34.8975127955347 60.5943169012397 25.8629191915563 -34.5931268576131 60.5127569349862 26.6999418879589 -34.0959769106025 60.3795460081676 27.4859487565833 -33.4209825916132 60.1986818254988 28.197351466954 -32.5884007071705 59.9755921819296 28.8128005844755 -31.6232173196386 59.7169720726925 29.3138262741445 -30.1805669660935 59.3304150754996 29.7784329667074 -29.1865461251673 59.0640679939137 29.944297970063 7.12707841441686e-16 0 1.5707963267949 0 0.26179938779915 0 0.523598775598299 0 0.785398163397449 0 1.0471975511966 0 1.30899693899575 0 0 70 1.5707963267949 65 0.173452269828853 69.9249741562907 0.346904539305952 69.7021481972371 0.52035680862281 69.3382091599501 0.693809077875846 68.8440790197366 0.867261347112239 68.2345867998824 1.04071361636365 67.5280235216623 1.2719833088069 66.4719301468567 1.42138981765805 65.7442564022393 10 1 3 10 8 1 11 3 4 11 10 3 12 11 4 13 4 5 13 12 4 14 5 6 14 13 5 15 14 6 16 6 7 16 15 6 17 7 2 17 16 7 9 17 2 
6 4 1 7.105427357601e-15
0 0 0 -35 60.6217782649107 0 51.6025403784439 110.621778264911 0 75.0555349946514 70 0 100 70 0 100 0 0 0 0 -35 60.6217782649107 51.6025403784439 110.621778264911 75.0555349946513 70 100 70 100 0 4 2 1 4 1 6 3 2 4 5 4 6 
10 8 1 5.19793093488358e-15
4.33012701892219 2.5 30 86.6025403784439 50 30 -8.88178419700125e-16 -4.44089209850063e-16 25 0.147545500233154 0.0851854342773293 26.2940952255126 0.580127018922194 0.334936490538904 27.5 1.26826484044322 0.732233047033632 28.5355339059327 2.1650635094611 1.25 29.3301270189222 3.20940767871213 1.8529523872437 29.8296291314454 86.6025403784439 50 20 0 0 20 30 5 30 100 25 0 26.2940952255126 0.170370868554659 27.5 0.669872981077808 28.5355339059327 1.46446609406726 29.3301270189222 2.5 29.8296291314454 3.7059047744874 20 100 20 0 1 3 4 1 4 5 1 5 6 1 6 7 1 7 8 1 10 3 9 10 1 2 9 1 
5 3 1 5.77315972805081e-15
100 0 0 100 0 6.3 96.3 0 10 0 0 0 0 0 10 0 100 6.3 100 10 96.3 0 0 10 0 3 2 1 3 1 4 3 4 5 
4 2 1 1.4210854715202e-14
0 0 10 0 0 20 -18.1173331571765 67.6148078402348 10 -18.1173331571765 67.6148078402348 20 0 0 10 0 0 -70 10 -70 2 1 3 2 3 4 
14 12 1 3.60350756867806e-14
86.6025403784439 50 30 54.1025403784439 106.291651245989 30 51.6025403784439 110.621778264911 25 51.6877258127212 110.474232764678 26.2940952255126 51.9374768689828 110.041651245989 27.5 52.3347734254775 109.353513424467 28.5355339059328 52.8525403784439 108.45671475545 29.3301270189222 53.4554927656876 107.412370586199 29.8296291314454 86.6025403784439 50 20 51.6025403784439 110.621778264911 0 63.7653336856471 89.555202294876 20 75.0555349946514 70 0 63.7653336856471 89.555202294876 10 75.0555349946514 70 10 30 0 30 -65 25 -70 26.2940952255126 -69.8296291314454 27.5 -69.3301270189222 28.5355339059328 -68.5355339059328 29.3301270189222 -67.5 29.8296291314454 -66.2940952255126 20 0 0 -70 20 -45.6744133855935 0 -23.094010767585 10 -45.6744133855935 10 -23.094010767585 5 3 4 7 5 6 13 10 3 2 7 8 2 3 5 2 5 7 11 13 3 11 3 2 12 10 13 14 12 13 1 11 2 9 11 1 
17 15 1 0.0334089299259885
-35 60.6217782649107 25 -28.1698729810778 58.7916512459885 30 -34.8975127955347 60.5943169012397 25.8629191915563 -34.5931268576131 60.5127569349862 26.6999418879589 -34.0959769106025 60.3795460081676 27.4859487565833 -33.4209825916132 60.1986818254988 28.197351466954 -32.5884007071705 59.9755921819296 28.8128005844755 -31.6232173196386 59.7169720726925 29.3138262741445 -30.1805669660935 59.3304150754996 29.7784329667074 -29.1865461251673 59.0640679939137 29.944297970063 51.6025403784439 110.621778264911 25 54.1025403784439 106.291651245989 30 51.6877258127212 110.474232764678 26.2940952255126 51.9374768689828 110.041651245989 27.5 52.3347734254775 109.353513424467 28.5355339059328 52.8525403784439 108.45671475545 29.3301270189222 53.4554927656876 107.412370586199 29.8296291314454 -6.61002945370735e-17 -3.55521367641441e-15 1.5707963267949 4.99999999999999 0.17345226982898 0.0750258436971896 0.346904539306384 0.29785180274177 0.520356808623338 0.661790840030725 0.693809077876113 1.15592098025074 0.867261347112102 1.76541320011013 1.04071361636329 2.47197647833133 1.27198330880667 3.52806985313513 1.42138981765799 4.25574359775558 0 100 1.5707963267949 100 0.261799387799152 100 0.523598775598301 100 0.78539816339745 100 1.0471975511966 100 1.30899693899575 100 11 1 3 13 3 4 13 11 3 14 4 5 14 5 6 14 13 4 15 6 7 15 14 6 16 7 8 16 8 9 16 15 7 17 9 10 17 16 9 12 10 2 12 17 10 
4 2 1 7.94410929039127e-15
100 7.105427357601e-15 30 100 65 30 5 65 30 5 0 30 100 0 100 65 5 65 5 0 2 4 1 2 3 4 
14 12 1 5.52446139018599e-14
86.6025403784439 50 30 52.1025403784439 109.755752861126 30 51.6025403784439 110.621778264911 29 51.6195774652993 110.592269164864 29.2588190451026 51.6695276765517 110.505752861126 29.5 51.7489869878506 110.368125296822 29.7071067811866 51.8525403784439 110.188765563018 29.8660254037845 51.9731308558926 109.979896729168 29.9659258262891 86.6025403784439 50 20 51.6025403784439 110.621778264911 0 63.7653336856471 89.555202294876 20 75.0555349946514 70 0 63.7653336856471 89.555202294876 10 75.0555349946514 70 10 30 0 30 -69 29 -70 29.2588190451026 -69.9659258262891 29.5 -69.8660254037845 29.7071067811866 -69.7071067811866 29.8660254037845 -69.5 29.9659258262891 -69.2588190451025 20 0 0 -70 20 -45.6744133855935 0 -23.094010767585 10 -45.6744133855935 10 -23.094010767585 6 3 4 6 4 5 7 3 6 2 7 8 2 3 7 13 10 3 11 13 3 11 3 2 12 10 13 14 12 13 1 11 2 9 11 1 
4 2 1 1.06581410364015e-14
-18.1173331571765 67.6148078402348 20 63.7653336856471 89.555202294876 20 86.6025403784439 50 20 0 0 20 0 70 84.7711745708297 70 96.5925826289068 25.8819045102521 0 0 2 4 3 2 1 4 
6 4 1 1.33226762955019e-15
100 0 0 100 0 6.3 100 25.8035072311171 6.3 100 70 0 100 26.9738377467444 6.3 100 70 6.3 0 0 6.3 0 6.3 -25.8035072311171 0 -70 6.3 -26.9738377467444 6.3 -70 5 4 6 2 1 3 1 4 5 1 5 3 
4 2 1 7.06039870946136e-15
100 0 6.3 96.3 0 10 100 25.8035072311171 6.3 96.3 25.8035072311171 10 2.95822839457879e-31 -2.61629509039022 2.95822839457879e-31 2.61629509039023 25.8035072311171 -2.61629509039022 25.8035072311171 2.61629509039024 3 2 1 4 2 3 
8 6 1 7.105427357601e-15
96.3 0 10 96.3 25.8035072311171 10 96.3 26.9738377467444 10 96.3 70 10 75.0555349946514 70 10 63.7653336856471 89.555202294876 10 -18.1173331571765 67.6148078402348 10 0 0 10 0 0 0 25.8035072311171 0 26.9738377467444 0 70 21.2444650053486 70 32.5346663143529 89.555202294876 114.417333157176 67.6148078402348 96.3 0 5 4 3 8 2 1 8 3 2 8 5 3 7 6 5 7 5 8 
4 2 1 2.1316282072803e-14
-18.1173331571765 67.6148078402348 10 63.7653336856471 89.555202294876 10 63.7653336856471 89.555202294876 20 -18.1173331571765 67.6148078402348 20 0 0 0 84.7711745708297 10 84.7711745708297 10 0 3 2 1 3 1 4 
6 4 1 5.99520433297585e-15
100 70 0 100 70 6.3 96.3 70 10 75.0555349946514 70 0 84.7711745708297 70 10 75.0555349946514 70 10 0 100 6.3 100 10 96.3 0 75.0555349946514 10 84.7711745708297 10 75.0555349946514 5 4 6 1 4 5 3 1 5 2 1 3 
5 3 1 5.99520433297585e-15
100 70 0 100 70 6.3 96.3 70 10 75.0555349946514 70 0 75.0555349946514 70 10 0 100 6.3 100 10 96.3 0 75.0555349946514 10 75.0555349946514 3 1 4 3 4 5 2 1 3 
4 2 1 1.74426071995759e-14
100 25.8035072311171 6.3 96.3 25.8035072311171 10 100 26.9738377467444 6.3 96.3 26.9738377467444 10 0 25.8035072311171 1.17033051562728 25.8035072311171 0 26.9738377467444 1.17033051562728 26.9738377467444 4 1 2 4 3 1 
4 2 1 7.99673730351673e-15
100 26.9738377467444 6.3 96.3 26.9738377467444 10 100 70 6.3 96.3 70 10 26.9738377467444 -2.61629509039022 26.9738377467444 2.61629509039024 70 -2.61629509039022 70 2.61629509039024 3 2 1 4 2 3 

TShapes 114
Ve
1e-07
-35 60.6217782649107 25
0 0

0101101
*
Ve
1e-07
-35 60.6217782649107 0
0 0

0101101
*
Ed
 1e-07 1 1 0
1  1 0 0 25
2  1 1 0 0 25
2  2 2 0 0 25
6  1 1 12
6  2 2 0
0

0101000
-114 13 +113 14 *
Ve
1e-07
-8.88178419700125e-16 -4.44089209850063e-16 25
0 0

0101101
*
Ed
 1e-07 1 1 0
1  2 0 -5.94966725733497e-17 70
2  3 3 0 -5.94966725733497e-17 70
2  4 1 11 -5.94966725733497e-17 70
4 G1 3 0 1 11
6  3 3 0
6  4 1 15
0

0101000
+111 0 -114 0 *
Ve
1e-07
0 0 0
0 0

0101101
*
Ed
 1e-07 1 1 0
1  3 0 0 70
2  5 1 0 0 70
2  6 4 0 0 70
6  5 1 12
6  6 4 16
0

0101000
+109 14 -113 14 *
Ve
1e-07
0 0 20
0 0

0101101
*
Ed
 1e-07 1 1 0
1  4 0 20 25
2  7 1 0 20 25
2  8 5 0 20 25
6  7 1 12
6  8 5 12
0

0101000
-111 13 +107 14 *
Ve
1.00005e-07
0 0 10
0 0

0101101
*
Ed
 1e-07 1 1 0
1  5 0 0 10
2  9 6 18 0 10
2  10 1 0 0 10
6  9 1 12
6  10 6 12
0

0101000
+109 14 -105 14 *
Ed
 1e-07 1 1 0
1  6 0 0 10
2  11 1 21 0 10
2  12 7 0 0 10
6  11 1 22
6  12 7 22
0

0101000
+105 23 -107 23 *
Wi

0101100
+112 11 -110 0 +108 11 -106 11 -104 11 -103 20 *
Fa
0  1e-07 1 9
2  1
0101000
+102 10 *
Ve
1e-07
51.6025403784439 110.621778264911 25
0 0

0101101
*
Ve
1e-07
51.6025403784439 110.621778264911 0
0 0

0101101
*
Ed
 1e-07 1 1 0
1  7 0 0 25
2  13 8 0 0 25
2  14 2 0 0 25
6  13 2 0
6  14 8 12
0

0101000
-100 13 +99 14 *
Ed
 1e-07 1 1 0
1  8 0 -7.105427357601e-15 100
2  15 9 0 -7.105427357601e-15 100
2  16 2 11 -7.105427357601e-15 100
4 G1 9 0 2 11
6  15 9 0
6  16 2 11
0

0101000
+114 0 -100 0 *
Ed
 1e-07 1 1 0
1  9 0 0 100
2  17 4 0 0 100
2  18 2 0 0 100
6  17 2 0
6  18 4 16
0

0101000
-99 14 +113 14 *
Wi

0101100
-98 11 +97 0 -96 11 +112 11 *
Fa
0  1e-07 2 0
2  2
0101000
+95 13 *
Ve
1e-07
4.33012701892219 2.5 30
0 0

0101101
*
Ed
 1e-07 1 1 0
1  10 0 7.12707841441686e-16 1.5707963267949
2  19 3 0 7.12707841441686e-16 1.5707963267949
2  20 5 11 7.12707841441686e-16 1.5707963267949
6  19 3 0
6  20 5 15
0

0101000
+111 0 -93 0 *
Ve
1e-07
-28.1698729810778 58.7916512459885 30
0 0

0101101
*
Ed
 1e-07 1 1 0
1  11 0 -5.94966725733497e-17 65
2  21 3 0 -5.94966725733497e-17 65
2  22 10 11 -5.94966725733497e-17 65
4 G1 3 0 10 11
6  21 3 0
6  22 10 11
0

0101000
+93 0 -91 0 *
Ed
 1e-07 1 1 0
1  12 0 0 1.5707963267949
2  23 3 0 0 1.5707963267949
2  24 9 0 0 1.5707963267949
6  23 3 0
6  24 9 0
0

0101000
+114 0 -91 0 *
Wi

0101100
+92 0 -110 0 +90 0 -89 0 *
Fa
0  0 3 0
2  3
0101000
+88 0 *
Ve
1e-07
86.6025403784439 50 30
0 0

0101101
*
Ed
 1e-07 1 1 0
1  13 0 5 100
2  25 5 0 5 100
2  26 10 0 5 100
6  25 5 12
6  26 10 0
0

0101000
+93 13 -86 14 *
Ve
2.00001e-07
86.6025403784439 50 20
0 0

0101101
*
Ed
 1e-07 1 1 0
1  14 0 20 30
2  27 8 0 20 30
2  28 5 0 20 30
6  27 11 12
6  28 5 12
6  29 8 12
0

0101000
+84 14 -86 14 *
Ed
 1e-07 1 1 0
1  15 0 0 100
2  29 5 9 0 100
2  30 11 19 0 100
6  30 5 0
6  31 12 0
0

0101000
+107 25 -84 25 *
Wi

0101100
+85 11 +92 0 -83 11 +106 11 -82 15 *
Fa
0  1e-07 5 9
2  5
0101000
+81 10 *
Ve
0.0001
100 0 6.3
0 0

0101101
*
Ve
1e-07
100 0 0
0 0

0101101
*
Ed
 1e-07 1 1 0
1  16 0 0 6.3
2  31 12 0 0 6.3
2  32 6 0 0 6.3
6  32 6 28
6  33 13 0
0

0101000
-79 29 +78 29 *
Ve
0.0001
96.3 0 10
0 0

0101101
*
Ed
 1.00005e-07 1 1 0
1  17 0 -34.4361002437849 -29.2035100630044
2  33 13 0 -34.4361002437849 -29.2035100630044
2  34 6 27 -34.4361002437849 -29.2035100630044
6  34 6 4
6  35 14 0
0

0101000
+79 0 -76 0 *
Ed
 1e-07 1 1 0
1  18 0 0 100
2  35 6 0 0 100
2  36 14 0 0 100
6  36 6 28
6  37 4 30
0

0101000
+109 29 -78 29 *
Ed
 1.00005e-07 1 1 0
1  19 0 0 96.3
2  37 6 0 0 96.3
2  38 15 0 0 96.3
6  38 6 28
6  39 15 30
0

0101000
-76 29 +105 29 *
Wi

0101100
-77 27 -75 0 -74 27 +73 27 +104 31 *
Fa
0  1e-07 6 26
2  6
0101000
+72 25 *
Ve
1.00005e-07
-18.1173331571765 67.6148078402348 10
0 0

0101101
*
Ed
 1.00005e-07 1 1 0
1  20 0 0 70
2  39 7 0 0 70
2  40 16 0 0 70
6  40 7 22
6  41 15 32
0

0101000
+105 23 -70 23 *
Ve
1e-07
-18.1173331571765 67.6148078402348 20
0 0

0101101
*
Ed
 1e-07 1 1 0
1  21 0 0 70
2  41 7 0 0 70
2  42 11 0 0 70
6  42 7 22
6  43 12 22
0

0101000
-68 23 +107 23 *
Ed
 1e-07 1 1 0
1  22 0 0 10
2  43 7 0 0 10
2  44 17 0 0 10
6  44 7 22
6  45 16 22
0

0101000
-68 23 +70 23 *
Wi

0101000
-103 19 +69 19 -67 19 +66 19 *
Fa
0  1e-07 7 19
2  7
0101000
+65 0 *
Ve
1e-07
54.1025403784439 106.291651245989 30
0 0

0101101
*
Ed
 1e-07 1 1 0
1  23 0 0 65
2  45 8 0 0 65
2  46 10 0 0 65
6  46 8 12
6  47 10 0
0

0101000
-63 13 +86 14 *
Ed
 1e-07 1 1 0
1  24 0 2.81132058892248e-15 1.5707963267949
2  47 9 0 2.81132058892248e-15 1.5707963267949
2  48 8 11 2.81132058892248e-15 1.5707963267949
6  48 9 0
6  49 8 15
0

0101000
+100 0 -63 0 *
Ve
2.00001e-07
63.7653336856471 89.555202294876 20
0 0

0101101
*
Ed
 1e-07 1 1 0
1  25 0 -45.6744133855935 0
2  49 8 9 -45.6744133855935 0
2  50 11 19 -45.6744133855935 0
6  50 8 0
6  51 12 0
0

0101000
+60 25 -84 25 *
Ve
1e-07
75.0555349946514 70 0
0 0

0101101
*
Ed
 1e-07 1 1 0
1  26 0 23.094010767585 70
2  51 8 0 23.094010767585 70
2  52 4 0 23.094010767585 70
6  52 8 12
6  53 4 16
0

0101000
+58 14 -99 14 *
Ve
2.00001e-07
63.7653336856471 89.555202294876 10
0 0

0101101
*
Ed
 1e-07 1 1 0
1  27 0 5 15
2  53 8 9 5 15
2  54 17 19 5 15
6  54 8 0
6  55 16 0
0

0101000
+56 25 -60 25 *
Ve
2.00001e-07
75.0555349946514 70 10
0 0

0101101
*
Ed
 1e-07 1 1 0
1  28 0 -10 0
2  55 18 17 -10 0
2  56 8 7 -10 0
6  56 17 34
6  57 8 34
6  58 18 34
0

0101000
+54 35 -58 35 *
Ed
 1.00005e-07 1 1 0
1  29 0 -45.6744133855935 -23.094010767585
2  57 8 9 -45.6744133855935 -23.094010767585
2  58 16 19 -45.6744133855935 -23.094010767585
6  59 8 0
6  60 15 36
0

0101000
+56 25 -54 25 *
Wi

0101100
-62 11 +61 0 -83 11 +98 11 -59 15 +57 11 -55 15 +53 33 +52 15 *
Fa
0  1e-07 8 9
2  8
0101000
+51 10 *
Ed
 1e-07 1 1 0
1  30 0 4.99999999999999 100
2  59 9 0 4.99999999999999 100
2  60 10 11 4.99999999999999 100
4 G1 9 0 10 11
6  61 9 0
6  62 10 11
0

0101000
+91 0 -63 0 *
Wi

0101100
+89 0 -97 0 +49 0 -61 0 *
Fa
0  0 9 0
2  9
0101000
+48 0 *
Wi

0101100
+62 11 -49 0 +85 11 -90 0 *
Fa
0  1e-07 10 0
2  10
0101000
+46 13 *
Ed
 1e-07 1 1 0
1  31 0 0 84.7711745708297
2  61 17 0 0 84.7711745708297
2  62 11 0 0 84.7711745708297
6  63 12 22
6  64 16 22
0

0101000
+68 23 -60 23 *
Wi

0101000
-44 19 -59 0 +82 0 -67 19 *
Fa
0  1e-07 11 19
2  12
0101000
+43 0 *
Ve
1.00005e-07
100 25.8035072311171 6.3
0 0

0101101
*
Ed
 1.00005e-07 1 1 0
1  32 0 0 25.8035072311171
2  63 13 0 0 25.8035072311171
2  64 12 27 0 25.8035072311171
6  65 13 27
6  66 14 0
0

0101000
+79 0 -41 0 *
Ve
1e-07
100 70 0
0 0

0101101
*
Ed
 1e-07 1 1 0
1  33 0 0 70
2  65 12 0 0 70
2  66 14 0 0 70
6  67 13 0
6  68 4 30
0

0101000
-39 29 +78 29 *
Ve
1.00005e-07
100 26.9738377467444 6.3
0 0

0101101
*
Ed
 1e-07 1 1 0
1  34 0 25.8035072311171 26.9738377467444
2  67 19 0 25.8035072311171 26.9738377467444
2  68 12 27 25.8035072311171 26.9738377467444
6  69 19 0
6  70 13 27
0

0101000
+41 0 -37 0 *
Ve
0.0001
100 70 6.3
0 0

0101101
*
Ed
 1e-07 1 1 0
1  35 0 0 6.3
2  69 12 0 0 6.3
2  70 18 0 0 6.3
6  71 13 0
6  72 18 28
0

0101000
-35 29 +39 29 *
Ed
 1.00005e-07 1 1 0
1  36 0 26.9738377467444 70
2  71 20 0 26.9738377467444 70
2  72 12 27 26.9738377467444 70
6  73 13 27
6  74 20 0
0

0101000
+37 0 -35 0 *
Wi

0101100
-77 27 -40 0 +38 27 -36 0 +34 27 -33 0 *
Fa
0  1e-07 12 0
2  13
0101000
+32 29 *
Ve
0.0001
96.3 25.8035072311171 10
0 0

0101101
*
Ed
 1.00005e-07 1 1 0
1  37 0 0 25.8035072311171
2  73 13 0 0 25.8035072311171
2  74 15 27 0 25.8035072311171
6  75 14 0
6  76 15 39
0

0101000
+76 0 -30 0 *
Ed
 1e-07 1 1 0
1  38 0 -2.61629509039022 2.61629509039024
2  75 13 0 -2.61629509039022 2.61629509039024
2  76 19 0 -2.61629509039022 2.61629509039024
4 G1 13 0 19 0
6  77 19 0
6  78 14 0
0

0101000
+41 0 -30 0 *
Wi

0101100
-75 0 +40 0 -29 0 +28 0 *
Fa
0  0 13 0
2  14
0101000
+27 0 *
Ed
 1.00005e-07 1 1 0
1  39 0 0 84.7711745708297
2  77 16 0 0 84.7711745708297
2  78 17 0 0 84.7711745708297
6  79 16 22
6  80 15 32
0

0101000
+70 23 -56 23 *
Wi

0101000
-25 19 -55 0 +44 19 +66 19 *
Fa
0  1e-07 17 19
2  16
0101000
+24 0 *
Ve
0.0001
96.3 70 10
0 0

0101101
*
Ed
 1.00005e-07 1 1 0
1  40 0 -34.4361002437849 -29.2035100630044
2  79 20 0 -34.4361002437849 -29.2035100630044
2  80 18 27 -34.4361002437849 -29.2035100630044
6  81 18 4
6  82 20 0
0

0101000
+35 0 -22 0 *
Ed
 1e-07 1 1 0
1  41 0 75.0555349946514 100
2  81 18 0 75.0555349946514 100
2  82 14 0 75.0555349946514 100
6  83 18 28
6  84 4 30
0

0101000
+58 29 -39 29 *
Ed
 1e-07 1 1 0
1  42 0 75.0555349946514 96.3
2  83 18 37 75.0555349946514 96.3
6  85 18 6
6  86 15 0
0

0101000
+54 38 -22 38 *
Wi

0101000
-34 27 -21 0 -20 27 -53 40 +19 39 *
Fa
0  1e-07 18 26
2  18
0101000
+18 25 *
Ve
0.0001
96.3 26.9738377467444 10
0 0

0101101
*
Ed
 1.00005e-07 1 1 0
1  43 0 25.8035072311171 26.9738377467444
2  84 19 0 25.8035072311171 26.9738377467444
2  85 21 41 25.8035072311171 26.9738377467444
6  87 19 0
6  88 15 39
0

0101000
+30 0 -16 0 *
Ed
 1e-07 1 1 0
1  44 0 0 1.17033051562728
2  86 20 0 0 1.17033051562728
2  87 19 0 0 1.17033051562728
4 G1 19 0 20 0
6  89 19 0
6  90 20 0
0

0101000
+37 0 -16 0 *
Wi

0101100
+28 0 -36 0 +15 0 -14 0 *
Fa
0  4.01639435896922e-14 19 0
2  19
0101000
+13 0 *
Ed
 1.00005e-07 1 1 0
1  45 0 26.9738377467444 70
2  88 20 0 26.9738377467444 70
2  89 15 27 26.9738377467444 70
6  91 20 0
6  92 15 39
0

0101000
+16 0 -22 0 *
Wi

0101100
-14 0 +33 0 -11 0 +21 0 *
Fa
0  0 20 0
2  20
0101000
+10 0 *
Wi

0101100
+108 24 +96 24 -57 24 +20 37 -38 37 -74 37 *
Fa
0  1e-07 22 0
2  4
0101000
-8 0 *
Wi

0101000
+29 38 +15 38 +11 38 -19 0 -52 6 -25 42 -69 42 +73 37 *
Fa
0  1.00005e-07 23 0
2  15
0101000
-6 0 *
Sh

0101000
-101 6 +94 24 +87 2 -80 6 -71 6 +64 6 +50 6 +47 2 +45 24 -42 6 
+31 37 +26 38 -23 6 +17 6 -12 38 +9 38 -7 0 -5 0 *
So

0100100
+4 3 *
Co

0100000
+3 2 *
Co

1100000
+2 1 *

+1 0 